<?xml version="1.0" encoding="UTF-8"?>
<svg version="1.1" xmlns="http://www.w3.org/2000/svg" width="1200" height="1024">
<path d="M0 0 C102.63 0 205.26 0 311 0 C311 94.05 311 188.1 311 285 C360.83 285 410.66 285 462 285 C462 379.38 462 473.76 462 571 C477.18 570.67 492.36 570.34 508 570 C515.74058327 569.92824582 523.47460248 569.86933741 531.21435547 569.88647461 C533.15215046 569.88675929 535.08994555 569.88659334 537.02774048 569.8860321 C542.09924519 569.88575504 547.17072431 569.89146681 552.24222326 569.89860606 C557.6125 569.90502931 562.98277787 569.90545788 568.35305786 569.90663147 C578.43799883 569.90969066 588.52292844 569.91782776 598.6078645 569.92798096 C610.12503461 569.93931444 621.64220538 569.94469511 633.15937972 569.94967639 C656.77292623 569.96001761 680.38646198 569.97771841 704 570 C704 580.56 704 591.12 704 602 C594.71000645 602.63929938 485.41978085 603.22575716 304.5679512 604.02921772 C299.37621649 604.05147717 294.1844822 604.07383074 288.99274826 604.09627056 C216.57173799 604.40927369 144.15060797 604.70779903 -209.5 605.125 C-210.68990286 605.12459853 -211.87980572 605.12419705 -213.10576624 605.12378341 C-273.73719534 605.10312001 -334.36859964 605.06221079 -395 605 C-395 594.77 -395 584.54 -395 574 C-372.84520683 573.86769687 -350.69040602 573.73696309 -328.53558826 573.60884857 C-318.24092339 573.5492714 -307.94626293 573.48907738 -297.65161133 573.42724609 C-288.64350328 573.37314376 -279.63538835 573.32038669 -270.6272642 573.26903296 C-265.88963948 573.24198319 -261.15201967 573.21440566 -256.41440773 573.18519592 C-222.94189785 572.98096847 -189.47437659 573 -156 573 C-156 477.96 -156 382.92 -156 285 C-104.52 285 -53.04 285 0 285 C0 190.95 0 96.9 0 0 Z M32 32 C32 106.25 32 180.5 32 257 C113.51 257 195.02 257 279 257 C279 182.75 279 108.5 279 32 C197.49 32 115.98 32 32 32 Z M-124 317 C-124 391.25 -124 465.5 -124 542 C-42.49 542 39.02 542 123 542 C123 467.75 123 393.5 123 317 C41.49 317 -40.02 317 -124 317 Z M183 317 C183 391.25 183 465.5 183 542 C264.51 542 346.02 542 430 542 C430 467.75 430 393.5 430 317 C348.49 317 266.98 317 183 317 Z " fill="#30AEBE" transform="translate(395,419)"/>
<path d="M0 0 C0 10.56 0 21.12 0 32 C-109.28999355 32.63929938 -218.58021915 33.22575716 -399.4320488 34.02921772 C-404.62378351 34.05147717 -409.8155178 34.07383074 -415.00725174 34.09627056 C-487.42826201 34.40927369 -559.84939203 34.70779903 -913.5 35.125 C-914.68990286 35.12459853 -915.87980572 35.12419705 -917.10576624 35.12378341 C-977.73719534 35.10312001 -1038.36859964 35.06221079 -1099 35 C-1099 24.77 -1099 14.54 -1099 4 C-1005.40709523 3.39208077 -911.8148968 2.92252173 -818.22015756 2.72586632 C-814.83269246 2.71873494 -811.44522752 2.71152806 -808.05776262 2.70429993 C-769.01652776 2.62109965 -729.97527682 2.54653779 -690.934021 2.47393799 C-658.79845234 2.4141189 -626.66289192 2.35128312 -594.52734375 2.28125 C-593.42650244 2.27886435 -592.32566113 2.2764787 -591.191461 2.27402076 C-527.91539882 2.1366034 -464.6463274 1.8531038 -401.37347603 1.17679882 C-380.49285515 0.95503699 -359.6118593 0.81024999 -338.73046875 0.68359375 C-337.83314427 0.67813829 -336.93581979 0.67268282 -336.01130366 0.66706204 C-323.34374557 0.59042329 -310.67615545 0.52038186 -298.00854683 0.45268011 C-295.14082338 0.43724883 -292.27310165 0.42152788 -289.40538025 0.40571976 C-192.93714466 -0.12544619 -96.46935022 -0.10199928 0 0 Z " fill="#8BC824" transform="translate(1099,989)"/>
<path d="M0 0 C0.74185547 0.18272461 1.48371094 0.36544922 2.24804688 0.55371094 C37.90240942 9.41636677 71.19987328 31.67122806 91 63 C91.37479492 63.58313965 91.74958984 64.1662793 92.13574219 64.76708984 C107.91376713 89.52269837 115.22677926 116.1192289 115.25 145.375 C115.25067474 146.1363324 115.25134949 146.89766479 115.25204468 147.68206787 C115.22752659 165.08257899 112.87659435 180.60280772 107 197 C106.77441406 197.63534668 106.54882812 198.27069336 106.31640625 198.92529297 C92.76699014 236.44454479 63.45211207 265.74360669 27.76855469 282.76318359 C-1.21205396 295.70989994 -37.02062039 299.86515666 -68 292 C-69.15653076 291.71793701 -69.15653076 291.71793701 -70.33642578 291.43017578 C-109.5172618 281.60957541 -142.58411479 256.25883105 -163.34570312 221.76416016 C-182.08202091 189.61026575 -189.24429634 148.4115526 -180 112 C-179.81195801 111.22897949 -179.62391602 110.45795898 -179.43017578 109.66357422 C-172.91955443 83.68842222 -159.95549087 61.62576909 -142 42 C-141.23945312 41.16726562 -140.47890625 40.33453125 -139.6953125 39.4765625 C-120.46835901 19.40446819 -94.61415392 6.83366343 -68 0 C-66.72898437 -0.34160156 -65.45796875 -0.68320313 -64.1484375 -1.03515625 C-44.35111817 -5.44139192 -19.57304967 -5.23279491 0 0 Z M-122.59326172 68.38623047 C-144.74199682 93.79461975 -153.2179003 125.73661771 -151 159 C-147.78488232 188.81475636 -132.43347001 217.18558225 -109.36035156 236.36279297 C-100.25538152 243.68569641 -90.65343158 249.2533106 -80 254 C-78.41832031 254.72316406 -78.41832031 254.72316406 -76.8046875 255.4609375 C-49.69522932 266.90099019 -17.79060679 266.03963747 9.40551758 255.41894531 C24.55640248 249.16773232 37.11788445 240.18557774 49 229 C49.60328125 228.46117187 50.2065625 227.92234375 50.828125 227.3671875 C69.34731294 210.14607348 81.8698966 181.85875599 83.1640625 156.82666016 C84.3272457 122.13956788 75.71660658 91.51443572 51.96875 65.66015625 C31.61542668 44.16012282 3.47906461 29.91538545 -26.3046875 28.68359375 C-63.70297399 27.7457725 -97.15066306 40.52955942 -122.59326172 68.38623047 Z " fill="#DC3031" transform="translate(942,152)"/>
<path d="M0 0 C3.84352284 2.12287599 5.85316375 4.37795406 7.8125 8.375 C9.50387001 14.35117404 8.52499132 18.92832117 5.8125 24.375 C3.03426869 27.94960642 -0.13795191 31.04951049 -3.38671875 34.1953125 C-4.29573441 35.09821014 -5.20475006 36.00110779 -6.14131165 36.93136597 C-8.5465652 39.31949849 -10.96967275 41.6886853 -13.39678955 44.05456543 C-15.35922833 45.97349169 -17.30868096 47.90531291 -19.25752544 49.83802986 C-34.68356126 65.13429023 -34.68356126 65.13429023 -40.0480957 69.72021484 C-45.1526383 74.12501843 -49.85804529 78.93414454 -54.60420227 83.71653748 C-56.31844586 85.44372676 -58.03595302 87.1676132 -59.75427246 88.89074707 C-63.40152441 92.54933971 -67.04481315 96.21186281 -70.6875 99.875 C-74.9139063 104.12513369 -79.14199022 108.37357062 -83.37434387 112.61778259 C-85.05353635 114.3033829 -86.72965076 115.99200141 -88.40563965 117.68078613 C-93.33666591 122.63517423 -98.29092748 127.507833 -103.62463379 132.03479004 C-105.00607779 133.2194244 -106.32159082 134.48001157 -107.625 135.75 C-111.35796574 138.11724657 -114.80210467 138.56337609 -119.1875 138.375 C-124.41480596 136.80680821 -127.74325547 134.60650042 -131.1875 130.375 C-133.6946746 125.36065081 -133.74146775 120.67676633 -132.1875 115.375 C-126.93781201 107.6465488 -119.14286582 101.18466629 -112.53515625 94.58984375 C-111.30864646 93.36265878 -110.08228502 92.13532553 -108.85606384 90.90785217 C-106.29669472 88.34701619 -103.73554507 85.78797829 -101.1730957 83.23022461 C-97.90739492 79.97022046 -94.64620525 76.70574635 -91.38634586 73.43990231 C-88.85811373 70.90803715 -86.32748061 68.37858256 -83.79614067 65.84982491 C-82.59346808 64.64781401 -81.39152291 63.44507481 -80.1903553 62.24155998 C-74.6461203 56.68886733 -69.10394788 51.20586069 -63.13404846 46.10585022 C-58.97445999 42.40718832 -55.1406537 38.36379993 -51.24609375 34.390625 C-49.83040332 32.95827703 -48.41470057 31.525941 -46.99828434 30.09431076 C-43.54104438 26.5992349 -40.08850825 23.09964173 -36.64770508 19.58837891 C-34.70429653 17.60573226 -32.75560171 15.62857649 -30.80079651 13.65716553 C-28.96949126 11.80996915 -27.14597219 9.95501166 -25.33140564 8.09136963 C-17.95695448 0.68572716 -10.69012797 -4.73137145 0 0 Z " fill="#EB8788" transform="translate(1146.1875,42.625)"/>
<path d="M0 0 C3.5 1.8125 3.5 1.8125 6 4 C6.5775 4.45375 7.155 4.9075 7.75 5.375 C10.5732437 9.04521681 11.21845673 12.84982486 11 17.375 C9.42034601 28.00660384 -1.66285196 36.32228331 -9.40283203 42.89624023 C-14.70816727 47.53055816 -19.64239812 52.53011172 -24.60189819 57.5267334 C-26.34974922 59.287525 -28.10085972 61.04501864 -29.8527832 62.80175781 C-33.57136351 66.53168125 -37.28598204 70.26553437 -41 74 C-45.30901429 78.33273773 -49.61970377 82.66378153 -53.93466187 86.99060059 C-55.6470917 88.70944044 -57.35644512 90.43129812 -59.06567383 92.15332031 C-63.98294884 97.09340701 -68.93203161 101.92682638 -74.23602295 106.4564209 C-77.206629 109.05586822 -79.94213912 111.87731608 -82.6953125 114.703125 C-83.91768212 115.94299098 -85.14034696 117.18256597 -86.36328125 118.421875 C-88.25350496 120.34313444 -90.14125376 122.26665081 -92.02392578 124.1953125 C-93.86592043 126.07974502 -95.71733059 127.95450379 -97.5703125 129.828125 C-98.40491501 130.69065887 -98.40491501 130.69065887 -99.25637817 131.57061768 C-103.0714486 135.41035249 -106.83585199 138.46209484 -112.34375 139.3984375 C-117.28761219 139.34469987 -120.78049648 138.84571167 -125 136 C-128.65337604 132.2451413 -130.93861541 128.40343435 -131.03515625 123.05078125 C-130.43427545 115.35657595 -125.76300771 110.4559503 -120.421875 105.19140625 C-119.89160706 104.66159653 -119.36133911 104.1317868 -118.81500244 103.58592224 C-117.69788656 102.47181024 -116.57835855 101.3601121 -115.45654297 100.25073242 C-113.76346096 98.57581653 -112.07842903 96.89312827 -110.39453125 95.20898438 C-109.29994752 94.119321 -108.20490959 93.03011364 -107.109375 91.94140625 C-106.61636902 91.44951309 -106.12336304 90.95761993 -105.61541748 90.45082092 C-102.94945308 87.81978122 -100.22184628 85.31401953 -97.37402344 82.88061523 C-92.19915172 78.38944488 -87.40678343 73.51877457 -82.58329773 68.65846252 C-80.86905414 66.93127324 -79.15154698 65.2073868 -77.43322754 63.48425293 C-73.78597559 59.82566029 -70.14268685 56.16313719 -66.5 52.5 C-62.2735937 48.24986631 -58.04550978 44.00142938 -53.81315613 39.75721741 C-52.13396365 38.0716171 -50.45784924 36.38299859 -48.78186035 34.69421387 C-43.87104887 29.76015596 -38.92517437 24.93061865 -33.62841797 20.40579224 C-31.52688371 18.59156481 -29.5760426 16.65730915 -27.640625 14.66796875 C-26.91746094 13.93255859 -26.19429687 13.19714844 -25.44921875 12.43945312 C-23.96568162 10.92034272 -22.48394979 9.39946748 -21.00390625 7.87695312 C-20.28589844 7.14798828 -19.56789063 6.41902344 -18.828125 5.66796875 C-18.1877832 5.01078857 -17.54744141 4.3536084 -16.88769531 3.67651367 C-11.85393735 -0.79410401 -6.46543449 -0.77772618 0 0 Z " fill="#EB8788" transform="translate(1059,0)"/>
<path d="M0 0 C4.02381561 2.01190781 6.69767589 4.14978568 9 8 C9.5390625 11.390625 9.5390625 11.390625 9.625 15.25 C9.67914062 16.51328125 9.73328125 17.7765625 9.7890625 19.078125 C8.83435424 28.22011362 -3.11164818 36.25815095 -9.33984375 42.47265625 C-10.43183191 43.56531989 -11.52367175 44.65813178 -12.6153717 45.75108337 C-14.89227122 48.02944838 -17.17094653 50.30601783 -19.45092773 52.58129883 C-22.35342441 55.47809895 -25.25140706 58.3793668 -28.14806271 61.28200626 C-30.3983543 63.53593465 -32.65105092 65.78744726 -34.90445137 68.03826714 C-35.97315128 69.10630638 -37.04112674 70.17507108 -38.10832024 71.24461555 C-47.4324839 80.58481508 -47.4324839 80.58481508 -52.02514648 84.51635742 C-56.7876028 88.59839228 -61.15316844 93.07286629 -65.55185318 97.53781891 C-67.10514659 99.11346027 -68.66265021 100.68482816 -70.22140503 102.25506592 C-74.64694999 106.71391535 -79.06805265 111.17710059 -83.47900391 115.65039062 C-86.19201845 118.40114519 -88.91237543 121.14445446 -91.63750839 123.8832016 C-92.66807931 124.92179008 -93.69587414 125.96314131 -94.72073746 127.00736237 C-96.15344413 128.46668747 -97.59533018 129.9163389 -99.03955078 131.36425781 C-99.85481232 132.18919739 -100.67007385 133.01413696 -101.51004028 133.86407471 C-106.60346085 138.23328829 -111.04593205 139.56811486 -117.6015625 139.3515625 C-122.45254846 138.64050593 -125.13901465 135.95406484 -128.3125 132.4375 C-131.1931768 128.2765224 -131.72811599 123.94945513 -131 119 C-129.08763435 114.63169841 -126.93413862 111.56206844 -123.5637207 108.20727539 C-122.66881424 107.30936783 -121.77390778 106.41146027 -120.85188293 105.48634338 C-119.87674336 104.52321713 -118.90137019 103.56032732 -117.92578125 102.59765625 C-116.91731756 101.59225623 -115.90944889 100.58625905 -114.90214539 99.57969666 C-112.79256466 97.47470665 -110.67818995 95.37470299 -108.55981445 93.27856445 C-105.86458361 90.61150499 -103.17799849 87.93595144 -100.49458027 85.25701237 C-97.91227959 82.67990908 -95.32534059 80.10748081 -92.73828125 77.53515625 C-92.25479029 77.05354601 -91.77129932 76.57193577 -91.27315712 76.07573128 C-82.65084322 67.49669607 -82.65084322 67.49669607 -78.09619141 63.609375 C-72.93308889 59.17055263 -68.2074627 54.28562643 -63.42866707 49.44270134 C-61.68550924 47.67722105 -59.93815983 45.91598864 -58.18955994 44.15589905 C-53.22363461 39.1566593 -48.26200763 34.1532149 -43.31079102 29.1394043 C-40.26715388 26.05789126 -37.21605542 22.98393219 -34.16021538 19.91452217 C-33.00651258 18.7528299 -31.85557837 17.58838057 -30.70762825 16.42100334 C-12.33551881 -2.25673057 -12.33551881 -2.25673057 0 0 Z " fill="#EB8788" transform="translate(1191,116)"/>
</svg>
