<?xml version="1.0" encoding="UTF-8"?>
<svg version="1.1" xmlns="http://www.w3.org/2000/svg" width="1067" height="1201">
<path d="M0 0 C0.69158203 0.23654297 1.38316406 0.47308594 2.09570312 0.71679688 C16.7838079 5.91249911 30.06374498 14.05631841 43.44091797 21.9140625 C47.91352373 24.53994532 52.40972706 27.12451569 56.90551758 29.71044922 C63.34570144 33.41525204 69.77616339 37.13692461 76.20898438 40.85449219 C79.43068275 42.71602672 82.65271079 44.57698839 85.875 46.4375 C87.47408203 47.36079102 87.47408203 47.36079102 89.10546875 48.30273438 C97.68995597 53.25453042 106.29580293 58.16824868 114.90472412 63.07736206 C123.94471708 68.23416608 132.94525321 73.45543769 141.92675781 78.71337891 C149.54905778 83.16916344 157.20531311 87.56397146 164.875 91.9375 C177.20025196 98.96603507 189.49722067 106.04240434 201.78222656 113.14111328 C207.18670645 116.26324605 212.59347412 119.38141204 218 122.5 C220.1666775 123.74998122 222.33334417 124.99998121 224.5 126.25 C226.10875 127.178125 226.10875 127.178125 227.75 128.125 C237.5 133.75 237.5 133.75 240.74951172 135.62475586 C242.91776264 136.8756448 245.08605697 138.12645852 247.25439453 139.37719727 C252.64717915 142.48798335 258.03922093 145.60004238 263.4296875 148.71484375 C275.23629484 155.53502637 287.06027 162.3232326 298.90472412 169.07736206 C307.94471708 174.23416608 316.94525321 179.45543769 325.92675781 184.71337891 C333.54905778 189.16916344 341.20531311 193.56397146 348.875 197.9375 C361.20025196 204.96603507 373.49722067 212.04240434 385.78222656 219.14111328 C390.10304455 221.63722164 394.42536522 224.1307209 398.74780273 226.62402344 C400.90887006 227.87059962 403.06984076 229.11734331 405.23071289 230.36425781 C411.88882712 234.20623148 418.5491521 238.04434294 425.21069336 241.88037109 C428.48866225 243.76993667 431.76412595 245.66377859 435.0390625 247.55859375 C438.69136305 249.67158607 442.3512165 251.76950288 446.0234375 253.84765625 C454.32765129 258.57748641 461.91781401 263.51064273 469 270 C469.48807129 270.44037598 469.97614258 270.88075195 470.47900391 271.33447266 C490.5472995 289.62174677 500.43620089 314.106313 502 341 C502.18959924 347.83493228 502.14382438 354.67492387 502.14044189 361.51182556 C502.14302838 363.60658925 502.14604233 365.70135246 502.1494453 367.79611498 C502.15748516 373.5360534 502.15930318 379.27597929 502.16004276 385.01592267 C502.16189858 391.21317383 502.16944854 397.41041858 502.17617798 403.60766602 C502.19044702 417.85710072 502.19628499 432.10653132 502.20086992 446.35597166 C502.20320975 453.40506229 502.20681282 460.45415212 502.2105653 467.50324212 C502.22339732 491.6565867 502.23411683 515.80993085 502.2375679 539.96327877 C502.23778953 541.47802277 502.23801131 542.99276676 502.23823325 544.50751076 C502.23845389 546.02580393 502.23867437 547.5440971 502.2388947 549.06239027 C502.23933724 552.10808114 502.23978436 555.15377202 502.24023438 558.19946289 C502.24034377 558.95461089 502.24045316 559.70975889 502.24056586 560.48779016 C502.2441948 584.9619157 502.26011047 609.43601158 502.28342474 633.91012577 C502.3080576 659.81602868 502.32174234 685.72191465 502.32293582 711.62782961 C502.32310726 714.47526555 502.32332268 717.32270148 502.32357025 720.17013741 C502.32362602 720.87120104 502.32368179 721.57226467 502.32373925 722.29457265 C502.32488666 733.54380224 502.33588215 744.79300123 502.35045731 756.04222052 C502.36487104 767.3631739 502.36778075 778.68407737 502.36001733 790.00504135 C502.35612256 796.13001476 502.35698299 802.25488588 502.37107468 808.37984657 C502.38388388 813.99901451 502.3825549 819.61800402 502.37048396 825.23717196 C502.36853907 827.25804872 502.37154875 829.27893843 502.38032833 831.29979705 C502.49515001 859.54227338 498.22885971 887.07235296 479 909 C478.43152344 909.72316406 477.86304688 910.44632813 477.27734375 911.19140625 C465.55307667 925.5955058 448.19249403 934.19687817 432.30761719 943.12841797 C427.2146594 946.01021708 422.17118994 948.97483557 417.125 951.9375 C407.30963361 957.67925359 397.44532779 963.33324322 387.56738281 968.96630859 C379.65777747 973.47744852 371.76059145 978.00945294 363.875 982.5625 C362.80894531 983.17802734 361.74289062 983.79355469 360.64453125 984.42773438 C357.42942477 986.28470194 354.21464622 988.14223579 351 990 C337.05155632 998.06089304 323.08996112 1006.09709426 309.09527588 1014.07736206 C301.03736788 1018.67394223 293.00582214 1023.3132416 285 1028 C276.40477328 1033.0318069 267.7768787 1038.00389072 259.125 1042.9375 C246.79974804 1049.96603507 234.50277933 1057.04240434 222.21777344 1064.14111328 C216.81329355 1067.26324605 211.40652588 1070.38141204 206 1073.5 C203.8333225 1074.74998122 201.66665583 1075.99998121 199.5 1077.25 C195.16666667 1079.75 190.83333333 1082.25 186.5 1084.75 C185.42766113 1085.36866943 184.35532227 1085.98733887 183.25048828 1086.62475586 C181.08223736 1087.8756448 178.91394303 1089.12645852 176.74560547 1090.37719727 C171.35282085 1093.48798335 165.96077907 1096.60004238 160.5703125 1099.71484375 C148.76370516 1106.53502637 136.93973 1113.3232326 125.09527588 1120.07736206 C117.03736788 1124.67394223 109.00582214 1129.3132416 101 1134 C91.23375795 1139.71734123 81.42010769 1145.34888287 71.58886719 1150.95336914 C63.46034565 1155.58812265 55.35085245 1160.2545366 47.25 1164.9375 C44.10099176 1166.75456952 40.95141553 1168.57064592 37.80126953 1170.38574219 C36.04388016 1171.39845428 34.28696959 1172.41199819 32.53076172 1173.42675781 C3.69776861 1190.05805308 -24.70973649 1199.13249618 -58.04101562 1190.58081055 C-76.43789739 1185.45356339 -92.83388013 1175.56929258 -109.05322266 1165.76367188 C-114.28867602 1162.63020749 -119.58394896 1159.60080497 -124.875 1156.5625 C-133.26584822 1151.73511751 -141.64263864 1146.88513091 -150 1142 C-167.90889181 1131.5376849 -185.88699585 1121.19734024 -203.9041748 1110.9229126 C-212.94435523 1105.76602355 -221.94507624 1100.54466591 -230.92675781 1095.28662109 C-239.13915175 1090.48588404 -247.39261375 1085.75859742 -255.65625 1081.046875 C-265.19053205 1075.61066155 -274.70382204 1070.13904894 -284.20605469 1064.64697266 C-292.75395807 1059.71011177 -301.32494496 1054.81441161 -309.90023804 1049.92538452 C-319.05945478 1044.70145878 -328.17562065 1039.40710245 -337.27392578 1034.07788086 C-343.98182393 1030.15665823 -350.72769475 1026.30877307 -357.5 1022.5 C-365.26983843 1018.13021006 -372.99554103 1013.69297143 -380.6875 1009.1875 C-389.38647051 1004.09234804 -398.117229 999.05575323 -406.875 994.0625 C-421.34964616 985.80859497 -435.78222016 977.48282529 -450.20898438 969.14550781 C-453.43068272 967.2839733 -456.65274348 965.42306814 -459.875 963.5625 C-460.9381543 962.94842285 -462.00130859 962.3343457 -463.09667969 961.70166016 C-469.37545951 958.07885141 -475.6656652 954.47697126 -481.96612549 950.89207458 C-521.18998867 928.5710658 -521.18998867 928.5710658 -531 920 C-532.010625 919.236875 -533.02125 918.47375 -534.0625 917.6875 C-551.85215044 901.41186236 -563.04847606 876.99013197 -564.36646163 852.91591227 C-564.55660823 847.26653364 -564.52956592 841.61907778 -564.50120544 835.96736145 C-564.50510628 833.79286817 -564.51075296 831.61837744 -564.51797634 829.44389266 C-564.53263598 823.51620003 -564.52260649 817.58877562 -564.50823963 811.66109192 C-564.49707965 805.25000569 -564.50908892 798.83895556 -564.51808167 792.4278717 C-564.53117955 780.61148759 -564.52625965 768.79519952 -564.51200638 756.97881913 C-564.49892397 746.06205573 -564.49376453 735.14532288 -564.49632454 724.22855186 C-564.49648495 723.50274764 -564.49664537 722.77694342 -564.49681065 722.02914513 C-564.49747429 719.08246312 -564.49817672 716.13578111 -564.49893599 713.18909912 C-564.5059499 685.58381169 -564.49050196 657.978578 -564.46431253 630.37330424 C-564.44119251 605.87360849 -564.43581309 581.37397178 -564.44604492 556.87426758 C-564.44864716 550.59784606 -564.45123224 544.32142453 -564.45364285 538.04500294 C-564.45394029 537.27218223 -564.45423774 536.49936152 -564.4545442 535.703122 C-564.46216617 515.19894429 -564.45574074 494.69477137 -564.44494683 474.19059581 C-564.44379908 471.98330159 -564.4426559 469.77600738 -564.44152 467.56871316 C-564.44076476 466.10460824 -564.43999911 464.64050332 -564.43922299 463.17639841 C-564.43357553 452.26720437 -564.4348872 441.35802564 -564.43945122 430.44883156 C-564.44456853 418.0411853 -564.43836594 405.63360625 -564.41855692 393.22597293 C-564.40870376 386.89905277 -564.40355857 380.57222536 -564.41144943 374.24530029 C-564.41853197 368.44778818 -564.41164147 362.6504628 -564.3938458 356.85297521 C-564.38981804 354.76174289 -564.39077289 352.67049341 -564.39736467 350.5792676 C-564.48315961 320.80022442 -556.86795505 295.35937218 -535.8125 273.375 C-523.36348254 261.41918132 -508.43123268 253.48779352 -493.49891663 245.09884644 C-487.26293472 241.593464 -481.06688122 238.02014075 -474.875 234.4375 C-472.72399603 233.19524722 -470.5729544 231.95305966 -468.421875 230.7109375 C-466.28120611 229.47403429 -464.14058106 228.23705521 -462 227 C-448.05155632 218.93910696 -434.08996112 210.90290574 -420.09527588 202.92263794 C-412.03736697 198.32605725 -404.00587227 193.68667368 -396 189 C-387.44450589 183.99254896 -378.85975755 179.03845141 -370.25 174.125 C-369.6667395 173.79211975 -369.083479 173.4592395 -368.48254395 173.11627197 C-363.72563102 170.40199484 -358.96709282 167.69057169 -354.20849609 164.97924805 C-350.05491026 162.61248568 -345.90195739 160.24461806 -341.75 157.875 C-341.16641724 157.54195862 -340.58283447 157.20891724 -339.98156738 156.86578369 C-330.98021232 151.72647333 -322.0178681 146.52288709 -313.07275391 141.28637695 C-304.2704834 136.14069148 -295.41972696 131.08142327 -286.5625 126.03125 C-278.69462595 121.54444263 -270.84174598 117.03235242 -263 112.5 C-253.97469154 107.28357514 -244.93072197 102.10085025 -235.875 96.9375 C-227.22304141 92.00403266 -218.59522495 87.03180587 -210 82 C-201.40477328 76.9681931 -192.7768787 71.99610928 -184.125 67.0625 C-171.79799824 60.0329671 -159.49978703 52.95479979 -147.21337891 45.85449219 C-143.99213087 43.9954586 -140.76799185 42.14153837 -137.54296875 40.2890625 C-127.43312035 34.477404 -117.34778396 28.6318954 -107.33203125 22.65966797 C-101.89945653 19.42036759 -96.45324485 16.20438789 -91 13 C-90.23623047 12.54979492 -89.47246094 12.09958984 -88.68554688 11.63574219 C-62.44913747 -3.6709506 -29.29385408 -10.30018963 0 0 Z " fill="#390091" transform="translate(564,4)"/>
<path d="M0 0 C1.01795151 -0.0033284 2.03590302 -0.0066568 3.08470154 -0.01008606 C5.23704583 -0.01512764 7.38939786 -0.01749525 9.54174805 -0.01733398 C12.74737453 -0.01949007 15.95263876 -0.03759081 19.15820312 -0.05664062 C32.75892537 -0.09316194 46.16519193 0.60439212 59.70069885 1.92352295 C62.14517838 2.15827739 64.59047441 2.37176492 67.03759766 2.5769043 C81.00669812 3.78048351 94.60120374 7.0516777 108.24609375 10.16796875 C109.59724039 10.46476701 110.94848063 10.76113944 112.29980469 11.05712891 C122.56284869 13.3413253 132.44734686 16.33229247 142.37109375 19.79296875 C143.12590027 20.05364136 143.88070679 20.31431396 144.65838623 20.58288574 C156.97962773 24.84741964 169.01570082 29.56603696 180.84863281 35.05810547 C183.09423148 36.09766673 185.35067167 37.10751012 187.61328125 38.109375 C220.76443684 52.98295283 251.87930524 74.34579081 278.6640625 98.83203125 C280.08282284 100.11556935 281.50789247 101.39265539 282.9597168 102.63867188 C288.79005073 107.64724139 294.2480619 112.98635581 299.68359375 118.41796875 C300.57369141 119.29582031 301.46378906 120.17367187 302.38085938 121.078125 C307.70115105 126.38675789 312.61260909 131.86381288 317.28857422 137.74902344 C319.09242275 139.97807448 320.96921851 142.08059241 322.93359375 144.16796875 C333.60233605 156.05052006 342.70125894 169.69724303 351.24609375 183.16796875 C351.79813477 184.03736084 351.79813477 184.03736084 352.36132812 184.92431641 C356.82873581 192.03647757 356.82873581 192.03647757 358.24609375 195.16796875 C357.0302545 198.8154865 356.24321378 199.02052618 352.9609375 200.8125 C352.05061768 201.31692627 351.14029785 201.82135254 350.20239258 202.34106445 C349.20618896 202.88206787 348.20998535 203.42307129 347.18359375 203.98046875 C345.06032747 205.15598121 342.93795789 206.33311455 340.81640625 207.51171875 C339.72231445 208.11757813 338.62822266 208.7234375 337.50097656 209.34765625 C332.47937406 212.1560172 327.51896609 215.06573516 322.55859375 217.98046875 C313.86039754 223.07692887 305.12885119 228.11222325 296.37109375 233.10546875 C287.27520454 238.29223497 278.18896984 243.49478455 269.12109375 248.73046875 C268.05503906 249.34599609 266.98898437 249.96152344 265.890625 250.59570312 C262.67551852 252.45267069 259.46073997 254.31020454 256.24609375 256.16796875 C221.57024402 276.20735969 221.57024402 276.20735969 205.59179688 285.24169922 C203.18540899 286.62716335 200.81272661 288.03707314 198.44726562 289.48876953 C197.81616882 289.86872574 197.18507202 290.24868195 196.53485107 290.64015198 C195.3156903 291.37513808 194.10398299 292.12267278 192.90118408 292.88414001 C191.23339844 293.87915039 191.23339844 293.87915039 188.24609375 295.16796875 C184.36137417 294.06339689 183.15498848 291.8263136 181.18359375 288.41796875 C173.92250205 276.57418378 164.79013352 266.2095651 155.24609375 256.16796875 C154.66730469 255.53632813 154.08851563 254.9046875 153.4921875 254.25390625 C123.63049677 222.67086492 74.29716763 201.17718736 31.12893677 199.85079956 C26.64689907 199.75691125 22.16654497 199.72851754 17.68359375 199.73046875 C16.73511566 199.73006592 15.78663757 199.72966309 14.80941772 199.72924805 C-36.30784304 199.85394133 -83.44368795 219.46199384 -120.27099609 254.75244141 C-121.61306185 256.03352426 -122.97349146 257.29530092 -124.3359375 258.5546875 C-150.78612658 283.72296112 -167.45144753 319.07915639 -175.75390625 354.16796875 C-175.97820312 355.06386719 -176.2025 355.95976563 -176.43359375 356.8828125 C-182.92790618 385.30791843 -180.68982897 416.09046342 -173.75390625 444.16796875 C-173.56441406 445.00972656 -173.37492188 445.85148437 -173.1796875 446.71875 C-162.77156828 489.34563318 -135.05608302 530.39453309 -98.75390625 555.16796875 C-98.10599121 555.61188965 -97.45807617 556.05581055 -96.79052734 556.51318359 C-71.45996375 573.70241517 -44.0948639 585.30317385 -13.75390625 590.16796875 C-12.73063232 590.3386084 -11.7073584 590.50924805 -10.65307617 590.68505859 C-2.09036355 592.02660428 6.270667 592.55464011 14.93359375 592.54296875 C15.59507416 592.54275726 16.25655457 592.54254578 16.93807983 592.54232788 C37.08327731 592.47889785 57.12870546 589.63272525 76.24609375 583.16796875 C77.04611816 582.90032715 77.84614258 582.63268555 78.67041016 582.35693359 C99.83193798 575.13174258 119.59246167 564.92137979 137.24609375 551.16796875 C138.10654297 550.49797852 138.10654297 550.49797852 138.984375 549.81445312 C158.67845464 534.24828947 174.16452613 515.49734644 187.24609375 494.16796875 C190.88241998 495.54245742 194.21673496 497.17231733 197.60546875 499.07421875 C198.6301123 499.64809326 199.65475586 500.22196777 200.71044922 500.81323242 C201.79471191 501.42529541 202.87897461 502.0373584 203.99609375 502.66796875 C205.11773926 503.29872314 206.23938477 503.92947754 207.39501953 504.5793457 C215.03756615 508.88930372 222.62641049 513.28062438 230.171875 517.7578125 C234.5318098 520.34417867 238.91863157 522.88299735 243.30859375 525.41796875 C250.48680955 529.56500537 257.65073451 533.7359011 264.80859375 537.91796875 C274.36434416 543.49938 283.94415568 549.03797754 293.53344727 554.56152344 C301.76187577 559.3041406 309.96921656 564.08192608 318.16748047 568.87646484 C323.53996762 572.01553615 328.92156411 575.13784137 334.31640625 578.23828125 C334.90701843 578.57792908 335.49763062 578.9175769 336.10614014 579.26751709 C338.96766241 580.91282604 341.8304396 582.55583764 344.6953125 584.1953125 C349.65520671 587.04461343 354.54890566 589.90106631 359.24609375 593.16796875 C350.97961603 615.83686641 331.66131286 638.40874006 315.40625 655.83203125 C313.63894654 657.74314784 311.94827632 659.6862147 310.2578125 661.6640625 C305.6147115 666.98460462 300.63227564 671.96783255 295.64111328 676.95825195 C294.00781927 678.59372757 292.38270905 680.23704583 290.7578125 681.88085938 C284.23136157 688.44186403 277.50698514 694.41806236 270.24609375 700.16796875 C269.21830857 701.03107707 268.19488624 701.8994657 267.1796875 702.77734375 C232.91144442 732.16544579 191.71718392 754.34164436 149.24609375 769.16796875 C148.34407227 769.48604492 147.44205078 769.80412109 146.51269531 770.13183594 C140.45742157 772.25528664 134.36859725 774.24776116 128.24609375 776.16796875 C127.4581543 776.42143066 126.67021484 776.67489258 125.85839844 776.93603516 C112.69852069 781.10848094 99.26373264 783.57684109 85.68359375 785.91796875 C84.82971069 786.06685547 83.97582764 786.21574219 83.09606934 786.36914062 C60.31495536 790.3069142 37.98711882 791.57539005 14.87109375 791.54296875 C13.53220622 791.54308109 12.19331868 791.54320323 10.85443115 791.54333496 C-8.69689633 791.52902063 -27.5027756 790.70664125 -46.75390625 787.16796875 C-48.6776175 786.85975159 -50.60208605 786.55621753 -52.52734375 786.2578125 C-111.29905268 776.81726044 -169.116732 751.71733754 -216.75390625 716.16796875 C-217.33527344 715.73677734 -217.91664063 715.30558594 -218.515625 714.86132812 C-229.56348507 706.63231565 -240.06360264 697.73413114 -250.2421875 688.45703125 C-251.99904092 686.85591756 -253.76836776 685.26843225 -255.546875 683.69140625 C-263.79394982 676.30499049 -271.33896752 668.38423974 -278.75390625 660.16796875 C-279.29660156 659.57000488 -279.83929688 658.97204102 -280.3984375 658.35595703 C-323.02293083 611.15529395 -351.38720329 553.26100639 -367.75390625 492.16796875 C-367.97804199 491.35231445 -368.20217773 490.53666016 -368.43310547 489.69628906 C-371.19733427 479.63675272 -372.91707579 469.51884707 -374.43798828 459.21240234 C-374.82885522 456.6829435 -375.31449245 454.17753776 -375.81640625 451.66796875 C-378.95544823 434.35834412 -379.11763759 417.02072777 -379.06640625 399.48046875 C-379.06491577 398.22261566 -379.06342529 396.96476257 -379.06188965 395.66879272 C-379.00456917 368.75661466 -377.43683267 342.54436173 -371.75390625 316.16796875 C-371.53863281 315.1507373 -371.32335937 314.13350586 -371.1015625 313.08544922 C-363.35052519 276.83183334 -350.52830184 243.15057905 -333.75390625 210.16796875 C-333.32287598 209.31589844 -332.8918457 208.46382812 -332.44775391 207.5859375 C-319.07348721 181.47136104 -301.04442699 157.1774798 -281.75390625 135.16796875 C-280.98820312 134.29011719 -280.2225 133.41226563 -279.43359375 132.5078125 C-273.43253903 125.80245393 -267.11556599 119.40245648 -260.77819824 113.01702881 C-259.77901764 112.00980643 -258.78132184 111.00110844 -257.78527832 109.99078369 C-251.12390097 103.24411954 -244.17393048 97.07229418 -236.75390625 91.16796875 C-235.7263543 90.30458278 -234.70294115 89.43619139 -233.6875 88.55859375 C-215.42869416 72.90002473 -195.02067359 59.77514318 -173.8984375 48.33056641 C-172.40864157 47.5229152 -170.92186498 46.70967958 -169.4375 45.89208984 C-140.80307615 30.15579632 -110.48747214 18.7901715 -78.75390625 11.16796875 C-77.72346191 10.91273438 -76.69301758 10.6575 -75.63134766 10.39453125 C-57.12323305 5.83312921 -38.66974349 3.23325066 -19.75390625 1.16796875 C-19.0757637 1.08094193 -18.39762115 0.9939151 -17.69892883 0.9042511 C-11.78565257 0.17141599 -5.95497781 0.00697507 0 0 Z " fill="#FEFEFE" transform="translate(518.75390625,202.83203125)"/>
<path d="M0 0 C0.69158203 0.23654297 1.38316406 0.47308594 2.09570312 0.71679688 C16.7838079 5.91249911 30.06374498 14.05631841 43.44091797 21.9140625 C47.91352373 24.53994532 52.40972706 27.12451569 56.90551758 29.71044922 C63.34570144 33.41525204 69.77616339 37.13692461 76.20898438 40.85449219 C79.43068275 42.71602672 82.65271079 44.57698839 85.875 46.4375 C87.47408203 47.36079102 87.47408203 47.36079102 89.10546875 48.30273438 C97.68995597 53.25453042 106.29580293 58.16824868 114.90472412 63.07736206 C123.94471708 68.23416608 132.94525321 73.45543769 141.92675781 78.71337891 C149.54905778 83.16916344 157.20531311 87.56397146 164.875 91.9375 C177.20025196 98.96603507 189.49722067 106.04240434 201.78222656 113.14111328 C207.18670645 116.26324605 212.59347412 119.38141204 218 122.5 C220.1666775 123.74998122 222.33334417 124.99998121 224.5 126.25 C226.10875 127.178125 226.10875 127.178125 227.75 128.125 C237.5 133.75 237.5 133.75 240.74951172 135.62475586 C242.91776264 136.8756448 245.08605697 138.12645852 247.25439453 139.37719727 C252.64717915 142.48798335 258.03922093 145.60004238 263.4296875 148.71484375 C275.23629484 155.53502637 287.06027 162.3232326 298.90472412 169.07736206 C307.94471708 174.23416608 316.94525321 179.45543769 325.92675781 184.71337891 C333.54905778 189.16916344 341.20531311 193.56397146 348.875 197.9375 C361.20025196 204.96603507 373.49722067 212.04240434 385.78222656 219.14111328 C390.10304455 221.63722164 394.42536522 224.1307209 398.74780273 226.62402344 C400.90887006 227.87059962 403.06984076 229.11734331 405.23071289 230.36425781 C411.88882712 234.20623148 418.5491521 238.04434294 425.21069336 241.88037109 C428.48866225 243.76993667 431.76412595 245.66377859 435.0390625 247.55859375 C438.69136305 249.67158607 442.3512165 251.76950288 446.0234375 253.84765625 C454.32580166 258.57643291 461.92463128 263.50544513 469 270 C469.49338867 270.45101074 469.98677734 270.90202148 470.49511719 271.36669922 C477.92740014 278.23818687 483.75228275 285.29496314 489 294 C485.76733025 296.6908148 482.57222803 298.93884808 478.88671875 300.9609375 C477.89889404 301.50733887 476.91106934 302.05374023 475.89331055 302.61669922 C474.83539307 303.19693848 473.77747559 303.77717773 472.6875 304.375 C464.13092938 309.11560963 455.62337472 313.9226912 447.1875 318.875 C438.53147009 323.951689 429.84277147 328.96774584 421.125 333.9375 C408.79951217 340.96561901 396.50277644 348.04240601 384.21777344 355.14111328 C379.89679815 357.63731251 375.57432542 360.13091163 371.25170898 362.62426758 C369.09222592 363.86995482 366.93288235 365.11588394 364.77368164 366.36206055 C359.22253108 369.56572841 353.66947714 372.76602683 348.11328125 375.9609375 C336.67967041 382.53921282 325.26700611 389.13939727 314 396 C311.99767932 393.38935627 310.16133136 390.74454334 308.43359375 387.9453125 C307.71308838 386.78636475 307.71308838 386.78636475 306.97802734 385.60400391 C306.46965332 384.78593262 305.9612793 383.96786133 305.4375 383.125 C300.24996576 374.85230595 294.83461228 366.82818335 289 359 C288.60103516 358.46213867 288.20207031 357.92427734 287.79101562 357.37011719 C275.39089048 340.72679302 261.44604486 325.38374725 246.8125 310.6875 C246.06403809 309.93436523 245.31557617 309.18123047 244.54443359 308.40527344 C215.64837603 279.59212224 180.56559135 256.70058288 143.96679688 238.95898438 C142.02747843 238.01339812 140.09967401 237.04693735 138.171875 236.078125 C126.17829677 230.14536915 113.68943428 225.59509115 101.09667969 221.10595703 C98.49863289 220.17808317 95.90878005 219.23144482 93.3203125 218.27734375 C70.72531722 210.15019652 45.87138003 204.96644272 22.0625 202.375 C21.02416016 202.25382813 19.98582031 202.13265625 18.91601562 202.0078125 C-27.7460245 196.75654927 -74.32885058 199.42450843 -120 210 C-121.72907822 210.38191109 -123.45823748 210.76345554 -125.1875 211.14453125 C-147.79087701 216.29731165 -169.98374983 224.28302334 -191 234 C-191.91797363 234.41862305 -192.83594727 234.83724609 -193.78173828 235.26855469 C-228.4609833 251.14041271 -260.3200886 271.85851923 -289 297 C-289.88945312 297.77730469 -290.77890625 298.55460937 -291.6953125 299.35546875 C-298.23473899 305.21486941 -304.49062274 311.36453612 -310.72268677 317.54745483 C-312.1444053 318.95726623 -313.57006788 320.36309679 -314.99584961 321.76879883 C-321.10286175 327.86817788 -326.62251363 334.25470663 -332 341 C-332.86349653 342.02745904 -333.73189014 343.05086764 -334.609375 344.06640625 C-363.30083733 377.52232674 -384.12909612 417.12145424 -400 458 C-400.42901611 459.09779785 -400.42901611 459.09779785 -400.86669922 460.21777344 C-417.28419969 502.63057343 -423.39810563 548.5465971 -423.31567383 593.75585938 C-423.31250772 597.36619164 -423.33612794 600.97570501 -423.36132812 604.5859375 C-423.41517888 624.76005288 -422.08988546 644.90016322 -417.73803711 664.64453125 C-416.95425254 668.20798979 -416.32136368 671.78131103 -415.69140625 675.375 C-414.11282284 684.00539055 -411.8781713 692.39072306 -409.4375 700.8125 C-409.2213504 701.56435577 -409.00520081 702.31621155 -408.78250122 703.09085083 C-401.11609753 729.65030048 -390.81210145 754.84950412 -378.2734375 779.46850586 C-377.87511719 780.25104736 -377.47679687 781.03358887 -377.06640625 781.83984375 C-376.5396228 782.86646118 -376.5396228 782.86646118 -376.00219727 783.91381836 C-374.88656167 786.23613412 -373.93332747 788.59930488 -373 791 C-385.58686953 798.38019668 -398.19983845 805.70991502 -410.875 812.9375 C-423.20027894 819.96598766 -435.49722095 827.0424045 -447.78222656 834.14111328 C-454.27125096 837.88978034 -460.7633695 841.63308667 -467.25488281 845.37744141 C-472.64748314 848.48818339 -478.03937822 851.60013327 -483.4296875 854.71484375 C-494.15206678 860.90880403 -504.88423314 867.08480459 -515.6385498 873.22311401 C-520.76020844 876.14668549 -525.88015012 879.07326247 -531 882 C-532.00466309 882.57395508 -533.00932617 883.14791016 -534.04443359 883.73925781 C-536.73998062 885.28100994 -539.43295951 886.82713551 -542.125 888.375 C-542.90673584 888.82133789 -543.68847168 889.26767578 -544.49389648 889.72753906 C-548.49508943 892.02755468 -548.49508943 892.02755468 -552 895 C-558.93285135 880.18005652 -564.16701546 865.65790752 -564.13142776 849.08887577 C-564.1334804 848.19836209 -564.13553303 847.30784842 -564.13764787 846.39034948 C-564.14331636 843.39702433 -564.14186079 840.40374522 -564.14044189 837.41041565 C-564.14302562 835.24628218 -564.14603881 833.08214918 -564.1494453 830.91801685 C-564.15751779 824.96330195 -564.15930501 819.0085991 -564.16004276 813.05387938 C-564.16189291 806.63441178 -564.16944011 800.21495044 -564.17617798 793.79548645 C-564.19047273 779.02165601 -564.1962884 764.24782804 -564.20086992 749.47399189 C-564.20320675 742.17061141 -564.20680953 734.86723171 -564.2105653 727.56385184 C-564.22340102 702.55548316 -564.23411959 677.54711492 -564.2375679 652.53874302 C-564.23778953 650.9690669 -564.23801132 649.39939077 -564.23823325 647.82971465 C-564.23845389 646.25627813 -564.23867437 644.68284162 -564.2388947 643.1094051 C-564.23933725 639.95290093 -564.23978437 636.79639675 -564.24023438 633.63989258 C-564.24034377 632.85726403 -564.24045316 632.07463547 -564.24056586 631.2682909 C-564.24419511 605.90127095 -564.26011007 580.53427959 -564.28342474 555.16727059 C-564.30803844 528.33772543 -564.32174148 501.50819661 -564.32293582 474.67863983 C-564.32310727 471.73151425 -564.32332269 468.78438868 -564.32357025 465.83726311 C-564.32362602 465.1116163 -564.32368179 464.3859695 -564.32373925 463.63833339 C-564.32488843 451.97592598 -564.33589928 440.31354798 -564.35045731 428.65115049 C-564.36484655 416.92079932 -564.3677938 405.19048893 -564.36001733 393.4601313 C-564.35611358 387.10898369 -564.35702713 380.75793475 -564.37107468 374.40679932 C-564.38382989 368.58661612 -564.38260168 362.76660558 -564.37048396 356.94642257 C-564.36852978 354.84675105 -564.37159244 352.74706722 -564.38032833 350.64741296 C-564.49644565 320.83896177 -556.89028123 295.38268334 -535.8125 273.375 C-523.36348254 261.41918132 -508.43123268 253.48779352 -493.49891663 245.09884644 C-487.26293472 241.593464 -481.06688122 238.02014075 -474.875 234.4375 C-472.72399603 233.19524722 -470.5729544 231.95305966 -468.421875 230.7109375 C-466.28120611 229.47403429 -464.14058106 228.23705521 -462 227 C-448.05155632 218.93910696 -434.08996112 210.90290574 -420.09527588 202.92263794 C-412.03736697 198.32605725 -404.00587227 193.68667368 -396 189 C-387.44450589 183.99254896 -378.85975755 179.03845141 -370.25 174.125 C-369.6667395 173.79211975 -369.083479 173.4592395 -368.48254395 173.11627197 C-363.72563102 170.40199484 -358.96709282 167.69057169 -354.20849609 164.97924805 C-350.05491026 162.61248568 -345.90195739 160.24461806 -341.75 157.875 C-341.16641724 157.54195862 -340.58283447 157.20891724 -339.98156738 156.86578369 C-330.98021232 151.72647333 -322.0178681 146.52288709 -313.07275391 141.28637695 C-304.2704834 136.14069148 -295.41972696 131.08142327 -286.5625 126.03125 C-278.69462595 121.54444263 -270.84174598 117.03235242 -263 112.5 C-253.97469154 107.28357514 -244.93072197 102.10085025 -235.875 96.9375 C-227.22304141 92.00403266 -218.59522495 87.03180587 -210 82 C-201.40477328 76.9681931 -192.7768787 71.99610928 -184.125 67.0625 C-171.79799824 60.0329671 -159.49978703 52.95479979 -147.21337891 45.85449219 C-143.99213087 43.9954586 -140.76799185 42.14153837 -137.54296875 40.2890625 C-127.43312035 34.477404 -117.34778396 28.6318954 -107.33203125 22.65966797 C-101.89945653 19.42036759 -96.45324485 16.20438789 -91 13 C-90.23623047 12.54979492 -89.47246094 12.09958984 -88.68554688 11.63574219 C-62.44913747 -3.6709506 -29.29385408 -10.30018963 0 0 Z " fill="#A179DC" transform="translate(564,4)"/>
<path d="M0 0 C1.3059082 1.82568359 1.3059082 1.82568359 2.80078125 4.3984375 C3.63838989 5.81684937 3.63838989 5.81684937 4.49291992 7.26391602 C5.39361206 8.80390259 5.39361206 8.80390259 6.3125 10.375 C12.67003339 21.02898618 19.49803838 31.12479608 27 41 C27.70503662 41.93247559 27.70503662 41.93247559 28.42431641 42.88378906 C33.64622751 49.75618714 39.11574076 56.39958728 44.75 62.9375 C45.26884766 63.54037842 45.78769531 64.14325684 46.32226562 64.7644043 C49.48654033 68.39357006 52.79636168 71.81018774 56.2265625 75.1875 C58.05271245 77.05387352 59.75463583 78.98980464 61.453125 80.97265625 C64.98542067 85.06118019 68.78944511 88.76717689 72.75 92.4375 C73.4524585 93.09145752 74.15491699 93.74541504 74.87866211 94.41918945 C80.40201881 99.52404299 86.10142716 104.33371954 92 109 C93.10301295 109.90448408 94.20448643 110.81084769 95.3046875 111.71875 C136.95275238 145.90030324 187.47416193 171.71247826 239.59814453 185.36181641 C241.86588751 185.96436572 244.11784557 186.60738566 246.37109375 187.26171875 C261.36367819 191.46504691 276.81902883 193.48913827 292.1953125 195.765625 C292.93332092 195.8758197 293.67132935 195.9860144 294.43170166 196.09954834 C304.35449555 197.54196578 314.08645056 198.16678206 324.1171875 198.203125 C325.36839386 198.20882507 326.61960022 198.21452515 327.90872192 198.22039795 C330.55620935 198.22981106 333.20358464 198.23672468 335.85107422 198.24023438 C339.80062515 198.2466875 343.74979011 198.28082935 347.69921875 198.3125 C371.60124414 198.41403315 394.97082598 196.19072107 418.4375 191.6875 C419.24240875 191.53593445 420.0473175 191.3843689 420.87661743 191.22821045 C432.56091246 189.02067731 444.07022318 186.55380324 455.38671875 182.85400391 C458.36458133 181.88085711 461.35409449 180.94798572 464.34375 180.01171875 C503.67268108 167.49255699 540.4986272 149.12730801 574 125 C575.05888428 124.23840576 575.05888428 124.23840576 576.13916016 123.46142578 C585.83888032 116.4376461 595.04368801 108.94555968 604 101 C604.91265625 100.19949219 605.8253125 99.39898438 606.765625 98.57421875 C613.28111922 92.7381975 619.51336383 86.61294945 625.72167969 80.45355225 C627.14381295 79.04332142 628.56989288 77.63707405 629.99609375 76.23095703 C636.10302276 70.13166168 641.62258739 63.74520085 647 57 C647.86349653 55.97254096 648.73189014 54.94913236 649.609375 53.93359375 C661.36012961 40.2315277 671.274244 25.31533314 680.75439453 9.98632812 C682.44803163 7.28553796 684.21336231 4.64001993 686 2 C689.63260345 3.36472823 692.90961407 4.9980116 696.26171875 6.94921875 C697.28458984 7.5421875 698.30746094 8.13515625 699.36132812 8.74609375 C700.45896484 9.38675781 701.55660156 10.02742187 702.6875 10.6875 C703.84940348 11.3623338 705.01151671 12.03680656 706.17382812 12.7109375 C708.5872404 14.11107089 710.9997446 15.51275019 713.41162109 16.91552734 C718.93267091 20.1249128 724.46704371 23.31120224 730 26.5 C732.16411393 27.74860879 734.32817625 28.99730702 736.4921875 30.24609375 C740.85065388 32.76069436 745.21012191 35.27354661 749.5703125 37.78515625 C761.05306897 44.40141117 772.51960901 51.04390011 783.96142578 57.73071289 C791.2931253 62.01244947 798.64287304 66.26212437 806 70.5 C824.05670596 80.90306822 842.04939219 91.41499485 860 102 C859.26648458 109.13886132 855.54690449 112.73136463 851 118 C850.13568359 119.10021484 850.13568359 119.10021484 849.25390625 120.22265625 C837.53115544 134.60848186 820.17986769 143.20397755 804.30761719 152.12841797 C799.2146594 155.01021708 794.17118994 157.97483557 789.125 160.9375 C779.30963361 166.67925359 769.44532779 172.33324322 759.56738281 177.96630859 C751.65777747 182.47744852 743.76059145 187.00945294 735.875 191.5625 C734.80894531 192.17802734 733.74289062 192.79355469 732.64453125 193.42773438 C729.42942477 195.28470194 726.21464622 197.14223579 723 199 C709.05155632 207.06089304 695.08996112 215.09709426 681.09527588 223.07736206 C673.03736788 227.67394223 665.00582214 232.3132416 657 237 C648.40477328 242.0318069 639.7768787 247.00389072 631.125 251.9375 C618.79974804 258.96603507 606.50277933 266.04240434 594.21777344 273.14111328 C588.81329355 276.26324605 583.40652588 279.38141204 578 282.5 C575.8333225 283.74998122 573.66665583 284.99998121 571.5 286.25 C567.16666667 288.75 562.83333333 291.25 558.5 293.75 C557.42766113 294.36866943 556.35532227 294.98733887 555.25048828 295.62475586 C553.08223736 296.8756448 550.91394303 298.12645852 548.74560547 299.37719727 C543.35282085 302.48798335 537.96077907 305.60004238 532.5703125 308.71484375 C520.76370516 315.53502637 508.93973 322.3232326 497.09527588 329.07736206 C489.03736788 333.67394223 481.00582214 338.3132416 473 343 C463.23375795 348.71734123 453.42010769 354.34888287 443.58886719 359.95336914 C435.46034565 364.58812265 427.35085245 369.2545366 419.25 373.9375 C416.10099176 375.75456952 412.95141553 377.57064592 409.80126953 379.38574219 C408.04388016 380.39845428 406.28696959 381.41199819 404.53076172 382.42675781 C375.69776861 399.05805308 347.29026351 408.13249618 313.95898438 399.58081055 C295.56210261 394.45356339 279.16611987 384.56929258 262.94677734 374.76367188 C257.71132398 371.63020749 252.41605104 368.60080497 247.125 365.5625 C238.73415178 360.73511751 230.35736136 355.88513091 222 351 C204.09110819 340.5376849 186.11300415 330.19734024 168.0958252 319.9229126 C159.05564477 314.76602355 150.05492376 309.54466591 141.07324219 304.28662109 C132.86084825 299.48588404 124.60738625 294.75859742 116.34375 290.046875 C106.80946795 284.61066155 97.29617796 279.13904894 87.79394531 273.64697266 C79.24604193 268.71011177 70.67505504 263.81441161 62.09976196 258.92538452 C52.94054522 253.70145878 43.82437935 248.40710245 34.72607422 243.07788086 C28.01817607 239.15665823 21.27230525 235.30877307 14.5 231.5 C6.73016157 227.13021006 -0.99554103 222.69297143 -8.6875 218.1875 C-17.38647051 213.09234804 -26.117229 208.05575323 -34.875 203.0625 C-49.34964616 194.80859497 -63.78222016 186.48282529 -78.20898438 178.14550781 C-81.43068272 176.2839733 -84.65274348 174.42306814 -87.875 172.5625 C-89.46973145 171.64138428 -89.46973145 171.64138428 -91.09667969 170.70166016 C-97.37545951 167.07885141 -103.6656652 163.47697126 -109.96612549 159.89207458 C-149.18998867 137.5710658 -149.18998867 137.5710658 -159 129 C-160.5159375 127.8553125 -160.5159375 127.8553125 -162.0625 126.6875 C-168.3081057 120.97343521 -175.88470679 113.03888879 -179 105 C-178.81030273 103.06176758 -178.81030273 103.06176758 -178 101 C-176.15600586 99.57470703 -176.15600586 99.57470703 -173.71484375 98.2578125 C-172.34936401 97.50600708 -172.34936401 97.50600708 -170.95629883 96.73901367 C-169.96009521 96.20638916 -168.9638916 95.67376465 -167.9375 95.125 C-165.81417647 93.95871861 -163.69180858 92.79069602 -161.5703125 91.62109375 C-159.9291748 90.72173096 -159.9291748 90.72173096 -158.25488281 89.80419922 C-153.22457005 87.01586954 -148.2693107 84.10388237 -143.3125 81.1875 C-134.61461737 76.09051084 -125.88275179 71.05574228 -117.125 66.0625 C-108.02911079 60.87573378 -98.94287609 55.6731842 -89.875 50.4375 C-88.80894531 49.82197266 -87.74289063 49.20644531 -86.64453125 48.57226562 C-83.42942477 46.71529806 -80.21464622 44.85776421 -77 43 C-62.40845145 34.56745262 -47.80760715 26.15201997 -33.16699219 17.80493164 C-27.64883949 14.65843207 -22.13534685 11.50473874 -16.63671875 8.32421875 C-15.65936768 7.76049561 -14.6820166 7.19677246 -13.67504883 6.6159668 C-11.85386276 5.56492219 -10.03457923 4.51057168 -8.2175293 3.45239258 C-7.02317261 2.76439575 -7.02317261 2.76439575 -5.8046875 2.0625 C-5.11358887 1.66160156 -4.42249023 1.26070312 -3.71044922 0.84765625 C-2 0 -2 0 0 0 Z " fill="#280068" transform="translate(192,795)"/>
<path d="M0 0 C2.79076816 0.00314494 5.5804569 -0.02032511 8.37109375 -0.0456543 C24.57512018 -0.10443423 40.09493708 1.74576649 55.62890625 6.50317383 C56.63123291 6.80433105 57.63355957 7.10548828 58.66625977 7.41577148 C90.21144782 17.1285067 117.4553902 33.17051921 141.29443359 55.98168945 C142.48571871 57.11926056 143.69070389 58.24245607 144.8984375 59.36254883 C156.21605036 70.15000875 165.80339844 83.88141053 173.69140625 97.31567383 C172.97114258 97.70553467 172.97114258 97.70553467 172.23632812 98.10327148 C161.10577724 104.14235448 150.09955651 110.36371714 139.17724609 116.77148438 C131.42033357 121.31853424 123.62787692 125.8007405 115.81640625 130.25317383 C103.49079687 137.28107839 91.1941812 144.3580807 78.90917969 151.45678711 C72.42015529 155.20545416 65.92803675 158.94876049 59.43652344 162.69311523 C54.04392311 165.80385721 48.65202803 168.91580709 43.26171875 172.03051758 C31.45511141 178.8507002 19.63113625 185.63890643 7.78668213 192.39303589 C-0.27122587 196.98961606 -8.30277161 201.62891542 -16.30859375 206.31567383 C-24.90382047 211.34748073 -33.53171505 216.31956455 -42.18359375 221.25317383 C-54.50884571 228.2817089 -66.80581442 235.35807817 -79.09082031 242.45678711 C-85.57984471 246.20545416 -92.07196325 249.94876049 -98.56347656 253.69311523 C-103.95607689 256.80385721 -109.34797197 259.91580709 -114.73828125 263.03051758 C-129.64221171 271.64009704 -144.57513906 280.19764659 -159.52490234 288.72729492 C-162.78696546 290.58863351 -166.04798255 292.45179333 -169.30859375 294.31567383 C-181.70538823 269.20642575 -189.86357691 245.1377763 -193.30859375 217.31567383 C-193.40648193 216.57341553 -193.50437012 215.83115723 -193.60522461 215.06640625 C-199.69144195 166.05634028 -183.37703317 114.94178464 -153.30859375 76.31567383 C-141.7525468 61.55234366 -128.51120761 48.30315309 -113.30859375 37.31567383 C-112.7480127 36.90542969 -112.18743164 36.49518555 -111.60986328 36.07250977 C-87.60034346 18.68986515 -60.34070118 7.73489547 -31.30859375 2.31567383 C-30.3846582 2.12948486 -29.46072266 1.9432959 -28.50878906 1.75146484 C-19.02295891 0.03378111 -9.60798424 -0.02255003 0 0 Z " fill="#A179DB" transform="translate(532.30859375,401.684326171875)"/>
<path d="M0 0 C2.68701172 1.26831055 2.68701172 1.26831055 5.4296875 2.88671875 C6.97462891 3.78874023 6.97462891 3.78874023 8.55078125 4.70898438 C9.64777344 5.36189453 10.74476563 6.01480469 11.875 6.6875 C13.03723409 7.37003764 14.20000378 8.05166402 15.36328125 8.73242188 C17.75253504 10.13241182 20.13875621 11.53736044 22.52246094 12.94677734 C26.69773201 15.41458609 30.88781719 17.85676422 35.07861328 20.2980957 C37.03863539 21.43994044 38.99793706 22.58302268 40.95654297 23.72729492 C48.28934634 28.01106941 55.64111493 32.26121228 63 36.5 C71.34798459 41.30851844 79.68243184 46.13905683 88 51 C96.27777076 55.83676429 104.56940966 60.64865756 112.875 65.4375 C113.9472583 66.0557666 115.0195166 66.6740332 116.12426758 67.31103516 C121.71262578 70.53198366 127.30296154 73.74947407 132.89453125 76.96484375 C144.32524509 83.54231182 155.73548032 90.14091129 167 97 C166.61134473 102.91311226 164.02002534 106.44126029 160.625 111.0625 C159.81144043 112.18676392 159.81144043 112.18676392 158.98144531 113.33374023 C126.77166939 157.34782687 80.39734415 186.49838899 26.4375 195.25 C4.51331586 198.52492404 -18.25655992 198.57514737 -40 194 C-41.34288086 193.71793701 -41.34288086 193.71793701 -42.71289062 193.43017578 C-94.9795574 181.9843221 -140.66677891 150.21551791 -169.78466797 105.34106445 C-171.31645045 102.93020483 -172.78189981 100.58746773 -174 98 C-172.69204145 94.07612434 -171.2626032 93.7265064 -167.69140625 91.734375 C-166.56524902 91.09943115 -165.4390918 90.4644873 -164.27880859 89.81030273 C-163.04005672 89.12350331 -161.8012867 88.4367366 -160.5625 87.75 C-159.28668728 87.03367412 -158.01146657 86.31629291 -156.73681641 85.59790039 C-154.1093667 84.11756612 -151.47988874 82.64093264 -148.84912109 81.16650391 C-143.1625571 77.97305442 -137.51910282 74.7052297 -131.875 71.4375 C-129.72403185 70.19518521 -127.5729901 68.95299783 -125.421875 67.7109375 C-123.28120611 66.47403429 -121.14058106 65.23705521 -119 64 C-105.05155632 55.93910696 -91.08996112 47.90290574 -77.09527588 39.92263794 C-68.06925441 34.77380386 -59.08225094 29.56123333 -50.11499023 24.31079102 C-38.72697985 17.65296548 -27.28118519 11.09101988 -15.79248047 4.60839844 C-14.12442092 3.64763814 -12.47094148 2.65964182 -10.85205078 1.61816406 C-6.72791982 -1.01848297 -4.70274583 -1.15443966 0 0 Z " fill="#280068" transform="translate(538,599)"/>
<path d="M0 0 C9.24 0 18.48 0 28 0 C28 18.48 28 36.96 28 56 C46.81 56 65.62 56 85 56 C85 37.52 85 19.04 85 0 C94.24 0 103.48 0 113 0 C113 18.48 113 36.96 113 56 C131.48 56 149.96 56 169 56 C169 65.24 169 74.48 169 84 C150.52 84 132.04 84 113 84 C113 102.48 113 120.96 113 140 C131.48 140 149.96 140 169 140 C169 149.24 169 158.48 169 168 C150.52 168 132.04 168 113 168 C113 186.48 113 204.96 113 224 C103.76 224 94.52 224 85 224 C85 205.52 85 187.04 85 168 C66.19 168 47.38 168 28 168 C28 186.81 28 205.62 28 225 C18.76 225 9.52 225 0 225 C0 206.19 0 187.38 0 168 C-18.48 168 -36.96 168 -56 168 C-56 158.76 -56 149.52 -56 140 C-37.52 140 -19.04 140 0 140 C0 121.52 0 103.04 0 84 C-18.48 84 -36.96 84 -56 84 C-56 74.76 -56 65.52 -56 56 C-37.52 56 -19.04 56 0 56 C0 37.52 0 19.04 0 0 Z " fill="#FCFCFD" transform="translate(813,485)"/>
<path d="M0 0 C18.15 0 36.3 0 55 0 C55 18.48 55 36.96 55 56 C36.85 56 18.7 56 0 56 C0 37.52 0 19.04 0 0 Z " fill="#390091" transform="translate(842,569)"/>
</svg>
