<svg width="400" height="600" viewBox="0 0 400 600" fill="none" xmlns="http://www.w3.org/2000/svg">
  <path d="M0 100C0 44.7715 44.7715 0 100 0H200V200H100C44.7715 200 0 155.228 0 100Z" fill="#F24E1E"/>
  
  <path d="M200 0H300C355.228 0 400 44.7715 400 100C400 155.228 355.228 200 300 200H200V0Z" fill="#FF7262"/>
  
  <path d="M0 300C0 244.772 44.7715 200 100 200H200V400H100C44.7715 400 0 355.228 0 300Z" fill="#A259FF"/>
  
  <circle cx="300" cy="300" r="100" fill="#1ABCFE"/>
  
  <path d="M0 500C0 444.772 44.7715 400 100 400H200V500C200 555.228 155.228 600 100 600C44.7715 600 0 555.228 0 500Z" fill="#0ACF83"/>
</svg>