<?xml version="1.0" encoding="UTF-8"?>
<svg version="1.1" xmlns="http://www.w3.org/2000/svg" width="224" height="224">
<path d="M0 0 C1.28426376 -0.00852997 2.56852753 -0.01705994 3.89170837 -0.02584839 C5.31799329 -0.02514934 6.7442781 -0.02422626 8.17056274 -0.02310181 C9.67026607 -0.02908512 11.16996631 -0.03589021 12.66966248 -0.04345703 C16.74615325 -0.06114477 20.82256009 -0.06581358 24.89908552 -0.0670886 C28.30118817 -0.06898665 31.70327123 -0.07634313 35.10536635 -0.08343279 C43.13182861 -0.09972503 51.158246 -0.104601 59.1847229 -0.10317993 C67.46620965 -0.10197838 75.74743583 -0.12308083 84.02885664 -0.15466726 C91.13722917 -0.18081402 98.24551653 -0.1915479 105.35393679 -0.19026911 C109.60021088 -0.18975899 113.84625348 -0.19546975 118.09247971 -0.21662521 C122.0865759 -0.23598072 126.08021917 -0.23615081 130.07433128 -0.22159195 C131.53966749 -0.21949935 133.00503185 -0.22423164 134.47031975 -0.23631287 C136.47177389 -0.25174497 138.47338221 -0.24006749 140.47485352 -0.22705078 C141.59462271 -0.22814032 142.7143919 -0.22922985 143.86809349 -0.2303524 C147.54755125 0.38091568 149.21085827 1.6985866 151.8644104 4.26742554 C153.86606841 8.27074155 153.77629139 11.92794485 152.8644104 16.26742554 C150.54064722 21.22397733 147.29321128 25.70005708 144.22817993 30.21810913 C142.15566717 33.33244356 140.26200852 36.54466997 138.3644104 39.76742554 C135.13039281 45.18588684 131.86454725 50.58414153 128.5519104 55.95492554 C127.93896118 56.96232788 127.93896118 56.96232788 127.31362915 57.99008179 C121.99941388 66.55575771 121.99941388 66.55575771 116.8644104 68.26742554 C115.46861767 68.380373 114.06841131 68.44331741 112.66836548 68.4727478 C111.40739799 68.50266563 111.40739799 68.50266563 110.12095642 68.53318787 C109.21774155 68.54990036 108.31452667 68.56661285 107.38394165 68.58383179 C106.45595261 68.60461288 105.52796356 68.62539398 104.57185364 68.64680481 C101.606948 68.71219877 98.64195368 68.77113816 95.6769104 68.82992554 C93.6671356 68.87312041 91.65736977 68.91673501 89.64761353 68.96078491 C84.71997008 69.0678698 79.79223741 69.16916599 74.8644104 69.26742554 C75.16621216 69.97649048 75.46801392 70.68555542 75.77896118 71.41610718 C78.69950597 78.28322878 81.60272251 85.15743213 84.49624634 92.03598022 C85.63594154 94.7278085 86.79416002 97.4098113 87.9659729 100.08773804 C88.51596612 101.3765813 89.06550013 102.66562069 89.6144104 103.95492554 C90.08362915 105.03129272 90.5528479 106.10765991 91.0362854 107.21664429 C92.4374974 112.3786564 91.46741208 116.00506688 89.1925354 120.76742554 C88.51233043 121.94142602 87.81923623 123.10803928 87.1144104 124.26742554 C86.75532593 124.87755493 86.39624146 125.48768433 86.02627563 126.11630249 C83.51260629 130.33847707 80.76695047 134.30941635 77.8644104 138.26742554 C77.5344104 139.25742554 77.2044104 140.24742554 76.8644104 141.26742554 C76.2044104 141.26742554 75.5444104 141.26742554 74.8644104 141.26742554 C74.73840454 141.8567688 74.61239868 142.44611206 74.48257446 143.05331421 C73.50382046 146.55896984 71.50101988 149.4996845 69.6144104 152.57992554 C69.23155884 153.21865601 68.84870728 153.85738647 68.45425415 154.51547241 C61.31343218 166.30141102 61.31343218 166.30141102 56.8644104 169.26742554 C54.927948 169.33729553 54.927948 169.33729553 52.70132446 169.09432983 C51.85961197 169.01538986 51.01789948 168.93644989 50.15068054 168.8551178 C49.23636765 168.76817154 48.32205475 168.68122528 47.3800354 168.59164429 C21.99332464 166.46553267 21.99332464 166.46553267 -0.07699585 177.19320679 C-6.98767392 183.60311591 -13.10020484 190.83597316 -18.8086853 198.32406616 C-21.1355896 201.26742554 -21.1355896 201.26742554 -23.1355896 202.26742554 C-29.25551275 202.72075318 -29.25551275 202.72075318 -32.14852905 201.2305603 C-34.95176537 198.46107716 -36.14346189 195.21150831 -37.55355835 191.60726929 C-37.85627151 190.86159195 -38.15898468 190.11591461 -38.47087097 189.34764099 C-39.43285285 186.9710869 -40.37823869 184.5883354 -41.3230896 182.20492554 C-41.96976592 180.59705673 -42.61754043 178.98962914 -43.26644897 177.38265991 C-44.45139303 174.44715216 -45.628643 171.50876128 -46.80038452 168.56796265 C-47.52443551 166.77815732 -48.27214847 164.9943078 -49.1355896 163.26742554 C-50.0894862 157.02373867 -49.77971916 152.44790317 -46.0105896 147.26742554 C-45.36476929 146.44500366 -44.71894897 145.62258179 -44.05355835 144.77523804 C-42.16957683 142.31186505 -40.75377088 139.88900564 -39.3230896 137.14242554 C-36.0492579 130.95558767 -32.3373334 125.07517858 -28.60043335 119.16195679 C-28.20162964 118.52604614 -27.80282593 117.8901355 -27.39193726 117.23495483 C-26.51128168 115.85578591 -25.60780112 114.49105136 -24.68783569 113.13778687 C-23.99101685 112.0920752 -23.99101685 112.0920752 -23.28012085 111.02523804 C-22.8519104 110.39891479 -22.42369995 109.77259155 -21.98251343 109.12728882 C-20.92986525 106.81565036 -21.15772703 105.72771903 -21.8855896 103.32992554 C-22.6098258 101.63120891 -23.36528563 99.94575448 -24.1355896 98.26742554 C-24.6755594 96.9482978 -25.20885534 95.62642767 -25.7371521 94.30258179 C-28.28929888 87.93258941 -30.93397007 81.61789673 -33.8230896 75.39242554 C-41.13579825 59.38220959 -41.13579825 59.38220959 -39.93539429 53.39682007 C-36.47106735 44.17341972 -29.93254565 35.64053562 -24.6980896 27.32992554 C-19.53934404 19.14723035 -19.53934404 19.14723035 -14.49105835 10.89633179 C-13.94179687 9.98452148 -13.94179687 9.98452148 -13.38143921 9.05429077 C-12.46615959 7.52688004 -11.55832296 5.99501567 -10.6512146 4.46273804 C-7.66094136 0.13146597 -4.94358688 0.01480709 0 0 Z " fill="#4A38EC" transform="translate(61.135589599609375,15.732574462890625)"/>
<path d="M0 0 C1.93051964 -0.01898094 1.93051964 -0.01898094 3.90003967 -0.03834534 C5.31906531 -0.02702994 6.73808694 -0.0152025 8.15710449 -0.00291443 C9.65710801 -0.00805459 11.15710549 -0.01533661 12.65708923 -0.02459717 C16.72540857 -0.04310748 20.79307233 -0.03017539 24.86136436 -0.01050687 C29.12047457 0.00588422 33.3795434 -0.0029339 37.63867188 -0.00802612 C44.79091864 -0.01254658 51.94290385 0.00331966 59.09509277 0.03126526 C67.36188953 0.06331706 75.62821455 0.06330134 83.8950448 0.04605049 C91.85021023 0.03018204 99.80520284 0.03692097 107.76036072 0.0539875 C111.14465439 0.06085686 114.52880948 0.05982677 117.9131012 0.05244255 C121.89907971 0.04477655 125.88452193 0.05691555 129.87040901 0.08429146 C131.33249889 0.09117316 132.79463887 0.0912755 134.25672722 0.08407593 C136.25375757 0.07537596 138.25085103 0.0937819 140.24780273 0.11352539 C141.36497429 0.11633231 142.48214584 0.11913923 143.63317108 0.12203121 C147.30397304 0.74328594 148.97368112 2.06511812 151.62390137 4.62818909 C153.62555937 8.6315051 153.53578235 12.2887084 152.62390137 16.62818909 C150.30013818 21.58474088 147.05270225 26.06082063 143.9876709 30.57887268 C141.91515814 33.69320711 140.02149949 36.90543352 138.12390137 40.12818909 C134.88988377 45.54665039 131.62403822 50.94490508 128.31140137 56.31568909 C127.69845215 57.32309143 127.69845215 57.32309143 127.07312012 58.35084534 C126.68124512 58.98248596 126.28937012 59.61412659 125.88562012 60.26490784 C125.54490479 60.81880188 125.20418945 61.37269592 124.85314941 61.94337463 C120.86197632 67.41369947 120.86197632 67.41369947 116.75063229 68.12596703 C115.6299413 68.12487749 114.50925032 68.12378796 113.354599 68.12266541 C111.42180588 68.13524887 111.42180588 68.13524887 109.44996643 68.14808655 C108.02413638 68.13712005 106.59830936 68.1257541 105.17248535 68.11402893 C103.66938954 68.11617505 102.16629536 68.12005312 100.66320801 68.12553406 C96.58263163 68.13522899 92.50249266 68.11992311 88.42196918 68.09962797 C84.15392219 68.08206494 79.88588887 68.08558189 75.61781311 68.08634949 C68.45122962 68.08447639 61.2848155 68.06711036 54.11828613 68.03981018 C45.82828365 68.00834728 37.53846661 67.9978144 29.24840873 67.99928129 C21.27778829 68.00050126 13.30722833 67.9902965 5.33662605 67.97369766 C1.94234813 67.96663005 -1.45190839 67.96297089 -4.84619331 67.96191025 C-8.84104085 67.95990361 -12.83573224 67.9477124 -16.83052826 67.92757797 C-18.29830151 67.92172843 -19.76609273 67.91927715 -21.23387718 67.92043304 C-23.23386163 67.92141218 -25.23383924 67.90888313 -27.23377991 67.89561462 C-28.35409387 67.89226294 -29.47440783 67.88891125 -30.62867069 67.88545799 C-33.37609863 67.62818909 -33.37609863 67.62818909 -36.37609863 65.62818909 C-36.37609863 64.96818909 -36.37609863 64.30818909 -36.37609863 63.62818909 C-37.36609863 63.29818909 -38.35609863 62.96818909 -39.37609863 62.62818909 C-41.17879503 55.93245962 -39.76255991 52.21221504 -36.50109863 46.21022034 C-33.01607873 40.24246409 -29.2846097 34.4246603 -25.54797363 28.61256409 C-23.4227426 25.29824673 -21.35256396 21.95879658 -19.32922363 18.58131409 C-18.84284424 17.77065491 -18.35646484 16.95999573 -17.85534668 16.12477112 C-16.93700306 14.58749903 -16.02405474 13.04698587 -15.11755371 11.50270081 C-14.6988501 10.80419006 -14.28014648 10.10567932 -13.84875488 9.38600159 C-13.49047607 8.77901428 -13.13219727 8.17202698 -12.76306152 7.54664612 C-9.03358943 2.38801354 -6.50369267 0.00341324 0 0 Z " fill="#4A38ED" transform="translate(61.3760986328125,15.371810913085938)"/>
<path d="M0 0 C0.66 0 1.32 0 2 0 C2.41135854 0.48677625 2.82271708 0.97355249 3.24654102 1.47507954 C5.79755069 3.69360127 7.70904118 3.38474955 11.05534363 3.39872742 C12.32159073 3.41126556 13.58783783 3.42380371 14.89245605 3.4367218 C16.2983401 3.43554769 17.70422393 3.43408852 19.11010742 3.43237305 C20.58837201 3.4413877 22.06662909 3.45171418 23.5448761 3.46325684 C27.5611189 3.49088814 31.57722012 3.50011961 35.59354568 3.50611091 C39.78966009 3.51547869 43.98566807 3.54168072 48.18171692 3.56611633 C56.12893902 3.60982907 64.07614053 3.63834666 72.02344638 3.66143972 C81.07056328 3.68846585 90.11757336 3.7323789 99.16461408 3.77772844 C117.77635305 3.87064307 136.38812026 3.94229253 155 4 C155 4.33 155 4.66 155 5 C141.14 5.33 127.28 5.66 113 6 C116.47898688 14.10878416 116.47898688 14.10878416 119.9699707 22.21240234 C122.7410914 28.71647834 125.17490876 35.16640529 127 42 C125.80625511 41.26950943 125.80625511 41.26950943 124.58839417 40.52426147 C120.0720378 38.60582451 116.43457242 38.57790226 111.58569336 38.61181641 C110.65650589 38.60655945 109.72731842 38.60130249 108.76997375 38.59588623 C105.7097576 38.58272163 102.65006486 38.59141117 99.58984375 38.6015625 C97.45805258 38.59954092 95.32626208 38.59662879 93.19447327 38.59286499 C88.73171388 38.58844657 84.26913488 38.59485792 79.80639648 38.60888672 C74.08755882 38.62598857 68.36914324 38.61612785 62.65032101 38.59816933 C58.25025758 38.58732741 53.85029418 38.59077956 49.45022774 38.5985527 C47.34150708 38.60055304 45.23277733 38.5981013 43.12406731 38.59111404 C40.17743749 38.58349186 37.23149105 38.59511438 34.28491211 38.61181641 C33.41464386 38.60574371 32.54437561 38.59967102 31.6477356 38.59341431 C25.72129375 38.65561901 22.29933054 39.70066946 18 44 C12.97451641 32.60269957 7.99853454 21.19235116 3.375 9.625 C3.03275391 8.7700293 2.69050781 7.91505859 2.33789062 7.03417969 C0 1.13598785 0 1.13598785 0 0 Z " fill="#1F119C" transform="translate(23,79)"/>
<path d="M0 0 C0.66 0 1.32 0 2 0 C2 0.66 2 1.32 2 2 C5.51697619 3.58284259 8.30824502 4.26037841 12.1574707 4.31884766 C13.65846062 4.34865219 13.65846062 4.34865219 15.18977356 4.37905884 C16.2576561 4.39061005 17.32553864 4.40216125 18.42578125 4.4140625 C19.52850876 4.43342865 20.63123627 4.4527948 21.76737976 4.4727478 C25.28234166 4.53242923 28.79733651 4.57888375 32.3125 4.625 C34.69858183 4.66319026 37.08465003 4.7022426 39.47070312 4.7421875 C45.3136809 4.83812143 51.15674106 4.92320247 57 5 C55.72473641 7.7936149 54.40630326 9.84297271 52.234375 12.00854492 C51.68040039 12.56559616 51.12642578 13.1226474 50.55566406 13.69657898 C49.95979492 14.2852626 49.36392578 14.87394623 48.75 15.48046875 C48.13608398 16.09392654 47.52216797 16.70738434 46.88964844 17.33943176 C45.59416262 18.63190238 44.29625309 19.92194759 42.99609375 21.2097168 C41.00201121 23.18550724 39.01608257 25.16921866 37.03125 27.15429688 C35.77130493 28.40932779 34.5109038 29.66390105 33.25 30.91796875 C32.65413086 31.51272507 32.05826172 32.10748138 31.44433594 32.72026062 C26.19244213 37.91167095 26.19244213 37.91167095 21.625 38.25 C17.61801255 37.97365604 16.78198629 37.74852597 14 35 C12.7044636 32.43329579 11.59589989 29.96808912 10.546875 27.3046875 C10.24179016 26.55663849 9.93670532 25.80858948 9.62237549 25.03787231 C8.65373948 22.65459732 7.70195355 20.26498034 6.75 17.875 C6.09479987 16.2586886 5.43856136 14.64279772 4.78125 13.02734375 C0 1.22344974 0 1.22344974 0 0 Z " fill="#201299" transform="translate(13,180)"/>
</svg>
