<?xml version="1.0" encoding="UTF-8"?>
<svg version="1.1" xmlns="http://www.w3.org/2000/svg" width="2400" height="2283">
<path d="M0 0 C2.89127104 5.61014756 5.40748967 11.25420087 7.71899414 17.12426758 C8.07088554 18.00937263 8.42277695 18.89447769 8.78533173 19.80640411 C9.9552036 22.75116271 11.12011038 25.69786037 12.28515625 28.64453125 C13.12438936 30.75911055 13.96399336 32.87354269 14.80393982 34.98783875 C16.610039 39.53560903 18.41418133 44.08414856 20.21679688 48.63330078 C24.84311059 60.30728748 29.4819451 71.97630242 34.1212821 83.64511824 C34.88266184 85.56022774 35.64391678 87.47538683 36.40515518 89.39055252 C46.59411191 115.0226373 56.87177517 140.61872736 67.17365646 166.20562363 C82.48260159 204.23003113 97.70118199 242.28922874 112.84375 280.38018799 C126.65358426 315.11741597 140.54229705 349.82192981 154.5 384.5 C169.36317823 421.42773373 184.13849746 458.38929088 198.84375 495.38018799 C212.65358426 530.11741597 226.54229705 564.82192981 240.5 599.5 C255.35946226 636.41850138 270.13251406 673.37026752 284.83259201 710.35251617 C295.38753949 736.90634783 305.96722942 763.44974762 316.62890625 789.9609375 C317.11055111 791.1586805 317.59219597 792.35642349 318.08843613 793.59046173 C322.7308265 805.13380071 327.37669728 816.67572986 332.0296793 828.2148037 C340.83398084 850.05195848 349.56200939 871.91419854 358.11162186 893.85240936 C366.3443427 914.96921034 374.7968768 935.9955512 383.27294922 957.015625 C387.97917087 968.6873506 392.67580685 980.36293456 397.37109375 992.0390625 C398.09520761 993.83963482 398.09520761 993.83963482 398.83395004 995.67658234 C409.45492816 1022.0916472 419.98366086 1048.54314241 430.5 1075 C444.75667214 1110.86440847 459.08956044 1146.69710059 473.5 1182.5 C488.36317823 1219.42773373 503.13849746 1256.38929088 517.84375 1293.38018799 C531.65358426 1328.11741597 545.54229705 1362.82192981 559.5 1397.5 C574.36317823 1434.42773373 589.13849746 1471.38929088 603.84375 1508.38018799 C618.09185322 1544.21983681 632.42666413 1580.02358897 646.82902145 1615.80151749 C657.56785936 1642.47867584 668.27805702 1669.1668363 678.91015625 1695.88671875 C679.15630598 1696.50527756 679.4024557 1697.12383637 679.65606451 1697.76113939 C684.67054085 1710.36239585 689.68109842 1722.96520449 694.68453312 1735.57084942 C696.42311217 1739.95017903 698.16315929 1744.32892453 699.90340996 1748.7075901 C701.07336929 1751.65314576 702.24110185 1754.59957672 703.40870667 1757.54606628 C708.78792755 1771.09450742 714.35593693 1784.55985861 720 1798 C719.73935163 1797.25359977 719.47870325 1796.50719954 719.21015644 1795.73818111 C715.99541129 1786.53233376 715.99541129 1786.53233376 714.55839539 1782.41712952 C712.4175134 1776.28629854 710.27654633 1770.15549733 708.1352644 1764.02480602 C706.85444934 1760.35770059 705.57369419 1756.69057423 704.29296875 1753.0234375 C704.03283052 1752.27857904 703.7726923 1751.53372059 703.5046711 1750.76629066 C699.98074338 1740.67582389 696.45957509 1730.58439908 692.94099236 1720.49206734 C682.84339598 1691.53030172 672.70047996 1662.58562991 662.4349823 1633.68284607 C659.37898442 1625.07547203 656.33515058 1616.46382614 653.29296875 1607.8515625 C640.67110928 1572.08082686 640.67110928 1572.08082686 627.84082031 1536.38452148 C624.70059145 1527.7332326 621.59516484 1519.0701423 618.51171875 1510.3984375 C609.04930622 1483.79527793 599.45523461 1457.24753943 589.65966797 1430.76513672 C584.44208768 1416.65529781 579.2787531 1402.52768842 574.18228149 1388.37365723 C566.63358451 1367.410308 558.902408 1346.5226646 551.01507568 1325.68450928 C549.9594552 1322.89277363 548.90641451 1320.10007609 547.85400391 1317.30712891 C538.65942347 1292.91035172 529.32263516 1268.57177741 519.79487991 1244.30328369 C519.06868644 1242.45326033 518.34316296 1240.60297403 517.61764526 1238.75268555 C516.25937172 1235.29114305 514.89793476 1231.83086483 513.53515625 1228.37109375 C513.13491241 1227.35139999 512.73466858 1226.33170624 512.32229614 1225.28111267 C511.94273773 1224.32008133 511.56317932 1223.35904999 511.17211914 1222.36889648 C510.813367 1221.45896942 510.45461487 1220.54904236 510.08499146 1219.61154175 C509.03164727 1217.07617404 507.85557534 1214.63200099 506.65405273 1212.16430664 C504.57449905 1207.46909716 504.99984847 1204.72443098 506.76464844 1199.91708374 C507.75316915 1197.37420785 508.80643674 1194.86574186 509.875 1192.35546875 C510.46903625 1190.93824272 510.46903625 1190.93824272 511.07507324 1189.49238586 C512.3775831 1186.38828436 513.68886543 1183.28796714 515 1180.1875 C515.91542526 1178.00941357 516.83013 1175.83102419 517.74414062 1173.65234375 C519.60578566 1169.21566837 521.47002058 1164.78009515 523.3359375 1160.34521484 C526.74783197 1152.2280749 530.11866774 1144.09411136 533.48355103 1135.95739746 C535.20957024 1131.78452175 536.93861285 1127.61290005 538.66796875 1123.44140625 C539.01663498 1122.60036346 539.36530121 1121.75932068 539.72453308 1120.89279175 C546.61017961 1104.28973886 553.53482293 1087.70286807 560.45166016 1071.11279297 C564.22025551 1062.07346008 567.98656142 1053.0331733 571.75302124 1043.99295044 C573.83525192 1038.99526047 575.91763367 1033.99763345 578 1029 C578.83333406 1027.0000003 579.66666739 1025.0000003 580.5 1023 C588.83333333 1003 597.16666667 983 605.5 963 C606.11872734 961.51505287 606.11872734 961.51505287 606.74995422 960.00010681 C607.58343726 957.99974957 608.41692318 955.99939353 609.25041199 953.9990387 C611.33147861 949.00451436 613.4124953 944.00996924 615.4934082 939.01538086 C619.27040469 929.95000701 623.04778808 920.88479528 626.82699585 911.82034302 C635.06813671 892.05384086 643.30338586 872.28501396 651.5 852.5 C660.12052857 831.69173998 668.7842738 810.90157056 677.45166016 790.11279297 C681.22025551 781.07346008 684.98656142 772.0331733 688.75302124 762.99295044 C690.83525192 757.99526047 692.91763367 752.99763345 695 748 C695.83333406 746.0000003 696.66666739 744.0000003 697.5 742 C712.52685547 705.93554687 727.55371094 669.87109375 742.58056641 633.80664062 C743.0088121 632.77884995 743.4370578 631.75105927 743.87828064 630.69212341 C744.74136572 628.62072125 745.60445368 626.54932028 746.46754456 624.47792053 C748.59342106 619.37585221 750.71924918 614.27376375 752.8449707 609.17163086 C756.55962223 600.2558939 760.27471091 591.34034069 763.9921875 582.42578125 C770.40731402 567.04073987 776.80693174 551.649408 783.1875 536.25 C791.91276301 515.19197596 800.68005209 494.15154616 809.45166016 473.11279297 C813.22025551 464.07346008 816.98656142 455.0331733 820.75302124 445.99295044 C822.83525192 440.99526047 824.91763367 435.99763345 827 431 C827.83333406 429.0000003 828.66666739 427.0000003 829.5 425 C837.83333333 405 846.16666667 385 854.5 365 C854.91248489 364.01003525 855.32496979 363.0200705 855.74995422 362.00010681 C856.58343726 359.99974957 857.41692318 357.99939353 858.25041199 355.9990387 C860.33147861 351.00451436 862.4124953 346.00996924 864.4934082 341.01538086 C868.27040469 331.95000701 872.04778808 322.88479528 875.82699585 313.82034302 C884.06813671 294.05384086 892.30338586 274.28501396 900.5 254.5 C909.12052857 233.69173998 917.7842738 212.90157056 926.45166016 192.11279297 C930.22117149 183.07126301 933.98839248 174.02877877 937.75576782 164.98635864 C939.82406268 160.02211616 941.89250754 155.05793619 943.9609375 150.09375 C944.79264395 148.09765655 945.62434968 146.1015628 946.45605469 144.10546875 C957.30403646 118.0703125 968.15201823 92.03515625 979 66 C1216.93 66 1454.86 66 1700 66 C1700 792.33 1700 1518.66 1700 2267 C1520.81 2267 1341.62 2267 1157 2267 C1151.37533255 2254.62573162 1151.37533255 2254.62573162 1149.46386719 2250.12744141 C1149.03281677 2249.11493317 1148.60176636 2248.10242493 1148.15765381 2247.05923462 C1147.7085968 2246.00070282 1147.25953979 2244.94217102 1146.796875 2243.8515625 C1146.31478577 2242.71834564 1145.83269653 2241.58512878 1145.33599854 2240.41757202 C1143.80605947 2236.82058763 1142.27795139 2233.22282911 1140.75 2229.625 C1139.23595841 2226.06303587 1137.72152232 2222.50123985 1136.20684814 2218.93954468 C1135.2701608 2216.73663077 1134.3338769 2214.53354525 1133.39813232 2212.33023071 C1132.95447327 2211.28620087 1132.51081421 2210.24217102 1132.05371094 2209.16650391 C1131.61730891 2208.09222348 1131.18090689 2207.01794305 1130.73128057 2205.91110867 C1129.5832167 2203.19097874 1128.26528072 2200.68171273 1126.77558017 2198.1342867 C1117.34931978 2180.94864664 1118.69365661 2162.39084591 1118.7817784 2143.37719351 C1118.79569189 2138.22222205 1118.75731783 2133.06757892 1118.72592998 2127.9127205 C1118.6781957 2118.89356228 1118.66369151 2109.8748327 1118.67144394 2100.8555584 C1118.68294542 2087.4428092 1118.64313452 2074.03054599 1118.59390599 2060.6178999 C1118.50290317 2035.26416904 1118.47351573 2009.91064784 1118.46475533 1984.55679455 C1118.4637783 1981.76389075 1118.46277689 1978.97098696 1118.4617548 1976.17808318 C1118.46150671 1975.48493775 1118.46125861 1974.79179233 1118.461003 1974.07764249 C1118.45522746 1958.68785346 1118.43371928 1943.29809861 1118.40956657 1927.908329 C1118.39964397 1921.56266654 1118.3900824 1915.21700351 1118.38046718 1908.87134057 C1118.37940214 1908.17010519 1118.3783371 1907.46886981 1118.37723979 1906.74638486 C1118.31638411 1866.58474549 1118.27561528 1826.42312702 1118.27638626 1786.26143932 C1118.27640208 1784.75981036 1118.27641722 1783.25818139 1118.27643169 1781.75655243 C1118.27651762 1774.9774951 1118.27672942 1768.19843779 1118.27697052 1761.41938047 C1118.27707678 1758.39670382 1118.27717292 1755.37402717 1118.27726765 1752.35135052 C1118.27731839 1750.8384498 1118.27737513 1749.32554907 1118.27743787 1747.81264835 C1118.27938436 1699.99208565 1118.20646683 1652.17217571 1118.07226562 1604.35180664 C1118.03847325 1592.3051864 1118.00498823 1580.25856552 1117.97319412 1568.21193981 C1117.97123583 1567.47005897 1117.96927754 1566.72817813 1117.9672599 1565.96381605 C1117.90720841 1543.07566083 1117.87051274 1520.18755901 1117.85746384 1497.2993288 C1117.85705074 1496.58007438 1117.85663765 1495.86081995 1117.85621204 1495.11976994 C1117.8473642 1479.32562101 1117.84412175 1463.53147525 1117.84604647 1447.73732411 C1117.8466821 1442.08499982 1117.84688953 1436.43267552 1117.84688305 1430.7803512 C1117.8468848 1429.37434213 1117.84690812 1427.96833306 1117.84695309 1426.56232399 C1117.84744259 1404.21829013 1117.79207593 1381.87483871 1117.70826507 1359.53097565 C1117.62184987 1336.37939853 1117.60547965 1313.22869263 1117.66785505 1290.07694759 C1117.70176615 1276.74970409 1117.68371153 1263.42498012 1117.58907783 1250.09801612 C1117.53102594 1241.17434843 1117.54318762 1232.25248194 1117.61027804 1223.32888417 C1117.64648966 1218.25732964 1117.65438959 1213.19061566 1117.57611051 1208.1194258 C1117.1991372 1182.01808609 1121.24416404 1164.67689174 1136.62607941 1143.3669881 C1140.36852274 1138.14693404 1143.55923949 1132.59543256 1146.8125 1127.0625 C1148.02470976 1125.04347057 1149.23807936 1123.02513658 1150.453125 1121.0078125 C1154.71016465 1113.8512195 1158.76170541 1106.58345112 1162.80200195 1099.30297852 C1166.77781135 1092.14719367 1170.85370453 1085.05823734 1175 1078 C1180.41339776 1068.77807139 1185.68481471 1059.48504484 1190.890625 1050.14453125 C1194.55418401 1043.57312496 1198.25549757 1037.02559833 1202 1030.5 C1213.87522296 1009.78501354 1225.43044241 988.88675613 1237 968 C1237.3297583 967.40471497 1237.6595166 966.80942993 1237.99926758 966.19610596 C1245.82816322 952.06049485 1253.61133974 937.90302598 1261.27563477 923.67724609 C1264.95017092 916.87921189 1268.73342309 910.14947924 1272.5625 903.4375 C1277.42600607 894.90343704 1282.04942252 886.26980248 1286.55761719 877.54345703 C1289.89649714 871.08792422 1293.3169877 864.68451551 1296.8125 858.3125 C1307.61077749 838.61724988 1318.13340329 818.77310661 1328.65844727 798.9309082 C1332.05174289 792.53575291 1335.45256628 786.14495671 1338.8828125 779.76953125 C1346.26377174 766.04919169 1353.51846068 752.27325439 1360.65348816 738.42408752 C1364.18856481 731.56250286 1367.76005693 724.72158324 1371.36450195 717.89624023 C1375.11873118 710.78521521 1378.83536006 703.6548001 1382.55078125 696.5234375 C1385.19890229 691.44336857 1387.85721451 686.36909432 1390.53515625 681.3046875 C1395.97854247 671.00838408 1401.30725075 660.6541931 1406.63290405 650.29669189 C1410.72139804 642.34631996 1414.81544783 634.40039055 1419 626.5 C1431.33218288 603.19087734 1443.23973608 579.6532626 1455.25280762 556.1787262 C1455.69660767 555.31150436 1456.14040771 554.44428253 1456.59765625 553.55078125 C1457.04274536 552.68102158 1457.48783447 551.8112619 1457.94641113 550.91514587 C1461.08254235 544.78829117 1464.22550769 538.66497361 1467.37109375 532.54296875 C1476.61657005 514.54182732 1485.80508025 496.51657375 1494.78979492 478.38354492 C1498.32041139 471.27123667 1501.92854256 464.20987718 1505.65016174 457.19549561 C1510.82826263 447.39208764 1515.82014442 437.50155053 1520.77319336 427.58300781 C1521.70245741 425.72583954 1522.63189078 423.86875597 1523.56147766 422.01174927 C1526.05513374 417.02894343 1528.54630822 412.04490099 1531.03688502 407.06055546 C1533.66502836 401.80170825 1536.29514968 396.54385036 1538.92494202 391.28582764 C1543.33998882 382.45754564 1547.7533627 373.62842887 1552.16577148 364.79882812 C1557.23705303 354.65083047 1562.31120793 344.50427352 1567.38686651 334.35846448 C1571.77425196 325.58826088 1576.16004866 316.81726411 1580.54456621 308.0456264 C1583.15015983 302.83289538 1585.75626387 297.62042145 1588.3638134 292.40866852 C1602.32009837 264.5790239 1602.32009837 264.5790239 1615.84169006 236.5368042 C1619.47928603 228.83496543 1623.34217045 221.24215419 1627.17330933 213.63534546 C1633.45687288 201.15364116 1639.70864378 188.66310281 1645.69465637 176.0355072 C1648.93585039 169.20808944 1652.22472082 162.40553502 1655.546875 155.6171875 C1656.29279655 154.09121193 1656.29279655 154.09121193 1657.05378723 152.53440857 C1658.59760486 149.37673658 1660.14239452 146.219542 1661.6875 143.0625 C1662.19610565 142.02314301 1662.7047113 140.98378601 1663.22872925 139.91293335 C1666.15116684 133.9413091 1669.07486409 127.97030296 1672 122 C1666.74607075 131.05995291 1661.69862355 140.20672953 1656.81802368 149.47283936 C1654.96631917 152.98746414 1653.10629213 156.49767777 1651.24609375 160.0078125 C1650.69516304 161.04767807 1650.69516304 161.04767807 1650.13310242 162.10855103 C1646.60484738 168.76001451 1643.00646904 175.37202153 1639.38769531 181.97460938 C1635.55788613 188.96499145 1631.77320409 195.97891623 1628 203 C1623.2114493 211.90823278 1618.39110383 220.79808819 1613.5390625 229.671875 C1609.66400417 236.76589714 1605.82734377 243.88013778 1602 251 C1597.69199435 259.01401924 1593.36497875 267.01686593 1589 275 C1584.05717084 284.04109683 1579.163823 293.108165 1574.28344727 302.18310547 C1568.74639173 312.47762836 1563.18048277 322.75636713 1557.60888672 333.03222656 C1554.90452549 338.02072657 1552.20238119 343.01042717 1549.5 348 C1548.41667715 350.00000568 1547.33334382 352.00000568 1546.25 354 C1545.445625 355.485 1545.445625 355.485 1544.625 357 C1526.75000005 389.9999999 1526.75000005 389.9999999 1525.12524414 392.99951172 C1524.04105507 395.00111661 1522.95690798 397.00274424 1521.87280273 399.00439453 C1519.17790475 403.98002638 1516.48229701 408.955271 1513.78515625 413.9296875 C1508.15291745 424.31938691 1502.53501881 434.71654935 1496.9375 445.125 C1492.16894501 453.99127603 1487.36853075 462.83927526 1482.53881836 471.67236328 C1478.66380155 478.76620091 1474.82725762 485.88029806 1471 493 C1466.2113349 501.90817176 1461.39110427 510.79808738 1456.5390625 519.671875 C1452.66400417 526.76589714 1448.82734377 533.88013778 1445 541 C1440.69199435 549.01401924 1436.36497875 557.01686593 1432 565 C1427.05717084 574.04109683 1422.163823 583.108165 1417.28344727 592.18310547 C1411.74639173 602.47762836 1406.18048277 612.75636713 1400.60888672 623.03222656 C1397.90452549 628.02072657 1395.20238119 633.01042717 1392.5 638 C1391.41667715 640.00000568 1390.33334382 642.00000568 1389.25 644 C1388.445625 645.485 1388.445625 645.485 1387.625 647 C1382.74999998 656.00000003 1382.74999998 656.00000003 1381.12524414 658.99951172 C1380.04105507 661.00111661 1378.95690798 663.00274424 1377.87280273 665.00439453 C1375.17790475 669.98002638 1372.48229701 674.955271 1369.78515625 679.9296875 C1364.15291745 690.31938691 1358.53501881 700.71654935 1352.9375 711.125 C1348.16894501 719.99127603 1343.36853075 728.83927526 1338.53881836 737.67236328 C1334.66380155 744.76620091 1330.82725762 751.88029806 1327 759 C1322.2113349 767.90817176 1317.39110427 776.79808738 1312.5390625 785.671875 C1308.66400417 792.76589714 1304.82734377 799.88013778 1301 807 C1296.69199435 815.01401924 1292.36497875 823.01686593 1288 831 C1283.05717084 840.04109683 1278.163823 849.108165 1273.28344727 858.18310547 C1267.74639173 868.47762836 1262.18048277 878.75636713 1256.60888672 889.03222656 C1253.90452549 894.02072657 1251.20238119 899.01042717 1248.5 904 C1247.41667715 906.00000568 1246.33334382 908.00000568 1245.25 910 C1244.71375 910.99 1244.1775 911.98 1243.625 913 C1238.75000001 921.99999998 1238.75000001 921.99999998 1237.12524414 924.99951172 C1236.04105507 927.00111661 1234.95690798 929.00274424 1233.87280273 931.00439453 C1231.17790475 935.98002638 1228.48229701 940.955271 1225.78515625 945.9296875 C1220.15291745 956.31938691 1214.53501881 966.71654935 1208.9375 977.125 C1204.16894501 985.99127603 1199.36853075 994.83927526 1194.53881836 1003.67236328 C1190.66380155 1010.76620091 1186.82725762 1017.88029806 1183 1025 C1178.2113349 1033.90817176 1173.39110427 1042.79808738 1168.5390625 1051.671875 C1164.66400417 1058.76589714 1160.82734377 1065.88013778 1157 1073 C1152.69199435 1081.01401924 1148.36497875 1089.01686593 1144 1097 C1139.05717084 1106.04109683 1134.163823 1115.108165 1129.28344727 1124.18310547 C1123.74639173 1134.47762836 1118.18048277 1144.75636713 1112.60888672 1155.03222656 C1109.90452549 1160.02072657 1107.20238119 1165.01042717 1104.5 1170 C1103.41667715 1172.00000568 1102.33334382 1174.00000568 1101.25 1176 C1100.71375 1176.99 1100.1775 1177.98 1099.625 1179 C1094.75000001 1187.99999999 1094.75000001 1187.99999999 1093.12524414 1190.99951172 C1092.04105507 1193.00111661 1090.95690798 1195.00274424 1089.87280273 1197.00439453 C1087.17790475 1201.98002638 1084.48229701 1206.955271 1081.78515625 1211.9296875 C1076.15291745 1222.31938691 1070.53501881 1232.71654935 1064.9375 1243.125 C1060.16894501 1251.99127603 1055.36853075 1260.83927526 1050.53881836 1269.67236328 C1046.66380155 1276.76620091 1042.82725762 1283.88029806 1039 1291 C1034.2113349 1299.90817176 1029.39110427 1308.79808738 1024.5390625 1317.671875 C1020.66400417 1324.76589714 1016.82734377 1331.88013778 1013 1339 C1008.69199435 1347.01401924 1004.36497875 1355.01686593 1000 1363 C995.05717084 1372.04109683 990.163823 1381.108165 985.28344727 1390.18310547 C979.74639173 1400.47762836 974.18048277 1410.75636713 968.60888672 1421.03222656 C965.9045255 1426.02072656 963.2023551 1431.01041306 960.5 1436 C957.26278623 1441.97714177 954.02515799 1447.95405643 950.78515625 1453.9296875 C945.15291745 1464.31938691 939.53501881 1474.71654935 933.9375 1485.125 C929.16894501 1493.99127603 924.36853075 1502.83927526 919.53881836 1511.67236328 C915.66380155 1518.76620091 911.82725762 1525.88029806 908 1533 C903.2113349 1541.90817176 898.39110427 1550.79808738 893.5390625 1559.671875 C889.66400417 1566.76589714 885.82734377 1573.88013778 882 1581 C877.69199435 1589.01401924 873.36497875 1597.01686593 869 1605 C864.05717084 1614.04109683 859.163823 1623.108165 854.28344727 1632.18310547 C848.74639173 1642.47762836 843.18048277 1652.75636713 837.60888672 1663.03222656 C834.90452549 1668.02072657 832.20238119 1673.01042717 829.5 1678 C828.41667715 1680.00000568 827.33334382 1682.00000568 826.25 1684 C825.71375 1684.99 825.1775 1685.98 824.625 1687 C819.74999998 1696.00000003 819.74999998 1696.00000003 818.12524414 1698.99951172 C817.04105507 1701.00111661 815.95690798 1703.00274424 814.87280273 1705.00439453 C812.17790475 1709.98002638 809.48229701 1714.955271 806.78515625 1719.9296875 C801.15291745 1730.31938691 795.53501881 1740.71654935 789.9375 1751.125 C785.16894501 1759.99127603 780.36853075 1768.83927526 775.53881836 1777.67236328 C771.66380068 1784.76620249 767.82747138 1791.88041179 764 1799 C759.53553185 1807.29967059 755.06443469 1815.59557987 750.5625 1823.875 C750.10294922 1824.72320313 749.64339844 1825.57140625 749.16992188 1826.4453125 C748.29468057 1828.05181602 747.40041816 1829.64816432 746.48374957 1831.23139507 C744.92945785 1833.99392566 744.92945785 1833.99392566 743.82020408 1837.06539363 C742.23945614 1840.67195174 740.76766847 1843.18056816 738 1846 C732.09889811 1847.84985079 726.31661371 1847.64455814 720.17973328 1847.55744934 C718.32872892 1847.57485959 716.47776748 1847.59748278 714.6268838 1847.62486666 C709.54190396 1847.68470785 704.45948472 1847.66956248 699.37432873 1847.64199126 C693.88996419 1847.62514755 688.40618972 1847.67716546 682.92202759 1847.72013855 C672.17839433 1847.79282602 661.43567817 1847.79980534 650.69185003 1847.78231195 C641.9596418 1847.76888572 633.22770853 1847.77700415 624.49552345 1847.8004818 C622.63207115 1847.80540541 622.63207115 1847.80540541 620.73097334 1847.8104285 C618.20730833 1847.81712664 615.68364338 1847.82384574 613.15997849 1847.83058556 C596.2120314 1847.87361307 579.26419718 1847.89368265 562.31621075 1847.86638355 C561.32217581 1847.86478834 561.32217581 1847.86478834 560.30805935 1847.8631609 C554.92664388 1847.85439 549.54522946 1847.84500157 544.16381513 1847.83556063 C523.17645883 1847.79928903 502.19049657 1847.83977247 481.20336914 1847.94165039 C457.61947445 1848.05597661 434.03621668 1848.11362233 410.45198947 1848.08754843 C397.96629346 1848.07481938 385.48180652 1848.08681856 372.9963131 1848.16419411 C362.36626811 1848.22933572 351.73822552 1848.23492711 341.10818513 1848.16368178 C335.68397975 1848.12894605 330.26339698 1848.12149344 324.83940697 1848.1879921 C319.87089846 1848.24817711 314.90907782 1848.22959537 309.94092021 1848.14872857 C308.14622354 1848.13323468 306.35100016 1848.14632294 304.55679675 1848.19115946 C293.60442921 1848.44559885 293.60442921 1848.44559885 289 1846 C284.76723003 1841.80100976 282.2884872 1836.45711121 279.91883013 1831.0579259 C278.65048286 1828.21717808 277.13469968 1825.53297034 275.6015625 1822.828125 C274.60684912 1820.97010005 273.61466187 1819.11072051 272.625 1817.25 C268.57823482 1809.71104182 264.46125491 1802.22516686 260.1875 1794.8125 C255.42749883 1786.55060577 250.78383914 1778.22862259 246.1875 1769.875 C245.84940308 1769.26059052 245.51130615 1768.64618103 245.16296387 1768.01315308 C243.7910138 1765.51971739 242.41914337 1763.02623796 241.04754639 1760.53260803 C237.52825387 1754.13707735 233.98496413 1747.75494271 230.4375 1741.375 C229.82285889 1740.26946777 229.20821777 1739.16393555 228.57495117 1738.02490234 C227.33638148 1735.79746017 226.09769361 1733.5700837 224.85888672 1731.34277344 C221.73741651 1725.7295386 218.6188631 1720.1146837 215.5 1714.5 C214.25001382 1712.24999232 213.00001382 1709.99999232 211.75 1707.75 C204.25 1694.24999999 204.25 1694.24999999 202.37475586 1690.87451172 C201.12562495 1688.62610861 199.87643881 1686.37773618 198.62719727 1684.12939453 C195.48844509 1678.4802133 192.35067557 1672.8304904 189.21484375 1667.1796875 C183.16255271 1656.27555983 177.09895694 1645.37810578 171 1634.5 C164.26472928 1622.48696432 157.57383214 1610.4495583 150.89111328 1598.40722656 C147.76254948 1592.77048032 144.63113923 1587.1353159 141.5 1581.5 C140.24998618 1579.25000768 138.99998618 1577.00000768 137.75 1574.75 C136.821875 1573.079375 136.821875 1573.079375 135.875 1571.375 C100.25 1507.24999999 100.25 1507.24999999 98.37451172 1503.87402344 C97.12624991 1501.62721721 95.87787776 1499.38047227 94.62939453 1497.13378906 C91.47688621 1491.46042553 88.32638684 1485.78596278 85.1796875 1480.109375 C79.34706716 1469.59168202 73.49738889 1459.08537931 67.5625 1448.625 C61.6453963 1438.19250008 55.8478847 1427.69594416 50.0635376 1417.1895752 C49.72674988 1416.57787476 49.38996216 1415.96617432 49.04296875 1415.3359375 C48.7060199 1414.72391479 48.36907104 1414.11189209 48.02191162 1413.48132324 C44.50926921 1407.1039422 40.9753222 1400.73844324 37.4375 1394.375 C36.51541748 1392.71645996 36.51541748 1392.71645996 35.57470703 1391.02441406 C34.33621177 1388.79713851 33.09760525 1386.56992482 31.85888672 1384.34277344 C28.73741651 1378.7295386 25.6188631 1373.1146837 22.5 1367.5 C21.25001382 1365.24999232 20.00001382 1362.99999232 18.75 1360.75 C11.25000001 1347.25000002 11.25000001 1347.25000002 9.37475586 1343.87451172 C8.12562495 1341.62610861 6.87643881 1339.37773618 5.62719727 1337.12939453 C2.48844509 1331.4802133 -0.64932443 1325.8304904 -3.78515625 1320.1796875 C-9.83744729 1309.27555983 -15.90104306 1298.37810578 -22 1287.5 C-28.73527072 1275.48696432 -35.42616786 1263.4495583 -42.10888672 1251.40722656 C-45.23745052 1245.77048032 -48.36886077 1240.1353159 -51.5 1234.5 C-52.75001382 1232.25000768 -54.00001382 1230.00000768 -55.25 1227.75 C-56.178125 1226.079375 -56.178125 1226.079375 -57.125 1224.375 C-92.74999999 1160.25000001 -92.74999999 1160.25000001 -94.62548828 1156.87402344 C-95.87375009 1154.62721721 -97.12212224 1152.38047227 -98.37060547 1150.13378906 C-101.52311379 1144.46042553 -104.67361316 1138.78596278 -107.8203125 1133.109375 C-113.65293284 1122.59168202 -119.50261111 1112.08537931 -125.4375 1101.625 C-131.3546037 1091.19250008 -137.1521153 1080.69594416 -142.9364624 1070.1895752 C-143.27325012 1069.57787476 -143.61003784 1068.96617432 -143.95703125 1068.3359375 C-144.2939801 1067.72391479 -144.63092896 1067.11189209 -144.97808838 1066.48132324 C-148.49073079 1060.1039422 -152.0246778 1053.73844324 -155.5625 1047.375 C-156.48458252 1045.71645996 -156.48458252 1045.71645996 -157.42529297 1044.02441406 C-158.66378823 1041.79713851 -159.90239475 1039.56992482 -161.14111328 1037.34277344 C-164.26258349 1031.7295386 -167.3811369 1026.1146837 -170.5 1020.5 C-171.74998618 1018.24999232 -172.99998618 1015.99999232 -174.25 1013.75 C-181.75 1000.25000001 -181.75 1000.25000001 -183.62524414 996.87451172 C-184.87437505 994.62610861 -186.12356119 992.37773618 -187.37280273 990.12939453 C-190.51155491 984.4802133 -193.64932443 978.8304904 -196.78515625 973.1796875 C-202.83744729 962.27555983 -208.90104306 951.37810578 -215 940.5 C-221.73527072 928.48696432 -228.42616786 916.4495583 -235.10888672 904.40722656 C-238.23745052 898.77048032 -241.36886077 893.1353159 -244.5 887.5 C-245.75001382 885.25000768 -247.00001382 883.00000768 -248.25 880.75 C-248.86875 879.63625 -249.4875 878.5225 -250.125 877.375 C-270.75 840.25 -270.75 840.25 -272.62524414 836.87451172 C-273.87437505 834.62610861 -275.12356119 832.37773618 -276.37280273 830.12939453 C-279.51155491 824.4802133 -282.64932443 818.8304904 -285.78515625 813.1796875 C-291.83744729 802.27555983 -297.90104306 791.37810578 -304 780.5 C-310.73527072 768.48696432 -317.42616786 756.4495583 -324.10888672 744.40722656 C-327.23745052 738.77048032 -330.36886077 733.1353159 -333.5 727.5 C-334.75001382 725.25000768 -336.00001382 723.00000768 -337.25 720.75 C-337.86875 719.63625 -338.4875 718.5225 -339.125 717.375 C-374.75 653.25 -374.75 653.25 -376.62548828 649.87402344 C-377.87375009 647.62721721 -379.12212224 645.38047227 -380.37060547 643.13378906 C-383.52311379 637.46042553 -386.67361316 631.78596278 -389.8203125 626.109375 C-395.65293284 615.59168202 -401.50261111 605.08537931 -407.4375 594.625 C-413.3546037 584.19250008 -419.1521153 573.69594416 -424.9364624 563.1895752 C-425.27325012 562.57787476 -425.61003784 561.96617432 -425.95703125 561.3359375 C-426.2939801 560.72391479 -426.63092896 560.11189209 -426.97808838 559.48132324 C-430.49073079 553.1039422 -434.0246778 546.73844324 -437.5625 540.375 C-438.17722168 539.26930664 -438.79194336 538.16361328 -439.42529297 537.02441406 C-440.66378823 534.79713851 -441.90239475 532.56992482 -443.14111328 530.34277344 C-446.26258349 524.7295386 -449.3811369 519.1146837 -452.5 513.5 C-453.74998618 511.24999232 -454.99998618 508.99999232 -456.25 506.75 C-463.75 493.25 -463.75 493.25 -465.62524414 489.87451172 C-466.87437505 487.62610861 -468.12356119 485.37773618 -469.37280273 483.12939453 C-472.51155491 477.4802133 -475.64932443 471.8304904 -478.78515625 466.1796875 C-484.83744729 455.27555983 -490.90104306 444.37810578 -497 433.5 C-503.73527072 421.48696432 -510.42616786 409.4495583 -517.10888672 397.40722656 C-520.23745052 391.77048032 -523.36886077 386.1353159 -526.5 380.5 C-527.75001382 378.25000768 -529.00001382 376.00000768 -530.25 373.75 C-530.86875 372.63625 -531.4875 371.5225 -532.125 370.375 C-552.75 333.25 -552.75 333.25 -554.62524414 329.87451172 C-555.87437505 327.62610861 -557.12356119 325.37773618 -558.37280273 323.12939453 C-561.51155491 317.4802133 -564.64932443 311.8304904 -567.78515625 306.1796875 C-573.83744729 295.27555983 -579.90104306 284.37810578 -586 273.5 C-592.73527072 261.48696432 -599.42616786 249.4495583 -606.10888672 237.40722656 C-609.23745052 231.77048032 -612.36886077 226.1353159 -615.5 220.5 C-616.75001382 218.25000768 -618.00001382 216.00000768 -619.25 213.75 C-620.178125 212.079375 -620.178125 212.079375 -621.125 210.375 C-641.75 173.25 -641.75 173.25 -643.62719727 169.87084961 C-644.86965168 167.63456124 -646.11232529 165.39839464 -647.35522461 163.16235352 C-650.25514811 157.94462323 -653.15302476 152.72579276 -656.04275513 147.50241089 C-657.39089299 145.06589174 -658.74032268 142.63008917 -660.08984375 140.19433594 C-661.02859544 138.49873926 -661.96550433 136.80212273 -662.90234375 135.10546875 C-666.47585348 128.65726896 -670.15828742 122.29226354 -674 116 C-671.90893805 120.35397599 -669.81309231 124.7056095 -667.71337891 129.05541992 C-667.00447898 130.52553652 -666.29673747 131.99621245 -665.59033203 133.4675293 C-661.66846852 141.63387026 -657.65382668 149.73232582 -653.3984375 157.73046875 C-649.07607311 165.8614324 -644.92172419 174.07230757 -640.8125 182.3125 C-640.49650219 182.9459754 -640.18050438 183.5794508 -639.85493088 184.23212242 C-637.23662981 189.48270391 -634.62354734 194.73587861 -632.01062012 199.98913574 C-629.73861581 204.55643976 -627.46467265 209.12277042 -625.1875 213.6875 C-624.71626961 214.63224182 -624.71626961 214.63224182 -624.23551941 215.59606934 C-619.64187613 224.79778845 -614.93019273 233.92922318 -610.10546875 243.01171875 C-606.60495052 249.61157222 -603.31775287 256.31678421 -600.01171875 263.015625 C-596.87377323 269.33918103 -593.64420528 275.60381159 -590.34375 281.84375 C-583.91377643 294.00343945 -577.6947249 306.26971863 -571.45898438 318.52978516 C-565.89871782 329.45779316 -560.31020186 340.36686959 -554.57983398 351.20678711 C-550.70379779 358.54292889 -546.90835141 365.91925691 -543.12536621 373.30371094 C-537.6752673 383.94024197 -532.21617096 394.57065745 -526.62060547 405.1315918 C-523.69014883 410.66794105 -520.8115369 416.23003566 -517.93945312 421.796875 C-513.14354457 431.08927047 -508.30623829 440.34640476 -503.25 449.5 C-497.55020907 459.82563766 -492.18512111 470.31452562 -486.81658936 480.8145752 C-481.83786309 490.54716373 -476.76980967 500.21105626 -471.4765625 509.77734375 C-467.16471645 517.60737187 -463.07872002 525.54702743 -459 533.5 C-453.91868356 543.40700673 -448.74402316 553.24512962 -443.3671875 562.99609375 C-439.63821282 569.7769664 -436.05130116 576.6246012 -432.5 583.5 C-428.52322131 591.19504332 -424.48585742 598.84723305 -420.3125 606.4375 C-415.15213375 615.82410338 -410.12609482 625.27797051 -405.125 634.75 C-398.04227163 648.16129185 -390.89567674 661.53553874 -383.68554688 674.87890625 C-380.78503199 680.24973218 -377.89308804 685.62517107 -375 691 C-373.83595695 693.16146881 -372.67189446 695.32292715 -371.5078125 697.484375 C-369.14680476 701.86891533 -366.78762107 706.25443072 -364.4296875 710.640625 C-358.49899275 721.66963629 -352.54609558 732.68549042 -346.53857422 743.67285156 C-342.66359828 750.76650583 -338.82732871 757.88054203 -335 765 C-325.78216587 782.13944955 -316.44596738 799.21141731 -307.02993774 816.24264526 C-302.4123108 824.59615705 -297.84001669 832.97218328 -293.3125 841.375 C-289.17401591 849.05360259 -284.94401852 856.67155518 -280.625 864.25 C-275.44003376 873.34943886 -270.46256395 882.55076454 -265.54455566 891.79614258 C-260.75435273 900.79532326 -255.82341624 909.70265542 -250.7734375 918.55859375 C-246.92353034 925.32423943 -243.1884485 932.14513144 -239.5 939 C-234.79855053 947.73266986 -229.98263308 956.39071069 -225.08154297 965.01269531 C-220.70345681 972.72615584 -216.40220177 980.48035582 -212.125 988.25 C-211.44572286 989.48364448 -210.76644226 990.71728706 -210.0871582 991.95092773 C-209.75049637 992.56234116 -209.41383453 993.17375458 -209.06697083 993.80369568 C-208.7303392 994.4150386 -208.39370758 995.02638153 -208.046875 995.65625 C-207.71012253 996.26787491 -207.37337006 996.87949982 -207.02641296 997.50965881 C-197.01498511 1015.68625978 -186.88786672 1033.79872526 -176.73828125 1051.8984375 C-174.98009177 1055.03552164 -173.22408656 1058.17381873 -171.46875 1061.3125 C-162.48521518 1077.37367054 -153.44080709 1093.39973275 -144.3671875 1109.41015625 C-143.77236572 1110.46058105 -143.17754395 1111.51100586 -142.56469727 1112.59326172 C-141.42282979 1114.60970708 -140.2801298 1116.62568131 -139.13647461 1118.64111328 C-138.6235083 1119.54716309 -138.11054199 1120.45321289 -137.58203125 1121.38671875 C-137.13061768 1122.18295654 -136.6792041 1122.97919434 -136.21411133 1123.79956055 C-135.81345459 1124.52570557 -135.41279785 1125.25185059 -135 1126 C-134.35490479 1126.88860718 -134.35490479 1126.88860718 -133.69677734 1127.79516602 C-132.55979043 1131.39296869 -134.06424143 1134.46786547 -135.26953125 1137.890625 C-135.53644272 1138.68559387 -135.80335419 1139.48056274 -136.07835388 1140.29962158 C-136.97476953 1142.95509416 -137.89322378 1145.60236218 -138.8125 1148.25 C-139.45569353 1150.13574704 -140.09792683 1152.02182183 -140.73925781 1153.90820312 C-142.8005335 1159.94778829 -144.896392 1165.97504813 -147 1172 C-147.34021179 1172.97557861 -147.68042358 1173.95115723 -148.03094482 1174.95629883 C-152.92066521 1188.96641198 -157.89544679 1202.94561457 -162.89715576 1216.91607666 C-163.99661165 1219.99052505 -165.09285775 1223.06609831 -166.18798828 1226.14208984 C-188.8818425 1289.87373866 -212.98597858 1353.11053682 -238.98883057 1415.56939697 C-240.04567444 1418.10979014 -241.09997882 1420.65122621 -242.15380859 1423.19287109 C-270.09328567 1490.55147561 -299.79690474 1557.26167762 -331.57421875 1622.90234375 C-333.98267385 1627.87934383 -336.36972705 1632.86620354 -338.75045776 1637.85652161 C-345.11388916 1651.19069936 -351.56171574 1664.48227782 -358.0625 1677.75 C-358.60491333 1678.85728455 -359.14732666 1679.96456909 -359.70617676 1681.10540771 C-368.1445767 1698.3168689 -376.75740166 1715.42440939 -385.59877014 1732.43180847 C-388.54290571 1738.10123463 -391.45121127 1743.78853707 -394.3515625 1749.48046875 C-410.48758388 1781.135896 -410.48758388 1781.135896 -417.81787109 1794.36645508 C-421.67688948 1801.34428328 -425.34878948 1808.41151322 -429 1815.5 C-434.67250871 1826.50355192 -440.52325755 1837.39367622 -446.48925781 1848.24023438 C-448.61208031 1852.11812472 -450.70609619 1856.01134257 -452.80249023 1859.90356445 C-458.12924609 1869.78792985 -463.57154619 1879.59642866 -469.12475586 1889.35522461 C-473.00437437 1896.19074295 -476.77515386 1903.07907138 -480.5 1910 C-485.77240151 1919.79092476 -491.19269083 1929.48870956 -496.6875 1939.15625 C-499.54494803 1944.18563003 -502.36670854 1949.23422054 -505.18188477 1954.28735352 C-510.91983581 1964.58310964 -516.77270747 1974.80097596 -522.7409668 1984.96484375 C-527.00175776 1992.23939402 -531.14808649 1999.57233346 -535.25 2006.9375 C-539.45445021 2014.48479029 -543.70540423 2021.99330056 -548.11572266 2029.42211914 C-551.84347597 2035.70662337 -555.48417873 2042.03982127 -559.125 2048.375 C-565.03023693 2058.63907835 -571.03075628 2068.84303284 -577.08178711 2079.02172852 C-581.48507429 2086.43206015 -585.8519601 2093.86234115 -590.1875 2101.3125 C-596.74190028 2112.57140128 -603.35610971 2123.79370771 -610 2135 C-610.72576733 2136.22476109 -611.45151509 2137.44953379 -612.17724609 2138.67431641 C-620.84689591 2153.30398474 -629.53607538 2167.92115353 -638.30078125 2182.49414062 C-641.73611778 2188.21115589 -645.15483279 2193.93761926 -648.5546875 2199.67578125 C-648.94786163 2200.33935135 -649.34103577 2201.00292145 -649.74612427 2201.68659973 C-651.35745467 2204.40646346 -652.96864991 2207.1264072 -654.57965088 2209.84646606 C-661.13326576 2220.90708458 -667.76956753 2231.91512136 -674.48193359 2242.88012695 C-678.12678198 2248.84920694 -681.67328533 2254.84725007 -685 2261 C-676.90670451 2250.06510531 -668.8583278 2239.10509019 -661 2228 C-660.56042969 2227.38044434 -660.12085938 2226.76088867 -659.66796875 2226.12255859 C-650.69419781 2213.47396526 -641.83490103 2200.74586182 -633 2188 C-632.52272461 2187.31180176 -632.04544922 2186.62360352 -631.55371094 2185.91455078 C-624.77963509 2176.13580285 -618.11201847 2166.28431146 -611.4375 2156.4375 C-610.99596588 2155.7863623 -610.55443176 2155.13522461 -610.09951782 2154.46435547 C-600.29396876 2140.0002078 -590.61644791 2125.45439095 -581.02319336 2110.84863281 C-579.56770776 2108.63292785 -578.11104996 2106.41799678 -576.65429688 2104.203125 C-567.69445958 2090.5722865 -558.80601068 2076.89579639 -550.0625 2063.125 C-549.47460693 2062.19993652 -548.88671387 2061.27487305 -548.28100586 2060.32177734 C-546.51947583 2057.54860748 -544.75936726 2054.7745424 -543 2052 C-542.48824219 2051.19304688 -541.97648438 2050.38609375 -541.44921875 2049.5546875 C-537.95594216 2044.04286851 -534.47396143 2038.52401186 -531 2033 C-530.42137207 2032.07993164 -529.84274414 2031.15986328 -529.24658203 2030.21191406 C-520.66962197 2016.56084176 -512.2075002 2002.84500237 -503.85400391 1989.05615234 C-501.91119471 1985.85361277 -499.96204277 1982.65499937 -498.01171875 1979.45703125 C-476.78741586 1944.62893953 -456.15901282 1909.45492357 -436 1874 C-435.42894531 1872.99582031 -434.85789062 1871.99164062 -434.26953125 1870.95703125 C-421.99234849 1849.34802311 -409.91261712 1827.6315199 -398.11328125 1805.7578125 C-396.08262584 1801.99499728 -394.0390446 1798.23979973 -391.98046875 1794.4921875 C-384.95932757 1781.70749146 -378.18241627 1768.80907714 -371.48144531 1755.85400391 C-369.42474752 1751.89177629 -367.33794624 1747.94581576 -365.25 1744 C-353.61083991 1721.92597804 -342.29587717 1699.68914376 -331.125 1677.375 C-330.65107819 1676.42974457 -330.17715637 1675.48448914 -329.68887329 1674.5105896 C-322.6272662 1660.4178682 -315.7559476 1646.24162351 -309 1632 C-308.63942505 1631.24104431 -308.2788501 1630.48208862 -307.90734863 1629.70013428 C-291.35974462 1594.86448892 -275.42175076 1559.77662503 -260.04693604 1524.40771484 C-259.05511557 1522.12675329 -258.06167052 1519.84650612 -257.06787109 1517.56640625 C-240.39104826 1479.26852914 -224.66224397 1440.55453894 -209.93041992 1401.46765137 C-208.97161558 1398.9247191 -208.01033621 1396.38273138 -207.04882812 1393.84082031 C-197.26045648 1367.93729125 -187.87975285 1341.90575489 -178.92388916 1315.70269775 C-178.31009189 1313.90712684 -177.69547349 1312.1118364 -177.08001709 1310.3168335 C-160.68930111 1262.51066932 -146.30896853 1214.16776892 -133.25057983 1165.35061646 C-131.24777502 1157.87625465 -129.1720753 1150.42698924 -127 1143 C-126.34 1143 -125.68 1143 -125 1143 C-124.45025513 1143.98673706 -124.45025513 1143.98673706 -123.8894043 1144.9934082 C-122.15702719 1148.10066205 -120.42225923 1151.20657549 -118.6875 1154.3125 C-118.11193359 1155.34568359 -117.53636719 1156.37886719 -116.94335938 1157.44335938 C-116.04907227 1159.0434082 -116.04907227 1159.0434082 -115.13671875 1160.67578125 C-114.53392831 1161.79692308 -113.93113788 1162.91806491 -113.31008106 1164.07318074 C-111.81077936 1166.75149482 -110.17555042 1169.0942756 -108.23722452 1171.47088999 C-96.50068622 1186.86364795 -98.46133168 1205.51842657 -98.63026643 1223.88579832 C-98.66470251 1228.96748516 -98.63475759 1234.04887975 -98.61325067 1239.1305818 C-98.58438078 1248.02378366 -98.59611613 1256.91620116 -98.63490677 1265.80935478 C-98.69242789 1279.03336444 -98.68662648 1292.25682548 -98.66827962 1305.48092053 C-98.63927198 1327.73152898 -98.66178343 1349.98184385 -98.71470833 1372.23237801 C-98.76700614 1394.26349594 -98.79816432 1416.29446885 -98.80059624 1438.32565117 C-98.80077321 1439.71061315 -98.80095062 1441.09557513 -98.80112847 1442.4805371 C-98.80179827 1448.04635447 -98.8022893 1453.61217183 -98.80256707 1459.17798923 C-98.8033746 1474.7348154 -98.80780663 1490.29163944 -98.8148489 1505.84846401 C-98.81516754 1506.55678815 -98.81548618 1507.26511228 -98.81581447 1507.99490079 C-98.8319967 1543.16964624 -98.8925928 1578.34430313 -98.9543627 1613.5189925 C-99.03705104 1660.64215532 -99.08420636 1707.76519285 -99.09399414 1754.88842773 C-99.09431092 1756.37860933 -99.09462863 1757.86879092 -99.09494728 1759.35897252 C-99.09589907 1763.82210954 -99.09683536 1768.28524656 -99.0977698 1772.74838358 C-99.09885713 1777.93686727 -99.09995367 1783.12535096 -99.10106756 1788.31383464 C-99.1013828 1789.79221479 -99.10169406 1791.27059494 -99.10200133 1792.74897509 C-99.11165679 1839.17328442 -99.15057014 1885.59756921 -99.19623338 1932.02185554 C-99.21114127 1947.18124598 -99.22434736 1962.34063389 -99.23217702 1977.5000298 C-99.2328977 1978.87917695 -99.23361907 1980.25832409 -99.23434114 1981.63747124 C-99.23469737 1982.3191263 -99.23505361 1983.00078137 -99.23542065 1983.70309265 C-99.24949925 2010.61210226 -99.27537272 2037.52103637 -99.33134932 2064.43000007 C-99.3559805 2076.41488804 -99.37453098 2088.39970312 -99.37513733 2100.38461876 C-99.37564347 2110.31781251 -99.38929719 2120.25087036 -99.42110691 2130.18401548 C-99.43674133 2135.18668238 -99.44608254 2140.18914389 -99.43800069 2145.1918335 C-99.4307977 2149.74273573 -99.44196124 2154.29320917 -99.4677855 2158.84404046 C-99.47386537 2160.48012351 -99.47327394 2162.11624845 -99.46518707 2163.75232281 C-99.40536041 2177.04669379 -101.22755121 2185.88212647 -110.58984375 2195.625 C-111.38519531 2196.40875 -112.18054688 2197.1925 -113 2198 C-113.70253906 2198.70125 -114.40507813 2199.4025 -115.12890625 2200.125 C-177.33277447 2258.77763449 -307.84476088 2263.42899793 -537 2281 C-538.28449036 2281.05327454 -539.56898071 2281.10654907 -540.89239502 2281.16143799 C-593.95785724 2283.33575373 -646.84656994 2283 -700 2283 C-700 1551.39 -700 819.78 -700 66 C-687.59022454 64.22717493 -675.21438218 62.46676482 -662.76953125 61.01171875 C-662.02614754 60.92409019 -661.28276382 60.83646164 -660.51685333 60.74617767 C-654.61645941 60.05073371 -648.71477865 59.36674751 -642.8125 58.6875 C-641.89939434 58.5823772 -640.98628868 58.47725441 -640.04551315 58.36894608 C-551.37255283 48.17767896 -462.50847728 39.66297537 -170.5625 13.3125 C-169.11896912 13.18776479 -169.11896912 13.18776479 -167.646276 13.06050968 C-141.80846948 10.82807646 -115.96895934 8.6163184 -90.12693024 6.4332962 C-86.66051371 6.14044795 -83.19414197 5.84707731 -79.72780609 5.55327606 C-69.39621752 4.67772908 -59.0641773 3.80787362 -48.73139763 2.94649315 C-45.55371092 2.68144399 -42.37621932 2.4142227 -39.19888496 2.14498329 C-35.52341602 1.83367555 -31.84757318 1.52723071 -28.17138791 1.2245028 C-26.21589459 1.06233031 -24.26080151 0.89535326 -22.30573082 0.72816277 C-14.85118973 0.12057644 -7.47867065 -0.1303916 0 0 Z M-679 106 C-678 108 -678 108 -678 108 Z M-678 108 C-677 110 -677 110 -677 110 Z M1678 108 C1679 110 1679 110 1679 110 Z M-677 110 C-676 112 -676 112 -676 112 Z M1677 110 C1678 112 1678 112 1678 112 Z M-676 112 C-675 114 -675 114 -675 114 Z M1676 112 C1677 114 1677 114 1677 114 Z M1675 114 C1676 116 1676 116 1676 116 Z M1674 116 C1675 118 1675 118 1675 118 Z M1673 118 C1674 120 1674 120 1674 120 Z M1698 173 C1699 175 1699 175 1699 175 Z M1697 197 C1697 200.3 1697 203.6 1697 207 C1697.33 207 1697.66 207 1698 207 C1698 203.7 1698 200.4 1698 197 C1697.67 197 1697.34 197 1697 197 Z M1696 218 C1696 223.28 1696 228.56 1696 234 C1696.33 234 1696.66 234 1697 234 C1697 228.72 1697 223.44 1697 218 C1696.67 218 1696.34 218 1696 218 Z M1695 237 C1694.9529039 237.75164932 1694.9058078 238.50329865 1694.85728455 239.27772522 C1689.77437189 320.07475529 1682.73182929 400.65387426 1503 1318 C1502.79240555 1318.75714294 1502.5848111 1319.51428589 1502.3709259 1320.29437256 C1480.39576917 1400.41244712 1457.06524735 1480.11896151 1382.28442383 1716.11743164 C1381.07802029 1719.76331685 1379.87376516 1723.40990917 1378.66992188 1727.05664062 C1370.36217788 1752.21424585 1361.85674867 1777.29369279 1353.06230164 1802.28538513 C1350.46736384 1809.66101327 1347.89037329 1817.04281211 1345.31640625 1824.42578125 C1308.65356433 1929.50238193 1269.73043854 2034.02819391 1217.88299561 2153.99047852 C1217.03936629 2155.9104102 1216.19754315 2157.83112516 1215.35595703 2159.75195312 C1182.44413795 2234.68081945 1182.44413795 2234.68081945 1165 2259 C1165.33 2259.66 1165.66 2260.32 1166 2261 C1174.0776904 2253.17473742 1180.78362253 2244.78844499 1186.9375 2235.375 C1187.63915283 2234.31031494 1188.34080566 2233.24562988 1189.0637207 2232.14868164 C1194.26375937 2224.21824629 1199.28109889 2216.22437051 1204 2208 C1204.44279297 2207.23623047 1204.88558594 2206.47246094 1205.34179688 2205.68554688 C1225.41784294 2171.00384046 1243.67799445 2135.19128911 1260.352005 2098.75920105 C1262.5667008 2093.92609732 1264.81729072 2089.11037557 1267.07421875 2084.296875 C1278.46541667 2059.95110759 1289.14237434 2035.32721922 1299.63183594 2010.58105469 C1301.71533919 2005.66666594 1303.81191475 2000.75799854 1305.9140625 1995.8515625 C1314.54778705 1975.67745312 1322.85033484 1955.37416291 1331 1935 C1331.30808594 1934.22978516 1331.61617187 1933.45957031 1331.93359375 1932.66601562 C1342.2374283 1906.88478254 1352.20884164 1880.97994179 1362 1855 C1362.3239978 1854.14079956 1362.64799561 1853.28159912 1362.98181152 1852.3963623 C1395.42727574 1766.31282579 1425.59828865 1679.22925694 1459.92559814 1568.48883057 C1461.26498649 1564.13952776 1462.61339974 1559.79305831 1463.96255493 1555.44677734 C1489.31284257 1473.74632769 1512.48122797 1391.30491341 1546.20654297 1258.27539062 C1547.62942179 1252.49510684 1549.06525273 1246.71817171 1550.50759888 1240.94271851 C1565.07540335 1182.59289833 1578.16691781 1123.89010259 1590.56892395 1065.04499054 C1591.0017607 1062.9916474 1591.43511384 1060.93841372 1591.86853027 1058.88519287 C1607.11793127 986.60882592 1620.77914191 914.01583301 1664.72639465 623.23641205 C1665.00357499 620.9707785 1665.28166446 618.705258 1665.55993652 616.4397583 C1675.87735239 532.37758724 1684.17853844 448.03366197 1694 298 C1694.06896484 296.80985291 1694.13792969 295.61970581 1694.20898438 294.39349365 C1695.86791808 265.71711112 1695.86791808 265.71711112 1696 237 C1695.67 237 1695.34 237 1695 237 Z M721 1801 C722 1804 722 1804 722 1804 Z M722 1804 C723 1806 723 1806 723 1806 Z M723 1807 C724 1809 724 1809 724 1809 Z M-687 2262 C-686 2264 -686 2264 -686 2264 Z " fill="#6EABAF" transform="translate(700,0)"/>
<path d="M0 0 C237.93 0 475.86 0 721 0 C721 726.33 721 1452.66 721 2201 C541.81 2201 362.62 2201 178 2201 C172.37533255 2188.62573162 172.37533255 2188.62573162 170.46386719 2184.12744141 C170.03281677 2183.11493317 169.60176636 2182.10242493 169.15765381 2181.05923462 C168.4840683 2179.47143692 168.4840683 2179.47143692 167.796875 2177.8515625 C167.31478577 2176.71834564 166.83269653 2175.58512878 166.33599854 2174.41757202 C164.80605947 2170.82058763 163.27795139 2167.22282911 161.75 2163.625 C160.23595841 2160.06303587 158.72152232 2156.50123985 157.20684814 2152.93954468 C156.2701608 2150.73663077 155.3338769 2148.53354525 154.39813232 2146.33023071 C153.95447327 2145.28620087 153.51081421 2144.24217102 153.05371094 2143.16650391 C152.61730891 2142.09222348 152.18090689 2141.01794305 151.73128057 2139.91110867 C150.5832167 2137.19097874 149.26528072 2134.68171273 147.77558017 2132.1342867 C138.34931978 2114.94864664 139.69365661 2096.39084591 139.7817784 2077.37719351 C139.79569189 2072.22222205 139.75731783 2067.06757892 139.72592998 2061.9127205 C139.6781957 2052.89356228 139.66369151 2043.8748327 139.67144394 2034.8555584 C139.68294542 2021.4428092 139.64313452 2008.03054599 139.59390599 1994.6178999 C139.50290317 1969.26416904 139.47351573 1943.91064784 139.46475533 1918.55679455 C139.4637783 1915.76389075 139.46277689 1912.97098696 139.4617548 1910.17808318 C139.46150671 1909.48493775 139.46125861 1908.79179233 139.461003 1908.07764249 C139.45522746 1892.68785346 139.43371928 1877.29809861 139.40956657 1861.908329 C139.39964397 1855.56266654 139.3900824 1849.21700351 139.38046718 1842.87134057 C139.37940214 1842.17010519 139.3783371 1841.46886981 139.37723979 1840.74638486 C139.31638411 1800.58474549 139.27561528 1760.42312702 139.27638626 1720.26143932 C139.27640208 1718.75981036 139.27641722 1717.25818139 139.27643169 1715.75655243 C139.27651762 1708.9774951 139.27672942 1702.19843779 139.27697052 1695.41938047 C139.27707678 1692.39670382 139.27717292 1689.37402717 139.27726765 1686.35135052 C139.27731839 1684.8384498 139.27737513 1683.32554907 139.27743787 1681.81264835 C139.27938436 1633.99208565 139.20646683 1586.17217571 139.07226562 1538.35180664 C139.03847325 1526.3051864 139.00498823 1514.25856552 138.97319412 1502.21193981 C138.97123583 1501.47005897 138.96927754 1500.72817813 138.9672599 1499.96381605 C138.90720841 1477.07566083 138.87051274 1454.18755901 138.85746384 1431.2993288 C138.85705074 1430.58007438 138.85663765 1429.86081995 138.85621204 1429.11976994 C138.8473642 1413.32562101 138.84412175 1397.53147525 138.84604647 1381.73732411 C138.8466821 1376.08499982 138.84688953 1370.43267552 138.84688305 1364.7803512 C138.8468848 1363.37434213 138.84690812 1361.96833306 138.84695309 1360.56232399 C138.84744259 1338.21829013 138.79207593 1315.87483871 138.70826507 1293.53097565 C138.62184987 1270.37939853 138.60547965 1247.22869263 138.66785505 1224.07694759 C138.70176615 1210.74970409 138.68371153 1197.42498012 138.58907783 1184.09801612 C138.53102594 1175.17434843 138.54318762 1166.25248194 138.61027804 1157.32888417 C138.64648966 1152.25732964 138.65438959 1147.19061566 138.57611051 1142.1194258 C138.1991372 1116.01808609 142.24416404 1098.67689174 157.62607941 1077.3669881 C161.36852274 1072.14693404 164.55923949 1066.59543256 167.8125 1061.0625 C169.02470976 1059.04347057 170.23807936 1057.02513658 171.453125 1055.0078125 C175.71016465 1047.8512195 179.76170541 1040.58345112 183.80200195 1033.30297852 C187.77781135 1026.14719367 191.85370453 1019.05823734 196 1012 C201.41339776 1002.77807139 206.68481471 993.48504484 211.890625 984.14453125 C215.55418401 977.57312496 219.25549757 971.02559833 223 964.5 C234.87522296 943.78501354 246.43044241 922.88675613 258 902 C258.3297583 901.40471497 258.6595166 900.80942993 258.99926758 900.19610596 C266.82816322 886.06049485 274.61133974 871.90302598 282.27563477 857.67724609 C285.95017092 850.87921189 289.73342309 844.14947924 293.5625 837.4375 C298.42600607 828.90343704 303.04942252 820.26980248 307.55761719 811.54345703 C310.89649714 805.08792422 314.3169877 798.68451551 317.8125 792.3125 C328.61077749 772.61724988 339.13340329 752.77310661 349.65844727 732.9309082 C353.05174289 726.53575291 356.45256628 720.14495671 359.8828125 713.76953125 C367.26377174 700.04919169 374.51846068 686.27325439 381.65348816 672.42408752 C385.18856481 665.56250286 388.76005693 658.72158324 392.36450195 651.89624023 C396.11873118 644.78521521 399.83536006 637.6548001 403.55078125 630.5234375 C406.19890229 625.44336857 408.85721451 620.36909432 411.53515625 615.3046875 C416.97854247 605.00838408 422.30725075 594.6541931 427.63290405 584.29669189 C431.72139804 576.34631996 435.81544783 568.40039055 440 560.5 C452.33218288 537.19087734 464.23973608 513.6532626 476.25280762 490.1787262 C476.69660767 489.31150436 477.14040771 488.44428253 477.59765625 487.55078125 C478.04274536 486.68102158 478.48783447 485.8112619 478.94641113 484.91514587 C482.08254235 478.78829117 485.22550769 472.66497361 488.37109375 466.54296875 C497.61657005 448.54182732 506.80508025 430.51657375 515.78979492 412.38354492 C519.32041139 405.27123667 522.92854256 398.20987718 526.65016174 391.19549561 C531.82826263 381.39208764 536.82014442 371.50155053 541.77319336 361.58300781 C542.70245741 359.72583954 543.63189078 357.86875597 544.56147766 356.01174927 C547.05513374 351.02894343 549.54630822 346.04490099 552.03688502 341.06055546 C554.66502836 335.80170825 557.29514968 330.54385036 559.92494202 325.28582764 C564.33998882 316.45754564 568.7533627 307.62842887 573.16577148 298.79882812 C578.23705303 288.65083047 583.31120793 278.50427352 588.38686651 268.35846448 C592.77425196 259.58826088 597.16004866 250.81726411 601.54456621 242.0456264 C604.15015983 236.83289538 606.75626387 231.62042145 609.3638134 226.40866852 C623.32009837 198.5790239 623.32009837 198.5790239 636.84169006 170.5368042 C640.47928603 162.83496543 644.34217045 155.24215419 648.17330933 147.63534546 C654.45687288 135.15364116 660.70864378 122.66310281 666.69465637 110.0355072 C669.93585039 103.20808944 673.22472082 96.40553502 676.546875 89.6171875 C677.04415604 88.59987045 677.54143707 87.58255341 678.05378723 86.53440857 C679.59760486 83.37673658 681.14239452 80.219542 682.6875 77.0625 C683.19610565 76.02314301 683.7047113 74.98378601 684.22872925 73.91293335 C687.15116684 67.9413091 690.07486409 61.97030296 693 56 C687.74607075 65.05995291 682.69862355 74.20672953 677.81802368 83.47283936 C675.96631917 86.98746414 674.10629213 90.49767777 672.24609375 94.0078125 C671.69516304 95.04767807 671.69516304 95.04767807 671.13310242 96.10855103 C667.60484738 102.76001451 664.00646904 109.37202153 660.38769531 115.97460938 C656.55788613 122.96499145 652.77320409 129.97891623 649 137 C644.2114493 145.90823278 639.39110383 154.79808819 634.5390625 163.671875 C630.66400417 170.76589714 626.82734377 177.88013778 623 185 C618.69199435 193.01401924 614.36497875 201.01686593 610 209 C605.05717084 218.04109683 600.163823 227.108165 595.28344727 236.18310547 C589.74639173 246.47762836 584.18048277 256.75636713 578.60888672 267.03222656 C575.90452549 272.02072657 573.20238119 277.01042717 570.5 282 C569.41667715 284.00000568 568.33334382 286.00000568 567.25 288 C566.71375 288.99 566.1775 289.98 565.625 291 C547.74999998 324.00000004 547.74999998 324.00000004 546.12524414 326.99951172 C545.04105507 329.00111661 543.95690798 331.00274424 542.87280273 333.00439453 C540.17790475 337.98002638 537.48229701 342.955271 534.78515625 347.9296875 C529.15291745 358.31938691 523.53501881 368.71654935 517.9375 379.125 C513.16894501 387.99127603 508.36853075 396.83927526 503.53881836 405.67236328 C499.66380155 412.76620091 495.82725762 419.88029806 492 427 C487.2113349 435.90817176 482.39110427 444.79808738 477.5390625 453.671875 C473.66400417 460.76589714 469.82734377 467.88013778 466 475 C461.69199435 483.01401924 457.36497875 491.01686593 453 499 C448.05717084 508.04109683 443.163823 517.108165 438.28344727 526.18310547 C432.74639173 536.47762836 427.18048277 546.75636713 421.60888672 557.03222656 C418.90452549 562.02072657 416.20238119 567.01042717 413.5 572 C412.41667715 574.00000568 411.33334382 576.00000568 410.25 578 C409.71375 578.99 409.1775 579.98 408.625 581 C403.75 590 403.75 590 402.12524414 592.99951172 C401.04105507 595.00111661 399.95690798 597.00274424 398.87280273 599.00439453 C396.17790475 603.98002638 393.48229701 608.955271 390.78515625 613.9296875 C385.15291745 624.31938691 379.53501881 634.71654935 373.9375 645.125 C369.16894501 653.99127603 364.36853075 662.83927526 359.53881836 671.67236328 C355.66380155 678.76620091 351.82725762 685.88029806 348 693 C343.2113349 701.90817176 338.39110427 710.79808738 333.5390625 719.671875 C329.66400417 726.76589714 325.82734377 733.88013778 322 741 C317.69199435 749.01401924 313.36497875 757.01686593 309 765 C304.05717084 774.04109683 299.163823 783.108165 294.28344727 792.18310547 C288.74639173 802.47762836 283.18048277 812.75636713 277.60888672 823.03222656 C274.90452549 828.02072657 272.20238119 833.01042717 269.5 838 C268.41667715 840.00000568 267.33334382 842.00000568 266.25 844 C265.71375 844.99 265.1775 845.98 264.625 847 C259.75000001 855.99999997 259.75000001 855.99999997 258.12524414 858.99951172 C257.04105507 861.00111661 255.95690798 863.00274424 254.87280273 865.00439453 C252.17790475 869.98002638 249.48229701 874.955271 246.78515625 879.9296875 C241.15291745 890.31938691 235.53501881 900.71654935 229.9375 911.125 C225.16894501 919.99127603 220.36853075 928.83927526 215.53881836 937.67236328 C211.66380155 944.76620091 207.82725762 951.88029806 204 959 C199.2113349 967.90817176 194.39110427 976.79808738 189.5390625 985.671875 C185.66400417 992.76589714 181.82734377 999.88013778 178 1007 C173.69199435 1015.01401924 169.36497875 1023.01686593 165 1031 C160.05717084 1040.04109683 155.163823 1049.108165 150.28344727 1058.18310547 C144.74639173 1068.47762836 139.18048277 1078.75636713 133.60888672 1089.03222656 C130.90452549 1094.02072657 128.20238119 1099.01042717 125.5 1104 C124.41667715 1106.00000568 123.33334382 1108.00000568 122.25 1110 C121.71375 1110.99 121.1775 1111.98 120.625 1113 C115.75 1121.99999999 115.75 1121.99999999 114.12524414 1124.99951172 C113.04105507 1127.00111661 111.95690798 1129.00274424 110.87280273 1131.00439453 C108.17790475 1135.98002638 105.48229701 1140.955271 102.78515625 1145.9296875 C97.15291745 1156.31938691 91.53501881 1166.71654935 85.9375 1177.125 C81.16894501 1185.99127603 76.36853075 1194.83927526 71.53881836 1203.67236328 C67.66380155 1210.76620091 63.82725762 1217.88029806 60 1225 C55.2113349 1233.90817176 50.39110427 1242.79808738 45.5390625 1251.671875 C41.66400417 1258.76589714 37.82734377 1265.88013778 34 1273 C29.69199435 1281.01401924 25.36497875 1289.01686593 21 1297 C16.05717084 1306.04109683 11.163823 1315.108165 6.28344727 1324.18310547 C0.74639173 1334.47762836 -4.81951723 1344.75636713 -10.39111328 1355.03222656 C-13.0954745 1360.02072656 -15.7976449 1365.01041306 -18.5 1370 C-21.73721377 1375.97714177 -24.97484201 1381.95405643 -28.21484375 1387.9296875 C-33.84708255 1398.31938691 -39.46498119 1408.71654935 -45.0625 1419.125 C-49.83105499 1427.99127603 -54.63146925 1436.83927526 -59.46118164 1445.67236328 C-63.33619845 1452.76620091 -67.17274238 1459.88029806 -71 1467 C-75.7886651 1475.90817176 -80.60889573 1484.79808738 -85.4609375 1493.671875 C-89.33599583 1500.76589714 -93.17265623 1507.88013778 -97 1515 C-101.30800565 1523.01401924 -105.63502125 1531.01686593 -110 1539 C-114.94282916 1548.04109683 -119.836177 1557.108165 -124.71655273 1566.18310547 C-130.25360827 1576.47762836 -135.81951723 1586.75636713 -141.39111328 1597.03222656 C-144.09547451 1602.02072657 -146.79761881 1607.01042717 -149.5 1612 C-150.58332285 1614.00000568 -151.66665618 1616.00000568 -152.75 1618 C-153.28625 1618.99 -153.8225 1619.98 -154.375 1621 C-159.25 1629.99999999 -159.25 1629.99999999 -160.87475586 1632.99951172 C-161.95894493 1635.00111661 -163.04309202 1637.00274424 -164.12719727 1639.00439453 C-166.82209525 1643.98002638 -169.51770299 1648.955271 -172.21484375 1653.9296875 C-177.84708255 1664.31938691 -183.46498119 1674.71654935 -189.0625 1685.125 C-193.83105499 1693.99127603 -198.63146925 1702.83927526 -203.46118164 1711.67236328 C-207.33619932 1718.76620249 -211.17252862 1725.88041179 -215 1733 C-233.97340944 1768.27252139 -233.97340944 1768.27252139 -241 1780 C-243.36558982 1777.63441018 -243.94264336 1775.79837684 -245.05859375 1772.65234375 C-245.44466797 1771.57146484 -245.83074219 1770.49058594 -246.22851562 1769.37695312 C-246.62748047 1768.24193359 -247.02644531 1767.10691406 -247.4375 1765.9375 C-247.83259766 1764.82955078 -248.22769531 1763.72160156 -248.63476562 1762.58007812 C-249.76830087 1759.39071356 -250.88724587 1756.19666711 -252 1753 C-252.47203857 1751.65832764 -252.47203857 1751.65832764 -252.95361328 1750.28955078 C-253.22802246 1749.49403809 -253.50243164 1748.69852539 -253.78515625 1747.87890625 C-254.14105835 1746.85325562 -254.14105835 1746.85325562 -254.50415039 1745.80688477 C-255 1744 -255 1744 -255 1741 C-255.66 1740.67 -256.32 1740.34 -257 1740 C-257.59008789 1738.23657227 -257.59008789 1738.23657227 -258.16015625 1735.75390625 C-259.59074382 1730.20671182 -261.38475662 1724.85504155 -263.30859375 1719.46484375 C-263.62849274 1718.56810944 -263.94839172 1717.67137512 -264.27798462 1716.74746704 C-264.96645665 1714.82316749 -265.65614721 1712.89930355 -266.34692383 1710.97583008 C-268.26124787 1705.64254987 -270.16056814 1700.30394244 -272.05859375 1694.96484375 C-272.45992523 1693.83605804 -272.86125671 1692.70727234 -273.27474976 1691.54428101 C-277.93988447 1678.39391203 -282.46835173 1665.19681919 -287 1652 C-294.11771836 1631.28686377 -301.34251838 1610.61556043 -308.68086243 1589.97964478 C-309.02594345 1589.00925262 -309.37102448 1588.03886047 -309.7265625 1587.0390625 C-310.07248947 1586.06649506 -310.41841644 1585.09392761 -310.77482605 1584.09188843 C-313.41651774 1576.65839986 -316.03666843 1569.21748761 -318.6484375 1561.7734375 C-319.04084625 1560.655065 -319.433255 1559.5366925 -319.83755493 1558.38442993 C-320.63623053 1556.10807294 -321.43490607 1553.83171592 -322.23358154 1551.55535889 C-329.45224252 1530.98702415 -336.76297553 1510.4541435 -344.16650391 1489.95166016 C-349.33017049 1475.65083785 -354.45521862 1461.33668218 -359.55966187 1447.01461792 C-394.46376494 1349.09727111 -429.92185797 1251.28816045 -468.64453125 1154.8046875 C-469.05268066 1153.78213867 -469.46083008 1152.75958984 -469.88134766 1151.70605469 C-470.8143416 1149.44911342 -471.82608684 1147.26814761 -472.88671875 1145.0703125 C-475.2581412 1138.53017901 -471.69670192 1132.39692125 -469.125 1126.35546875 C-468.72897583 1125.4106514 -468.33295166 1124.46583405 -467.92492676 1123.49238586 C-466.6224169 1120.38828436 -465.31113457 1117.28796714 -464 1114.1875 C-463.08457474 1112.00941357 -462.16987 1109.83102419 -461.25585938 1107.65234375 C-459.39421434 1103.21566837 -457.52997942 1098.78009515 -455.6640625 1094.34521484 C-452.25216803 1086.2280749 -448.88133226 1078.09411136 -445.51644897 1069.95739746 C-443.79042976 1065.78452175 -442.06138715 1061.61290005 -440.33203125 1057.44140625 C-439.80903191 1056.17984207 -439.80903191 1056.17984207 -439.27546692 1054.89279175 C-432.38982039 1038.28973886 -425.46517707 1021.70286807 -418.54833984 1005.11279297 C-414.77974449 996.07346008 -411.01343858 987.0331733 -407.24697876 977.99295044 C-405.16474808 972.99526047 -403.08236633 967.99763345 -401 963 C-400.16666594 961.0000003 -399.33333261 959.0000003 -398.5 957 C-390.16666667 937 -381.83333333 917 -373.5 897 C-373.08751511 896.01003525 -372.67503021 895.0200705 -372.25004578 894.00010681 C-371.41656274 891.99974957 -370.58307682 889.99939353 -369.74958801 887.9990387 C-367.66852139 883.00451436 -365.5875047 878.00996924 -363.5065918 873.01538086 C-359.72959531 863.95000701 -355.95221192 854.88479528 -352.17300415 845.82034302 C-343.93186329 826.05384086 -335.69661414 806.28501396 -327.5 786.5 C-318.87947143 765.69173998 -310.2157262 744.90157056 -301.54833984 724.11279297 C-297.77974449 715.07346008 -294.01343858 706.0331733 -290.24697876 696.99295044 C-288.16474808 691.99526047 -286.08236633 686.99763345 -284 682 C-283.16666594 680.0000003 -282.33333261 678.0000003 -281.5 676 C-266.47314453 639.93554688 -251.44628906 603.87109375 -236.41943359 567.80664062 C-235.77706505 566.26495461 -235.77706505 566.26495461 -235.12171936 564.69212341 C-234.25863428 562.62072125 -233.39554632 560.54932028 -232.53245544 558.47792053 C-230.40657894 553.37585221 -228.28075082 548.27376375 -226.1550293 543.17163086 C-222.44037777 534.2558939 -218.72528909 525.34034069 -215.0078125 516.42578125 C-208.59268598 501.04073987 -202.19306826 485.649408 -195.8125 470.25 C-187.08723699 449.19197596 -178.31994791 428.15154616 -169.54833984 407.11279297 C-165.77974449 398.07346008 -162.01343858 389.0331733 -158.24697876 379.99295044 C-156.16474808 374.99526047 -154.08236633 369.99763345 -152 365 C-151.16666594 363.0000003 -150.33333261 361.0000003 -149.5 359 C-141.16666667 339 -132.83333333 319 -124.5 299 C-124.08751511 298.01003525 -123.67503021 297.0200705 -123.25004578 296.00010681 C-122.41656274 293.99974957 -121.58307682 291.99939353 -120.74958801 289.9990387 C-118.66852139 285.00451436 -116.5875047 280.00996924 -114.5065918 275.01538086 C-110.72959531 265.95000701 -106.95221192 256.88479528 -103.17300415 247.82034302 C-94.93186329 228.05384086 -86.69661414 208.28501396 -78.5 188.5 C-69.87947143 167.69173998 -61.2157262 146.90157056 -52.54833984 126.11279297 C-48.77882851 117.07126301 -45.01160752 108.02877877 -41.24423218 98.98635864 C-39.17593732 94.02211616 -37.10749246 89.05793619 -35.0390625 84.09375 C-34.20735605 82.09765655 -33.37565032 80.1015628 -32.54394531 78.10546875 C-21.69596354 52.0703125 -10.84798177 26.03515625 0 0 Z M699 42 C700 44 700 44 700 44 Z M698 44 C699 46 699 46 699 46 Z M697 46 C698 48 698 48 698 48 Z M696 48 C697 50 697 50 697 50 Z M695 50 C696 52 696 52 696 52 Z M694 52 C695 54 695 54 695 54 Z M719 107 C720 109 720 109 720 109 Z M718 131 C718 134.3 718 137.6 718 141 C718.33 141 718.66 141 719 141 C719 137.7 719 134.4 719 131 C718.67 131 718.34 131 718 131 Z M717 152 C717 157.28 717 162.56 717 168 C717.33 168 717.66 168 718 168 C718 162.72 718 157.44 718 152 C717.67 152 717.34 152 717 152 Z M716 171 C715.9529039 171.75164932 715.9058078 172.50329865 715.85728455 173.27772522 C710.77437189 254.07475529 703.73182929 334.65387426 524 1252 C523.79240555 1252.75714294 523.5848111 1253.51428589 523.3709259 1254.29437256 C501.39576917 1334.41244712 478.06524735 1414.11896151 403.28442383 1650.11743164 C402.07802029 1653.76331685 400.87376516 1657.40990917 399.66992188 1661.05664062 C391.36217788 1686.21424585 382.85674867 1711.29369279 374.06230164 1736.28538513 C371.46736384 1743.66101327 368.89037329 1751.04281211 366.31640625 1758.42578125 C329.65356433 1863.50238193 290.73043854 1968.02819391 238.88299561 2087.99047852 C238.03936629 2089.9104102 237.19754315 2091.83112516 236.35595703 2093.75195312 C203.44413795 2168.68081945 203.44413795 2168.68081945 186 2193 C186.33 2193.66 186.66 2194.32 187 2195 C195.0776904 2187.17473742 201.78362253 2178.78844499 207.9375 2169.375 C208.63915283 2168.31031494 209.34080566 2167.24562988 210.0637207 2166.14868164 C215.26375937 2158.21824629 220.28109889 2150.22437051 225 2142 C225.44279297 2141.23623047 225.88558594 2140.47246094 226.34179688 2139.68554688 C246.41784294 2105.00384046 264.67799445 2069.19128911 281.352005 2032.75920105 C283.5667008 2027.92609732 285.81729072 2023.11037557 288.07421875 2018.296875 C299.46541667 1993.95110759 310.14237434 1969.32721922 320.63183594 1944.58105469 C322.71533919 1939.66666594 324.81191475 1934.75799854 326.9140625 1929.8515625 C335.54778705 1909.67745312 343.85033484 1889.37416291 352 1869 C352.30808594 1868.22978516 352.61617187 1867.45957031 352.93359375 1866.66601562 C363.2374283 1840.88478254 373.20884164 1814.97994179 383 1789 C383.3239978 1788.14079956 383.64799561 1787.28159912 383.98181152 1786.3963623 C416.42727574 1700.31282579 446.59828865 1613.22925694 480.92559814 1502.48883057 C482.26498649 1498.13952776 483.61339974 1493.79305831 484.96255493 1489.44677734 C510.31284257 1407.74632769 533.48122797 1325.30491341 567.20654297 1192.27539062 C568.62942179 1186.49510684 570.06525273 1180.71817171 571.50759888 1174.94271851 C586.07540335 1116.59289833 599.16691781 1057.89010259 611.56892395 999.04499054 C612.0017607 996.9916474 612.43511384 994.93841372 612.86853027 992.88519287 C628.11793127 920.60882592 641.77914191 848.01583301 685.72639465 557.23641205 C686.00357499 554.9707785 686.28166446 552.705258 686.55993652 550.4397583 C696.87735239 466.37758724 705.17853844 382.03366197 715 232 C715.06896484 230.80985291 715.13792969 229.61970581 715.20898438 228.39349365 C716.86791808 199.71711112 716.86791808 199.71711112 717 171 C716.67 171 716.34 171 716 171 Z " fill="#109599" transform="translate(1679,66)"/>
<path d="M0 0 C2.13870862 2.85161149 3.72036409 5.17518866 5.30566406 8.27661133 C5.73805389 9.11833389 6.17044373 9.96005646 6.61593628 10.82728577 C7.07783356 11.73635178 7.53973083 12.64541779 8.015625 13.58203125 C8.74774704 15.01312477 8.74774704 15.01312477 9.49465942 16.47312927 C11.08406966 19.58408201 12.66733056 22.6981132 14.25 25.8125 C15.05984344 27.40124939 15.05984344 27.40124939 15.88604736 29.02209473 C23.09434817 43.16461442 30.20910696 57.34482764 37.00488281 71.69067383 C40.02325775 78.03830327 43.17737349 84.27931181 46.4765625 90.484375 C50.8391322 98.69812153 55.03735674 106.98993209 59.1875 115.3125 C59.50331654 115.94561852 59.81913307 116.57873703 60.14451981 117.23104095 C62.76300373 122.48198307 65.37627259 127.73551659 67.98937988 132.98913574 C70.26138419 137.55643976 72.53532735 142.12277042 74.8125 146.6875 C75.28373039 147.63224182 75.28373039 147.63224182 75.76448059 148.59606934 C80.35812387 157.79778845 85.06980727 166.92922318 89.89453125 176.01171875 C93.39504948 182.61157222 96.68224713 189.31678421 99.98828125 196.015625 C103.12622677 202.33918103 106.35579472 208.60381159 109.65625 214.84375 C116.08622357 227.00343945 122.3052751 239.26971863 128.54101562 251.52978516 C134.10128218 262.45779316 139.68979814 273.36686959 145.42016602 284.20678711 C149.29620221 291.54292889 153.09164859 298.91925691 156.87463379 306.30371094 C162.3247327 316.94024197 167.78382904 327.57065745 173.37939453 338.1315918 C176.30985117 343.66794105 179.1884631 349.23003566 182.06054688 354.796875 C186.85645543 364.08927047 191.69376171 373.34640476 196.75 382.5 C202.44979093 392.82563766 207.81487889 403.31452562 213.18341064 413.8145752 C218.16213691 423.54716373 223.23019033 433.21105626 228.5234375 442.77734375 C232.83528355 450.60737187 236.92127998 458.54702743 241 466.5 C246.08131644 476.40700673 251.25597684 486.24512962 256.6328125 495.99609375 C260.36178718 502.7769664 263.94869884 509.6246012 267.5 516.5 C271.47677869 524.19504332 275.51414258 531.84723305 279.6875 539.4375 C284.84786625 548.82410338 289.87390518 558.27797051 294.875 567.75 C301.95772837 581.16129185 309.10432326 594.53553874 316.31445312 607.87890625 C319.21496801 613.24973218 322.10691196 618.62517107 325 624 C326.16404305 626.16146881 327.32810554 628.32292715 328.4921875 630.484375 C330.85319524 634.86891533 333.21237893 639.25443072 335.5703125 643.640625 C341.50100725 654.66963629 347.45390442 665.68549042 353.46142578 676.67285156 C357.33640172 683.76650583 361.17267129 690.88054203 365 698 C374.21783413 715.13944955 383.55403262 732.21141731 392.97006226 749.24264526 C397.5876892 757.59615705 402.15998331 765.97218328 406.6875 774.375 C410.82598409 782.05360259 415.05598148 789.67155518 419.375 797.25 C424.55996624 806.34943886 429.53743605 815.55076454 434.45544434 824.79614258 C439.24564727 833.79532326 444.17658376 842.70265542 449.2265625 851.55859375 C453.07646966 858.32423943 456.8115515 865.14513144 460.5 872 C465.20144947 880.73266986 470.01736692 889.39071069 474.91845703 898.01269531 C479.29654319 905.72615584 483.59779823 913.48035582 487.875 921.25 C488.55427714 922.48364448 489.23355774 923.71728706 489.9128418 924.95092773 C490.24950363 925.56234116 490.58616547 926.17375458 490.93302917 926.80369568 C491.2696608 927.4150386 491.60629242 928.02638153 491.953125 928.65625 C492.28987747 929.26787491 492.62662994 929.87949982 492.97358704 930.50965881 C502.98501489 948.68625978 513.11213328 966.79872526 523.26171875 984.8984375 C525.01990823 988.03552164 526.77591344 991.17381873 528.53125 994.3125 C537.51478482 1010.37367054 546.55919291 1026.39973275 555.6328125 1042.41015625 C556.22763428 1043.46058105 556.82245605 1044.51100586 557.43530273 1045.59326172 C558.57717021 1047.60970708 559.7198702 1049.62568131 560.86352539 1051.64111328 C561.3764917 1052.54716309 561.88945801 1053.45321289 562.41796875 1054.38671875 C562.86938232 1055.18295654 563.3207959 1055.97919434 563.78588867 1056.79956055 C564.18654541 1057.52570557 564.58720215 1058.25185059 565 1059 C565.64509521 1059.88860718 565.64509521 1059.88860718 566.30322266 1060.79516602 C567.44020957 1064.39296869 565.93575857 1067.46786547 564.73046875 1070.890625 C564.46355728 1071.68559387 564.19664581 1072.48056274 563.92164612 1073.29962158 C563.02523047 1075.95509416 562.10677622 1078.60236218 561.1875 1081.25 C560.54430647 1083.13574704 559.90207317 1085.02182183 559.26074219 1086.90820312 C557.1994665 1092.94778829 555.103608 1098.97504813 553 1105 C552.65978821 1105.97557861 552.31957642 1106.95115723 551.96905518 1107.95629883 C547.07933479 1121.96641198 542.10455321 1135.94561457 537.10284424 1149.91607666 C536.00338835 1152.99052505 534.90714225 1156.06609831 533.81201172 1159.14208984 C511.1181575 1222.87373866 487.01402142 1286.11053682 461.01116943 1348.56939697 C459.95432556 1351.10979014 458.90002118 1353.65122621 457.84619141 1356.19287109 C429.90671433 1423.55147561 400.20309526 1490.26167762 368.42578125 1555.90234375 C366.01732615 1560.87934383 363.63027295 1565.86620354 361.24954224 1570.85652161 C354.88611084 1584.19069936 348.43828426 1597.48227782 341.9375 1610.75 C341.39508667 1611.85728455 340.85267334 1612.96456909 340.29382324 1614.10540771 C331.8554233 1631.3168689 323.24259834 1648.42440939 314.40122986 1665.43180847 C311.45709429 1671.10123463 308.54878873 1676.78853707 305.6484375 1682.48046875 C289.51241612 1714.135896 289.51241612 1714.135896 282.18212891 1727.36645508 C278.32311052 1734.34428328 274.65121052 1741.41151322 271 1748.5 C265.32749129 1759.50355192 259.47674245 1770.39367622 253.51074219 1781.24023438 C251.38791969 1785.11812472 249.29390381 1789.01134257 247.19750977 1792.90356445 C241.87075391 1802.78792985 236.42845381 1812.59642866 230.87524414 1822.35522461 C226.99562563 1829.19074295 223.22484614 1836.07907138 219.5 1843 C214.22759849 1852.79092476 208.80730917 1862.48870956 203.3125 1872.15625 C200.45505197 1877.18563003 197.63329146 1882.23422054 194.81811523 1887.28735352 C189.08016419 1897.58310964 183.22729253 1907.80097596 177.2590332 1917.96484375 C172.99824224 1925.23939402 168.85191351 1932.57233346 164.75 1939.9375 C160.54554979 1947.48479029 156.29459577 1954.99330056 151.88427734 1962.42211914 C148.15652403 1968.70662337 144.51582127 1975.03982127 140.875 1981.375 C134.96976307 1991.63907835 128.96924372 2001.84303284 122.91821289 2012.02172852 C118.51492571 2019.43206015 114.1480399 2026.86234115 109.8125 2034.3125 C103.25809972 2045.57140128 96.64389029 2056.79370771 90 2068 C89.27423267 2069.22476109 88.54848491 2070.44953379 87.82275391 2071.67431641 C79.15310409 2086.30398474 70.46392462 2100.92115353 61.69921875 2115.49414062 C58.26388222 2121.21115589 54.84516721 2126.93761926 51.4453125 2132.67578125 C51.05213837 2133.33935135 50.65896423 2134.00292145 50.25387573 2134.68659973 C48.64254533 2137.40646346 47.03135009 2140.1264072 45.42034912 2142.84646606 C38.86673424 2153.90708458 32.23043247 2164.91512136 25.51806641 2175.88012695 C21.87321802 2181.84920694 18.32671467 2187.84725007 15 2194 C23.09329549 2183.06510531 31.1416722 2172.10509019 39 2161 C39.43957031 2160.38044434 39.87914062 2159.76088867 40.33203125 2159.12255859 C49.30580219 2146.47396526 58.16509897 2133.74586182 67 2121 C67.47727539 2120.31180176 67.95455078 2119.62360352 68.44628906 2118.91455078 C75.22036491 2109.13580285 81.88798153 2099.28431146 88.5625 2089.4375 C89.00403412 2088.7863623 89.44556824 2088.13522461 89.90048218 2087.46435547 C99.70603124 2073.0002078 109.38355209 2058.45439095 118.97680664 2043.84863281 C120.43229224 2041.63292785 121.88895004 2039.41799678 123.34570312 2037.203125 C132.30554042 2023.5722865 141.19398932 2009.89579639 149.9375 1996.125 C150.52539307 1995.19993652 151.11328613 1994.27487305 151.71899414 1993.32177734 C153.48052417 1990.54860748 155.24063274 1987.7745424 157 1985 C157.51175781 1984.19304687 158.02351562 1983.38609375 158.55078125 1982.5546875 C162.04405784 1977.04286851 165.52603857 1971.52401186 169 1966 C169.57862793 1965.07993164 170.15725586 1964.15986328 170.75341797 1963.21191406 C179.33037803 1949.56084176 187.7924998 1935.84500237 196.14599609 1922.05615234 C198.08880529 1918.85361277 200.03795723 1915.65499937 201.98828125 1912.45703125 C223.21258414 1877.62893953 243.84098718 1842.45492357 264 1807 C264.57105469 1805.99582031 265.14210938 1804.99164062 265.73046875 1803.95703125 C278.00765151 1782.34802311 290.08738288 1760.6315199 301.88671875 1738.7578125 C303.91737416 1734.99499728 305.9609554 1731.23979973 308.01953125 1727.4921875 C315.04067243 1714.70749146 321.81758373 1701.80907714 328.51855469 1688.85400391 C330.57525248 1684.89177629 332.66205376 1680.94581576 334.75 1677 C346.38916009 1654.92597804 357.70412283 1632.68914376 368.875 1610.375 C369.34892181 1609.42974457 369.82284363 1608.48448914 370.31112671 1607.5105896 C377.3727338 1593.4178682 384.2440524 1579.24162351 391 1565 C391.36057495 1564.24104431 391.7211499 1563.48208862 392.09265137 1562.70013428 C408.64025538 1527.86448892 424.57824924 1492.77662503 439.95306396 1457.40771484 C440.94488443 1455.12675329 441.93832948 1452.84650612 442.93212891 1450.56640625 C459.60895174 1412.26852914 475.33775603 1373.55453894 490.06958008 1334.46765137 C491.02838442 1331.9247191 491.98966379 1329.38273138 492.95117188 1326.84082031 C502.73954352 1300.93729125 512.12024715 1274.90575489 521.07611084 1248.70269775 C521.68990811 1246.90712684 522.30452651 1245.1118364 522.91998291 1243.3168335 C539.31069889 1195.51066932 553.69103147 1147.16776892 566.74942017 1098.35061646 C568.75222498 1090.87625465 570.8279247 1083.42698924 573 1076 C573.66 1076 574.32 1076 575 1076 C575.54974487 1076.98673706 575.54974487 1076.98673706 576.1105957 1077.9934082 C577.84297281 1081.10066205 579.57774077 1084.20657549 581.3125 1087.3125 C581.88806641 1088.34568359 582.46363281 1089.37886719 583.05664062 1090.44335938 C583.95092773 1092.0434082 583.95092773 1092.0434082 584.86328125 1093.67578125 C585.46607169 1094.79692308 586.06886212 1095.91806491 586.68991894 1097.07318074 C588.18922064 1099.75149482 589.82444958 1102.0942756 591.76277548 1104.47088999 C603.49931378 1119.86364795 601.53866832 1138.51842657 601.36973357 1156.88579832 C601.33529749 1161.96748516 601.36524241 1167.04887975 601.38674933 1172.1305818 C601.41561922 1181.02378366 601.40388387 1189.91620116 601.36509323 1198.80935478 C601.30757211 1212.03336444 601.31337352 1225.25682548 601.33172038 1238.48092053 C601.36072802 1260.73152898 601.33821657 1282.98184385 601.28529167 1305.23237801 C601.23299386 1327.26349594 601.20183568 1349.29446885 601.19940376 1371.32565117 C601.19922679 1372.71061315 601.19904938 1374.09557513 601.19887153 1375.4805371 C601.19820173 1381.04635447 601.1977107 1386.61217183 601.19743293 1392.17798923 C601.1966254 1407.7348154 601.19219337 1423.29163944 601.1851511 1438.84846401 C601.18483246 1439.55678815 601.18451382 1440.26511228 601.18418553 1440.99490079 C601.1680033 1476.16964624 601.1074072 1511.34430313 601.0456373 1546.5189925 C600.96294896 1593.64215532 600.91579364 1640.76519285 600.90600586 1687.88842773 C600.90568908 1689.37860933 600.90537137 1690.86879092 600.90505272 1692.35897252 C600.90410093 1696.82210954 600.90316464 1701.28524656 600.9022302 1705.74838358 C600.90114287 1710.93686727 600.90004633 1716.12535096 600.89893244 1721.31383464 C600.8986172 1722.79221479 600.89830594 1724.27059494 600.89799867 1725.74897509 C600.88834321 1772.17328442 600.84942986 1818.59756921 600.80376662 1865.02185554 C600.78885873 1880.18124598 600.77565264 1895.34063389 600.76782298 1910.5000298 C600.7671023 1911.87917695 600.76638093 1913.25832409 600.76565886 1914.63747124 C600.76530263 1915.3191263 600.76494639 1916.00078137 600.76457935 1916.70309265 C600.75050075 1943.61210226 600.72462728 1970.52103637 600.66865068 1997.43000007 C600.6440195 2009.41488804 600.62546902 2021.39970312 600.62486267 2033.38461876 C600.62435653 2043.31781251 600.61070281 2053.25087036 600.57889309 2063.18401548 C600.56325867 2068.18668238 600.55391746 2073.18914389 600.56199931 2078.1918335 C600.5692023 2082.74273573 600.55803876 2087.29320917 600.5322145 2091.84404046 C600.52613463 2093.48012351 600.52672606 2095.11624845 600.53481293 2096.75232281 C600.59463959 2110.04669379 598.77244879 2118.88212647 589.41015625 2128.625 C588.61480469 2129.40875 587.81945312 2130.1925 587 2131 C586.29746094 2131.70125 585.59492187 2132.4025 584.87109375 2133.125 C522.66722553 2191.77763449 392.15523912 2196.42899793 163 2214 C161.71550964 2214.05327454 160.43101929 2214.10654907 159.10760498 2214.16143799 C106.04214276 2216.33575373 53.15343006 2216 0 2216 C0 1484.72 0 753.44 0 0 Z M13 2195 C14 2197 14 2197 14 2197 Z " fill="#098C8F" transform="translate(0,67)"/>
<path d="M0 0 C0.33 0 0.66 0 1 0 C1 703.23 1 1406.46 1 2131 C-177.2 2131 -355.4 2131 -539 2131 C-535.34690184 2126.73805215 -531.91515427 2122.91515427 -528 2119 C-522.29573535 2112.95790368 -517.67823644 2106.37229446 -513.125 2099.4375 C-512.06575317 2097.83370483 -512.06575317 2097.83370483 -510.98510742 2096.19750977 C-505.7638622 2088.2523978 -500.7307372 2080.24499912 -496 2072 C-495.55720703 2071.23623047 -495.11441406 2070.47246094 -494.65820312 2069.68554688 C-474.58215706 2035.00384046 -456.32200555 1999.19128911 -439.647995 1962.75920105 C-437.4332992 1957.92609732 -435.18270928 1953.11037557 -432.92578125 1948.296875 C-421.53458333 1923.95110759 -410.85762566 1899.32721922 -400.36816406 1874.58105469 C-398.28466081 1869.66666594 -396.18808525 1864.75799854 -394.0859375 1859.8515625 C-385.45221295 1839.67745312 -377.14966516 1819.37416291 -369 1799 C-368.69191406 1798.22978516 -368.38382813 1797.45957031 -368.06640625 1796.66601562 C-357.7625717 1770.88478254 -347.79115836 1744.97994179 -338 1719 C-337.6760022 1718.14079956 -337.35200439 1717.28159912 -337.01818848 1716.3963623 C-304.57272426 1630.31282579 -274.40171135 1543.22925694 -240.07440186 1432.48883057 C-238.73501351 1428.13952776 -237.38660026 1423.79305831 -236.03744507 1419.44677734 C-210.68715743 1337.74632769 -187.51877203 1255.30491341 -153.79345703 1122.27539062 C-152.37057821 1116.49510684 -150.93474727 1110.71817171 -149.49240112 1104.94271851 C-134.92459665 1046.59289833 -121.83308219 987.89010259 -109.43107605 929.04499054 C-108.9982393 926.9916474 -108.56488616 924.93841372 -108.13146973 922.88519287 C-92.88206873 850.60882592 -79.22085809 778.01583301 -35.27360535 487.23641205 C-34.99642501 484.9707785 -34.71833554 482.705258 -34.44006348 480.4397583 C-24.14218676 396.53678441 -15.92877925 312.36543978 -6 162 C-5.96119217 161.3110968 -5.92238434 160.6221936 -5.88240051 159.91241455 C-2.88733205 106.65021372 -1.51873585 53.32021656 0 0 Z " fill="#1C989C" transform="translate(2399,136)"/>
<path d="M0 0 C0.66 0 1.32 0 2 0 C2.54974487 0.98673706 2.54974487 0.98673706 3.1105957 1.9934082 C4.84297281 5.10066205 6.57774077 8.20657549 8.3125 11.3125 C8.88806641 12.34568359 9.46363281 13.37886719 10.05664062 14.44335938 C10.65283203 15.51005859 11.24902344 16.57675781 11.86328125 17.67578125 C12.46607169 18.79692308 13.06886212 19.91806491 13.68991894 21.07318074 C15.18922064 23.75149482 16.82444958 26.0942756 18.76277548 28.47088999 C30.49931378 43.86364795 28.53866832 62.51842657 28.36973357 80.88579832 C28.33529749 85.96748516 28.36524241 91.04887975 28.38674933 96.1305818 C28.41561922 105.02378366 28.40388387 113.91620116 28.36509323 122.80935478 C28.30757211 136.03336444 28.31337352 149.25682548 28.33172038 162.48092053 C28.36072802 184.73152898 28.33821657 206.98184385 28.28529167 229.23237801 C28.23299386 251.26349594 28.20183568 273.29446885 28.19940376 295.32565117 C28.19922679 296.71061315 28.19904938 298.09557513 28.19887153 299.4805371 C28.19820173 305.04635447 28.1977107 310.61217183 28.19743293 316.17798923 C28.1966254 331.7348154 28.19219337 347.29163944 28.1851511 362.84846401 C28.18483246 363.55678815 28.18451382 364.26511228 28.18418553 364.99490079 C28.1680033 400.16964624 28.1074072 435.34430313 28.0456373 470.5189925 C27.96294896 517.64215532 27.91579364 564.76519285 27.90600586 611.88842773 C27.90568908 613.37860933 27.90537137 614.86879092 27.90505272 616.35897252 C27.90410093 620.82210954 27.90316464 625.28524656 27.9022302 629.74838358 C27.90114287 634.93686727 27.90004633 640.12535096 27.89893244 645.31383464 C27.8986172 646.79221479 27.89830594 648.27059494 27.89799867 649.74897509 C27.88834321 696.17328442 27.84942986 742.59756921 27.80376662 789.02185554 C27.78885873 804.18124598 27.77565264 819.34063389 27.76782298 834.5000298 C27.7671023 835.87917695 27.76638093 837.25832409 27.76565886 838.63747124 C27.76530263 839.3191263 27.76494639 840.00078137 27.76457935 840.70309265 C27.75050075 867.61210226 27.72462728 894.52103637 27.66865068 921.43000007 C27.6440195 933.41488804 27.62546902 945.39970312 27.62486267 957.38461876 C27.62435653 967.31781251 27.61070281 977.25087036 27.57889309 987.18401548 C27.56325867 992.18668238 27.55391746 997.18914389 27.56199931 1002.1918335 C27.5692023 1006.74273573 27.55803876 1011.29320917 27.5322145 1015.84404046 C27.52613463 1017.48012351 27.52672606 1019.11624845 27.53481293 1020.75232281 C27.59463959 1034.04669379 25.77244879 1042.88212647 16.41015625 1052.625 C15.61480469 1053.40875 14.81945312 1054.1925 14 1055 C13.29746094 1055.70125 12.59492187 1056.4025 11.87109375 1057.125 C-50.33277447 1115.77763449 -180.84476088 1120.42899793 -410 1138 C-411.28449036 1138.05327454 -412.56898071 1138.10654907 -413.89239502 1138.16143799 C-466.91930773 1140.33417419 -519.93684694 1140.22678319 -573 1140 C-571.90351342 1138.26140444 -570.8049628 1136.52411053 -569.70556641 1134.78735352 C-568.78827255 1133.33595726 -568.78827255 1133.33595726 -567.85244751 1131.85523987 C-565.19211528 1127.75478001 -562.30807394 1123.84516326 -559.375 1119.9375 C-558.14513728 1118.28306929 -556.91598756 1116.62810834 -555.6875 1114.97265625 C-555.07261719 1114.14523926 -554.45773437 1113.31782227 -553.82421875 1112.46533203 C-545.19284012 1100.80049512 -536.81265172 1088.95208027 -528.46630859 1077.08251953 C-527.02888937 1075.04103003 -525.5875005 1073.00241328 -524.14453125 1070.96484375 C-521.08837315 1066.64883185 -518.04303861 1062.32526853 -515 1058 C-514.14293457 1056.78425293 -514.14293457 1056.78425293 -513.26855469 1055.54394531 C-503.57699186 1041.7788893 -494.16709772 1027.84286825 -484.88916016 1013.796875 C-480.16989515 1006.66591412 -475.35163694 999.63306132 -470.35015869 992.69685364 C-467.51682203 988.75705052 -464.88235148 984.77810342 -462.375 980.625 C-458.10612061 973.65610054 -453.61116753 966.85152432 -449.0625 960.0625 C-437.77735689 943.20813352 -426.86199915 926.12949751 -416 909 C-415.48824219 908.19304688 -414.97648438 907.38609375 -414.44921875 906.5546875 C-410.95594216 901.04286851 -407.47396143 895.52401186 -404 890 C-403.13205811 888.61989746 -403.13205811 888.61989746 -402.24658203 887.21191406 C-393.66962197 873.56084176 -385.2075002 859.84500237 -376.85400391 846.05615234 C-374.91119471 842.85361277 -372.96204277 839.65499937 -371.01171875 836.45703125 C-349.78741586 801.62893953 -329.15901282 766.45492357 -309 731 C-308.42894531 729.99582031 -307.85789062 728.99164062 -307.26953125 727.95703125 C-294.99234849 706.34802311 -282.91261712 684.6315199 -271.11328125 662.7578125 C-269.08262584 658.99499728 -267.0390446 655.23979973 -264.98046875 651.4921875 C-257.95932757 638.70749146 -251.18241627 625.80907714 -244.48144531 612.85400391 C-242.42474752 608.89177629 -240.33794624 604.94581576 -238.25 601 C-226.61083991 578.92597804 -215.29587717 556.68914376 -204.125 534.375 C-203.65107819 533.42974457 -203.17715637 532.48448914 -202.68887329 531.5105896 C-195.6272662 517.4178682 -188.7559476 503.24162351 -182 489 C-181.63942505 488.24104431 -181.2788501 487.48208862 -180.90734863 486.70013428 C-164.35974462 451.86448892 -148.42175076 416.77662503 -133.04693604 381.40771484 C-132.05511557 379.12675329 -131.06167052 376.84650612 -130.06787109 374.56640625 C-113.39104826 336.26852914 -97.66224397 297.55453894 -82.93041992 258.46765137 C-81.97161558 255.9247191 -81.01033621 253.38273138 -80.04882812 250.84082031 C-70.26045648 224.93729125 -60.87975285 198.90575489 -51.92388916 172.70269775 C-51.31009189 170.90712684 -50.69547349 169.1118364 -50.08001709 167.3168335 C-33.68930111 119.51066932 -19.30896853 71.16776892 -6.25057983 22.35061646 C-4.24777502 14.87625465 -2.1720753 7.42698924 0 0 Z " fill="#128289" transform="translate(573,1143)"/>
<path d="M0 0 C0.33 0 0.66 0 1 0 C1 379.17 1 758.34 1 1149 C-0.73936557 1146.39095165 -1.92547232 1144.06572542 -3.16381836 1141.20678711 C-3.58863998 1140.22983383 -4.01346161 1139.25288055 -4.45115662 1138.24632263 C-4.90942337 1137.1840596 -5.36769012 1136.12179657 -5.83984375 1135.02734375 C-6.32143448 1133.91686172 -6.80302521 1132.8063797 -7.29920959 1131.6622467 C-8.32528212 1129.2947153 -9.34993415 1126.92656784 -10.37329102 1124.55786133 C-11.89749946 1121.03008123 -13.42584869 1117.50412163 -14.95507812 1113.97851562 C-15.95858622 1111.66156785 -16.96184792 1109.34451333 -17.96484375 1107.02734375 C-18.40489243 1106.01163803 -18.8449411 1104.99593231 -19.29832458 1103.94944763 C-20.24210298 1101.76394332 -21.16510454 1099.56938597 -22.07056224 1097.36772907 C-23.44050443 1094.14023915 -25.01311752 1091.08631266 -26.68028653 1088.00280964 C-36.67269922 1068.53290031 -36.60091285 1050.20621045 -36.46275399 1028.76586254 C-36.44183596 1023.60988727 -36.48514765 1018.45434916 -36.51975739 1013.29850209 C-36.5715281 1004.28532987 -36.58291135 995.27282762 -36.56696701 986.25953102 C-36.54331776 972.85581276 -36.58265956 959.45277843 -36.63358894 946.04916259 C-36.7248723 921.40783081 -36.74712504 896.76683581 -36.74267711 872.12538888 C-36.7420558 868.64063042 -36.74150665 865.15587197 -36.74103308 861.67111349 C-36.74088592 860.6326936 -36.74088592 860.6326936 -36.74073578 859.57329553 C-36.73895829 844.19332089 -36.75775358 828.81339179 -36.7803905 813.43343631 C-36.78555396 809.91574921 -36.79056408 806.39806189 -36.79558871 802.88037459 C-36.79658778 802.18179849 -36.79758685 801.48322238 -36.79861619 800.76347731 C-36.80063721 799.3502182 -36.80265687 797.9369591 -36.80467519 796.52369999 C-36.80669909 795.10792664 -36.80872809 793.69215329 -36.81076218 792.27637995 C-36.86835362 752.1345164 -36.90297629 711.99268781 -36.88787651 671.85078239 C-36.8876033 671.10836391 -36.88733009 670.36594542 -36.8870486 669.6010294 C-36.88399754 661.3233596 -36.88066503 653.04568992 -36.87725542 644.76802026 C-36.87632628 642.50268294 -36.87539753 640.23734563 -36.87446923 637.97200832 C-36.87384644 636.46053707 -36.87321791 634.94906583 -36.87258364 633.43759458 C-36.85257939 585.65048423 -36.91178724 537.86409211 -37.03759766 490.07714844 C-37.06927281 478.03572709 -37.10066311 465.99430519 -37.13043022 453.95287895 C-37.13226456 453.211308 -37.13409889 452.46973704 -37.13598882 451.70569424 C-37.19223122 428.82748619 -37.22505234 405.9493376 -37.23384285 383.07106209 C-37.23426113 381.99268385 -37.23426113 381.99268385 -37.23468786 380.89252018 C-37.24057824 365.10598405 -37.24076376 349.31945214 -37.23571683 333.53291585 C-37.23395776 327.88346279 -37.23260208 322.23400963 -37.23143487 316.58455641 C-37.23113938 315.17928362 -37.23082155 313.77401083 -37.23048129 312.36873805 C-37.22526771 290.03881118 -37.27494483 267.70943763 -37.35226225 245.37965734 C-37.43190687 222.24597443 -37.44104269 199.11318696 -37.37117134 175.97938161 C-37.33292593 162.66324232 -37.34653731 149.3496028 -37.43664858 136.03370009 C-37.49166628 127.1175751 -37.47648231 118.20327586 -37.40637029 109.28726334 C-37.36843582 104.22013544 -37.35878292 99.15783498 -37.43524705 94.09103189 C-37.80190354 68.06736586 -33.78822748 50.78835871 -18.48082043 29.53623141 C-14.24028557 23.59765028 -10.61101425 17.2618846 -6.875 11 C-5.56631872 8.85014791 -4.24847905 6.70618437 -2.9296875 4.5625 C-2.11346924 3.23412109 -2.11346924 3.23412109 -1.28076172 1.87890625 C-0.85811035 1.25886719 -0.43545898 0.63882812 0 0 Z " fill="#10777E" transform="translate(1855,1114)"/>
</svg>
