<?xml version="1.0" encoding="UTF-8"?>
<svg version="1.1" xmlns="http://www.w3.org/2000/svg" width="1024" height="1024">
<path d="M0 0 C1.10788879 0.00215515 2.21577759 0.0043103 3.35723877 0.00653076 C19.24106862 0.05615787 34.79001687 0.32873452 50.4375 3.3125 C51.54029297 3.51649414 52.64308594 3.72048828 53.77929688 3.93066406 C109.65645141 14.49412173 162.987203 39.03059932 204.32421875 78.60546875 C206.59687664 80.44123861 208.68547359 81.37266611 211.4375 82.3125 C211.86417969 81.93480469 212.29085937 81.55710937 212.73046875 81.16796875 C214.95807895 79.20675318 217.19678796 77.2587378 219.4375 75.3125 C220.39398437 74.47847656 221.35046875 73.64445312 222.3359375 72.78515625 C262.70833348 37.89064557 311.802074 14.44161 364.1875 4.5625 C365.76470825 4.26436401 365.76470825 4.26436401 367.3737793 3.96020508 C383.88110434 0.99709134 400.07796833 -0.0375053 416.83935547 -0.00317383 C420.03778571 -0.00002434 423.23527753 -0.0235382 426.43359375 -0.04882812 C445.09975065 -0.10622251 463.51438754 1.74471625 481.8125 5.5 C483.33810547 5.81191284 483.33810547 5.81191284 484.89453125 6.13012695 C529.4862003 15.66452988 571.92833521 35.79332828 607.4375 64.3125 C608.45199219 65.11429687 609.46648438 65.91609375 610.51171875 66.7421875 C626.838352 79.83144269 642.69616599 94.68286234 655.4375 111.3125 C656.46295416 112.62155419 657.48904538 113.93010947 658.515625 115.23828125 C688.69533957 153.92931368 708.70493796 198.40644293 718.1875 246.5625 C718.38633789 247.56659912 718.58517578 248.57069824 718.79003906 249.60522461 C721.59556435 264.56281289 722.7396837 279.39846659 722.66455078 294.59423828 C722.66393589 296.25847298 722.66420886 297.9227082 722.6652813 299.58694267 C722.66572674 303.98242098 722.6542651 308.37778699 722.64006042 312.77323914 C722.62854024 316.92101333 722.62812719 321.06876231 722.62670898 325.21655273 C722.61627805 337.29021629 722.58835558 349.36385963 722.5625 361.4375 C722.52125 388.45625 722.48 415.475 722.4375 443.3125 C661.3875 443.3125 600.3375 443.3125 537.4375 443.3125 C537.0625 374.6875 537.0625 374.6875 536.95947266 353.14599609 C536.91949291 346.68512689 536.91949291 346.68512689 536.87704468 340.22427368 C536.85843539 337.38191165 536.8449425 334.53957871 536.83480835 331.69717407 C536.69244793 293.52908053 534.56143667 257.43244993 508.4375 227.3125 C507.77363281 226.50425781 507.10976563 225.69601563 506.42578125 224.86328125 C486.53482404 201.44269023 457.24732352 189.38289256 427.1875 186.5 C394.60842039 184.89157905 364.21347076 196.51918793 340.13671875 218.25 C319.39715592 237.67775228 305.29369721 266.95551219 304.33154106 295.45056152 C304.27456964 299.32775396 304.24809892 303.20451459 304.23217773 307.08203125 C304.22244942 308.59486656 304.21230327 310.10769922 304.20177555 311.62052917 C304.17485118 315.65396482 304.153609 319.68741122 304.13358307 323.72088623 C304.11388564 327.51251457 304.08901135 331.30410224 304.0645752 335.09570312 C303.99620884 346.16793801 303.93610402 357.24022266 303.875 368.3125 C303.730625 393.0625 303.58625 417.8125 303.4375 443.3125 C242.0575 443.3125 180.6775 443.3125 117.4375 443.3125 C117.125 368.9375 117.125 368.9375 117.04956055 345.54541016 C117.0129508 338.5615583 117.0129508 338.5615583 116.9724884 331.57772827 C116.95471672 328.49267073 116.9449819 325.40770609 116.94038391 322.32260132 C116.86854248 280.57753569 109.30167706 247.22140286 79.00390625 216.875 C57.43194811 196.4719657 27.24487217 185.73244062 -2.29296875 186.37158203 C-28.94047404 187.65929136 -54.32608219 196.76084741 -74.5625 214.3125 C-75.37074219 214.97636719 -76.17898437 215.64023438 -77.01171875 216.32421875 C-98.77252092 234.80552797 -112.40752538 263.09787253 -114.82614022 291.3972649 C-115.53733093 301.22284546 -115.70650397 310.98861358 -115.69621277 320.83717346 C-115.69808537 322.55860711 -115.70038784 324.28004033 -115.70307809 326.00147289 C-115.70914707 330.6909719 -115.70906833 335.38045296 -115.70788372 340.06995499 C-115.70767846 345.14378194 -115.71321034 350.21760331 -115.71794128 355.29142761 C-115.72622149 365.21691971 -115.72899493 375.14240587 -115.72955366 385.06790114 C-115.73003008 393.14229829 -115.73209111 401.21669348 -115.73525429 409.29109001 C-115.74405376 432.22211106 -115.74867478 455.15312745 -115.74792381 478.0841502 C-115.74788386 479.31845339 -115.7478439 480.55275658 -115.74780273 481.82446289 C-115.74774141 483.67819832 -115.74774141 483.67819832 -115.74767885 485.56938296 C-115.74727261 505.58687395 -115.75683864 525.60434611 -115.7709411 545.62183166 C-115.78533272 566.21350007 -115.79220975 586.80515932 -115.79134732 607.39683288 C-115.79101631 618.94223733 -115.79372126 630.48762203 -115.80452538 642.03302193 C-115.81366713 651.8644035 -115.81577562 661.69575638 -115.80901595 671.52714039 C-115.80576918 676.53442406 -115.80562672 681.5416528 -115.8143692 686.54893112 C-115.88136148 727.57043838 -114.96321534 765.87615904 -86.5625 798.3125 C-85.95019531 799.06917969 -85.33789062 799.82585938 -84.70703125 800.60546875 C-67.60832574 821.20412251 -39.933217 834.42739004 -13.5625 837.3125 C-3.04914186 838.28238738 7.37707118 838.45715429 17.92457581 838.44621277 C19.65410869 838.44808487 21.38364115 838.45038715 23.11317295 838.45307809 C27.82966504 838.45915326 32.54613929 838.45906759 37.2626344 838.45788372 C42.36372657 838.45767862 47.46481317 838.46320885 52.56590271 838.46794128 C62.54667597 838.47622496 72.52744332 838.47899509 82.50821973 838.47955366 C90.62698577 838.48002993 98.74574987 838.48209018 106.8645153 838.48525429 C129.91718522 838.49405479 152.96985049 838.49867463 176.0225221 838.49792381 C177.2636274 838.49788386 178.50473271 838.4978439 179.78344727 838.49780273 C181.02607993 838.49776185 182.26871259 838.49772097 183.54900079 838.49767885 C203.67716183 838.4972726 223.80530414 838.50683852 243.93345977 838.5209411 C264.63470289 838.53532997 285.33593689 838.5422099 306.03718513 838.54134732 C317.64572977 838.54101621 329.25425477 838.54372557 340.86279488 838.55452538 C350.74802801 838.56366349 360.63323261 838.56577858 370.51846815 838.55901595 C375.55397459 838.55576734 380.58942639 838.55563353 385.62492752 838.5643692 C425.45350488 838.6290019 463.77426303 837.77497584 495.4375 810.3125 C496.24574219 809.64863281 497.05398438 808.98476563 497.88671875 808.30078125 C519.12942772 790.25948525 531.75743821 763.62243222 535.4375 736.3125 C536.0975 725.7525 536.7575 715.1925 537.4375 704.3125 C398.8375 704.3125 260.2375 704.3125 117.4375 704.3125 C117.4375 642.9325 117.4375 581.5525 117.4375 518.3125 C317.0875 518.3125 516.7375 518.3125 722.4375 518.3125 C722.4375 758.41072609 722.4375 758.41072609 717.25 783.6875 C717.04205811 784.70457031 716.83411621 785.72164062 716.61987305 786.76953125 C710.94192696 813.32484832 701.34381705 839.41564733 688.4375 863.3125 C688.045625 864.04549316 687.65375 864.77848633 687.25 865.53369141 C682.10968393 875.11355389 676.77095335 884.46053839 670.4375 893.3125 C669.9213916 894.03614746 669.4052832 894.75979492 668.87353516 895.50537109 C656.67310349 912.52946962 656.67310349 912.52946962 649.59765625 920.01171875 C647.75198576 921.97754138 645.9898514 923.98123396 644.23046875 926.0234375 C634.32096064 937.38801263 623.44557917 948.18051016 611.4375 957.3125 C610.13067779 958.33487411 608.82476178 959.35840712 607.51953125 960.3828125 C592.88628129 971.80217091 577.82577748 981.59909224 561.4375 990.3125 C560.79264648 990.66022461 560.14779297 991.00794922 559.48339844 991.36621094 C527.35714806 1008.59771624 491.53050104 1018.90499872 455.4375 1023.3125 C454.46880641 1023.44458426 454.46880641 1023.44458426 453.48054326 1023.57933688 C444.54021085 1024.65846421 435.54267981 1024.45776716 426.55343628 1024.45294189 C424.62325358 1024.45552832 422.69307141 1024.45854226 420.76288998 1024.4619453 C415.47307583 1024.46998628 410.18327528 1024.47180325 404.89345574 1024.47254276 C399.18214065 1024.47439845 393.47083253 1024.4819485 387.75952148 1024.48867798 C375.27543022 1024.50224251 362.79134218 1024.50828346 350.30724478 1024.51268864 C342.50406546 1024.51545497 334.70088738 1024.5196931 326.89770889 1024.52419281 C305.27130886 1024.5363844 283.64491032 1024.54671836 262.018507 1024.5500679 C260.62114479 1024.55028953 259.22378258 1024.55051131 257.82642037 1024.55073325 C256.42580065 1024.55095389 255.02518092 1024.55117437 253.62456119 1024.5513947 C250.81497439 1024.55183724 248.00538758 1024.55228436 245.19580078 1024.55273438 C244.4991918 1024.55284377 243.80258281 1024.55295316 243.08486446 1024.55306586 C220.52358439 1024.55669231 197.96233653 1024.57259746 175.40106878 1024.59592474 C151.51218033 1024.62057923 127.62331107 1024.6342367 103.73440945 1024.63543582 C90.72673918 1024.63635017 77.71911108 1024.64204156 64.71145248 1024.66025543 C53.62981924 1024.67571817 42.5482412 1024.68074076 31.46659921 1024.67251733 C25.82112202 1024.66863222 20.17575578 1024.66943474 14.53029251 1024.68357468 C-28.8276445 1024.78601399 -28.8276445 1024.78601399 -48.5625 1021.3125 C-49.84092836 1021.10908619 -51.11935673 1020.90567238 -52.43652534 1020.69609451 C-55.28722596 1020.23512131 -58.10894884 1019.7054977 -60.9375 1019.125 C-61.95457031 1018.91705811 -62.97164062 1018.70911621 -64.01953125 1018.49487305 C-90.57484832 1012.81692696 -116.66564733 1003.21881705 -140.5625 990.3125 C-141.29549316 989.920625 -142.02848633 989.52875 -142.78369141 989.125 C-152.36355389 983.98468393 -161.71053839 978.64595335 -170.5625 972.3125 C-171.28614746 971.7963916 -172.00979492 971.2802832 -172.75537109 970.74853516 C-189.77946962 958.54810349 -189.77946962 958.54810349 -197.26171875 951.47265625 C-199.22754138 949.62698576 -201.23123396 947.8648514 -203.2734375 946.10546875 C-214.63801263 936.19596064 -225.43051016 925.32057917 -234.5625 913.3125 C-235.58487411 912.00567779 -236.60840712 910.69976178 -237.6328125 909.39453125 C-249.05217091 894.76128129 -258.84909224 879.70077748 -267.5625 863.3125 C-267.91022461 862.66764648 -268.25794922 862.02279297 -268.61621094 861.35839844 C-285.84771624 829.23214806 -296.15499872 793.40550104 -300.5625 757.3125 C-300.65055617 756.66670427 -300.73861234 756.02090855 -300.82933688 755.35554326 C-301.90846421 746.41521085 -301.70776716 737.41767981 -301.70294189 728.42843628 C-301.70552832 726.49825358 -301.70854226 724.56807141 -301.7119453 722.63788998 C-301.71998628 717.34807583 -301.72180325 712.05827528 -301.72254276 706.76845574 C-301.72439845 701.05714065 -301.7319485 695.34583253 -301.73867798 689.63452148 C-301.75224251 677.15043022 -301.75828346 664.66634218 -301.76268864 652.18224478 C-301.76545497 644.37906546 -301.7696931 636.57588738 -301.77419281 628.77270889 C-301.7863844 607.14630886 -301.79671836 585.51991032 -301.8000679 563.893507 C-301.80028953 562.49614479 -301.80051131 561.09878258 -301.80073325 559.70142037 C-301.80095389 558.30080065 -301.80117437 556.90018092 -301.8013947 555.49956119 C-301.80183724 552.68997439 -301.80228436 549.88038758 -301.80273438 547.07080078 C-301.80284377 546.3741918 -301.80295316 545.67758281 -301.80306586 544.95986446 C-301.80669231 522.39858439 -301.82259746 499.83733653 -301.84592474 477.27606878 C-301.87057923 453.38718033 -301.8842367 429.49831107 -301.88543582 405.60940945 C-301.88635017 392.60173918 -301.89204156 379.59411108 -301.91025543 366.58645248 C-301.92571817 355.50481924 -301.93074076 344.4232412 -301.92251733 333.34159921 C-301.91863222 327.69612202 -301.91943474 322.05075578 -301.93357468 316.40529251 C-302.03601399 273.0473555 -302.03601399 273.0473555 -298.5625 253.3125 C-298.35908619 252.03407164 -298.15567238 250.75564327 -297.94609451 249.43847466 C-297.48512131 246.58777404 -296.9554977 243.76605116 -296.375 240.9375 C-296.16705811 239.92042969 -295.95911621 238.90335938 -295.74487305 237.85546875 C-286.21047012 193.2637997 -266.08167172 150.82166479 -237.5625 115.3125 C-236.76070313 114.29800781 -235.95890625 113.28351563 -235.1328125 112.23828125 C-222.04355731 95.911648 -207.19213766 80.05383401 -190.5625 67.3125 C-189.25344581 66.28704584 -187.94489053 65.26095462 -186.63671875 64.234375 C-147.94568632 34.05466043 -103.46855707 14.04506204 -55.3125 4.5625 C-54.30840088 4.36366211 -53.30430176 4.16482422 -52.26977539 3.95996094 C-34.83070051 0.68899475 -17.70673875 -0.0619082 0 0 Z " fill="#E73C00" transform="translate(301.5625,-0.31250000000000006)"/>
</svg>
