<?xml version="1.0" encoding="UTF-8"?>
<svg version="1.1" xmlns="http://www.w3.org/2000/svg" width="2560" height="1067">
<path d="M0 0 C1.43038731 0.00040031 1.43038731 0.00040031 2.88967133 0.00080872 C32.05654184 0.01105019 61.13831408 0.22228144 90.25 2.1875 C91.24837891 2.25302063 92.24675781 2.31854126 93.27539062 2.38604736 C189.43101199 8.70125886 284.68552207 24.04584174 599.51367188 141.61425781 C602.19203767 143.15417476 604.88228173 144.67061213 607.578125 146.1796875 C638.67489806 163.63458345 668.47728263 183.80941992 696.25 206.1875 C697.64412109 207.30705078 697.64412109 207.30705078 699.06640625 208.44921875 C706.00225088 214.0726037 712.77490164 219.88270546 719.53710938 225.71240234 C722.43676532 228.20951198 725.34351658 230.69834373 728.25 233.1875 C727.92 233.8475 727.59 234.5075 727.25 235.1875 C726.15667358 234.57660522 726.15667358 234.57660522 725.04125977 233.95336914 C716.7881107 229.34546383 708.52317769 224.75932782 700.25 220.1875 C699.01443359 219.50228271 699.01443359 219.50228271 697.75390625 218.80322266 C620.2833609 176.01048427 531.60899008 150.91912213 404.25 126.1875 C403.4373468 126.0501947 402.6246936 125.9128894 401.78741455 125.77142334 C330.37212165 113.73002099 257.28670593 107.04461681 184.84375 107.01953125 C182.57873516 107.01629822 180.31372051 107.01293284 178.04870605 107.00944519 C173.33275878 107.00351825 168.61682963 107.00159835 163.90087891 107.00219727 C159.16223293 107.00227808 154.42368456 106.9953951 149.68505859 106.98168945 C120.14405052 106.89766878 90.73489457 107.29297737 61.25 109.1875 C60.01852234 109.26555878 58.78704468 109.34361755 57.51824951 109.42404175 C50.4853057 109.88135205 43.46087196 110.41487459 36.4375 111 C35.4113559 111.08398041 34.38521179 111.16796082 33.32797241 111.25448608 C-56.24252304 118.62498203 -145.43889583 134.04345744 -276.75 175.1875 C-277.4061731 175.41439514 -278.06234619 175.64129028 -278.73840332 175.87506104 C-329.92928324 193.61436293 -379.59533192 216.81595403 -425.75 245.1875 C-426.75740234 245.80544434 -427.76480469 246.42338867 -428.80273438 247.06005859 C-440.27887724 254.13524818 -451.33062749 261.55268979 -461.97900391 269.82226562 C-463.73651547 271.17710498 -465.51016276 272.50679206 -467.29296875 273.828125 C-467.84710449 274.23893311 -468.40124023 274.64974121 -468.97216797 275.07299805 C-469.49697754 275.46140869 -470.02178711 275.84981934 -470.5625 276.25 C-473.50375449 278.42855677 -476.19611459 280.57277487 -478.75 283.1875 C-478.13294189 282.96610352 -477.51588379 282.74470703 -476.88012695 282.51660156 C-423.69245733 263.62246959 -363.00928646 263.04861137 -311.32177734 287.328125 C-274.01974501 305.27977481 -245.55922016 334.54046822 -226.75 371.1875 C-226.42837891 371.80093262 -226.10675781 372.41436523 -225.77539062 373.04638672 C-197.12587816 428.16157355 -196.30818933 498.75132086 -214.69775391 557.046875 C-221.87492745 578.46848997 -232.04220883 598.25165636 -245.75 616.1875 C-246.4203125 617.08210937 -247.090625 617.97671875 -247.78125 618.8984375 C-277.63416238 657.13312912 -321.31825601 679.36675414 -368.90625 685.9453125 C-406.3746747 690.45315185 -444.54859056 686.85550795 -479.75 673.1875 C-480.89210938 672.74664063 -482.03421875 672.30578125 -483.2109375 671.8515625 C-485.40148317 670.986389 -487.58152401 670.10624904 -489.75 669.1875 C-455.76197448 702.19166162 -410.76537834 726.12996705 -368.75 747.1875 C-367.69731934 747.71585449 -366.64463867 748.24420898 -365.56005859 748.78857422 C-289.39091538 786.76943964 -205.8602344 811.38943959 86.25 853.1875 C87.18031036 853.2358902 88.11062073 853.2842804 89.06912231 853.33413696 C110.84756992 854.43801761 132.63740381 854.38850687 154.4375 854.375 C155.40255463 854.37473312 156.36760925 854.37446625 157.36190796 854.37419128 C186.06493946 854.3642329 214.71186671 854.23171875 243.36590576 852.37432861 C246.49381158 852.17170614 249.62213033 851.97627334 252.75048828 851.78076172 C349.27092207 845.67066374 445.70674071 831.94327664 668.25 757.1875 C669.25643555 756.7248877 670.26287109 756.26227539 671.29980469 755.78564453 C689.80325118 747.22666115 707.76093337 737.66618127 725.25 727.1875 C725.25 730.1875 725.25 730.1875 723.1171875 732.5 C722.12884453 733.40581123 721.1306365 734.30092736 720.125 735.1875 C719.58584961 735.6717041 719.04669922 736.1559082 718.49121094 736.65478516 C713.48124115 741.09707334 708.241284 745.22085699 702.94140625 749.30859375 C699.71781856 751.80185754 696.57214919 754.3796814 693.43261719 756.97753906 C685.34539118 763.65553724 676.98354384 769.80473852 668.34375 775.74658203 C666.29663319 777.15540706 664.25695995 778.5744224 662.21875 779.99609375 C598.42074508 824.36844923 528.12142578 858.56657324 455.25 885.1875 C454.6098999 885.42235107 453.9697998 885.65720215 453.31030273 885.89916992 C367.0603607 917.53582271 276.63158107 938.02742369 66.2286377 960.09893799 C64.33554655 960.18367101 62.44266829 960.27312049 60.54980469 960.36279297 C-0.76661149 963.17417151 -62.60784707 961.41522243 -123.75 956.1875 C-124.69329163 956.10713501 -125.63658325 956.02677002 -126.60845947 955.94396973 C-226.56282031 947.34731491 -325.59232025 928.54923529 -524.75 858.1875 C-525.91595703 857.66091797 -527.08191406 857.13433594 -528.28320312 856.59179688 C-552.97997708 845.39320461 -577.35892391 833.56784583 -600.796875 819.90771484 C-602.82224671 818.72792243 -604.85108509 817.55406717 -606.8828125 816.38525391 C-636.87740982 799.12480867 -665.78279755 779.90157354 -692.75 758.1875 C-694.12671875 757.08535156 -694.12671875 757.08535156 -695.53125 755.9609375 C-703.43828909 749.56553824 -711.12826884 742.91872668 -718.75 736.1875 C-719.26723633 735.73101074 -719.78447266 735.27452148 -720.31738281 734.80419922 C-728.3719937 727.64484203 -735.99598866 720.04336215 -743.625 712.4375 C-744.37281738 711.69370087 -744.37281738 711.69370087 -745.13574219 710.93487549 C-750.89427648 705.19982895 -756.48936709 699.38610219 -761.75 693.1875 C-762.595625 692.22328125 -763.44125 691.2590625 -764.3125 690.265625 C-820.05857424 625.58588501 -854.29293634 544.52514318 -848.23461914 458.27978516 C-844.46592487 412.62407375 -829.47229944 367.38164923 -805.75 328.1875 C-805.29302734 327.42856445 -804.83605469 326.66962891 -804.36523438 325.88769531 C-793.49704444 307.96768254 -781.2102174 291.23732391 -767.75 275.1875 C-767.2142334 274.54731934 -766.6784668 273.90713867 -766.12646484 273.24755859 C-761.0598078 267.2126139 -755.99598455 261.22429234 -750.31640625 255.75 C-748.5725076 254.01045023 -746.97819814 252.18228917 -745.375 250.3125 C-739.74748056 243.80371353 -733.63236395 237.8519253 -727.1015625 232.2578125 C-724.60585366 230.06059375 -722.18220906 227.79844789 -719.75878906 225.5222168 C-713.29751518 219.4567609 -706.68990149 213.70552208 -699.75 208.1875 C-698.63323342 207.27972879 -697.51739779 206.37081148 -696.40234375 205.4609375 C-686.43524102 197.35893633 -676.16639286 189.7005916 -665.75 182.1875 C-664.95464844 181.61241699 -664.15929687 181.03733398 -663.33984375 180.44482422 C-587.04709345 125.50474001 -498.83658968 87.59832237 -70.08355713 1.29464722 C-68.45118763 1.21969561 -66.81899375 1.14086433 -65.18695068 1.05911255 C-43.46413236 -0.01922132 -21.74393893 -0.01363413 0 0 Z M-500.5 357 C-521.95329481 382.03555229 -533.05643269 412.03559049 -538.75 444.1875 C-538.88132324 444.9196875 -539.01264648 445.651875 -539.14794922 446.40625 C-547.15808436 493.86040264 -537.66178773 548.62942056 -509.75 588.1875 C-507.19783007 591.62802138 -504.52799524 594.92755237 -501.75 598.1875 C-500.77353516 599.38246094 -500.77353516 599.38246094 -499.77734375 600.6015625 C-481.86107082 621.69922969 -456.53109399 634.62815115 -429.75 640.1875 C-428.12191406 640.5278125 -428.12191406 640.5278125 -426.4609375 640.875 C-388.8835238 647.21123838 -350.64542396 640.25122912 -319.43359375 618.41015625 C-285.24543604 593.5820974 -267.76175031 554.9381054 -260.75 514.1875 C-258.91152431 502.55666429 -258.3450587 491.1365803 -258.375 479.375 C-258.37587616 478.52677673 -258.37675232 477.67855347 -258.37765503 476.80462646 C-258.47755721 447.28681593 -263.43488702 417.78912207 -276.75 391.1875 C-277.05518555 390.56230469 -277.36037109 389.93710937 -277.67480469 389.29296875 C-293.03406889 358.03328492 -319.27337017 332.88367124 -352.51953125 321.46875 C-367.74794209 316.63042494 -383.15906769 314.95101865 -399.0625 314.9375 C-400.13105225 314.93648788 -400.13105225 314.93648788 -401.22119141 314.93545532 C-439.74866611 314.99334175 -473.83056818 328.81472125 -500.5 357 Z " fill="#5486A4" transform="translate(971.75,52.8125)"/>
<path d="M0 0 C1.01618069 0.93026638 2.03064033 1.86241799 3.04296875 2.796875 C4.28626953 3.93382812 4.28626953 3.93382812 5.5546875 5.09375 C28.03160369 26.58999794 43.46725741 57.90953991 47.04296875 88.796875 C47.04296875 91.436875 47.04296875 94.076875 47.04296875 96.796875 C18.33296875 96.796875 -10.37703125 96.796875 -39.95703125 96.796875 C-41.93703125 90.856875 -43.91703125 84.916875 -45.95703125 78.796875 C-55.99819851 57.35302627 -71.32018175 43.75490581 -93.50390625 35.47265625 C-120.07410423 27.23834374 -151.00672482 29.44217154 -175.95703125 41.796875 C-202.24231307 56.4242494 -218.97908175 80.73844789 -227.20703125 109.234375 C-239.68162293 154.42245223 -239.28453381 207.14157808 -216.0234375 248.95361328 C-202.45384962 272.40837255 -182.71164796 288.48179285 -156.64453125 296.171875 C-128.47530035 302.85761018 -93.64535234 302.02943736 -68.43383789 286.54052734 C-65.55080582 284.7016204 -62.75159158 282.7682589 -59.95703125 280.796875 C-58.90708984 280.05824219 -58.90708984 280.05824219 -57.8359375 279.3046875 C-39.0543194 264.64374774 -32.37563286 239.0177855 -28.95703125 216.796875 C-58.65703125 216.466875 -88.35703125 216.136875 -118.95703125 215.796875 C-118.95703125 193.686875 -118.95703125 171.576875 -118.95703125 148.796875 C-61.86703125 148.796875 -4.77703125 148.796875 54.04296875 148.796875 C54.04296875 220.406875 54.04296875 292.016875 54.04296875 365.796875 C34.90296875 365.796875 15.76296875 365.796875 -3.95703125 365.796875 C-5.53996803 361.04806466 -6.71176124 356.50996848 -7.6484375 351.625 C-7.87369362 350.47955719 -7.87369362 350.47955719 -8.10350037 349.31097412 C-8.57923509 346.8903189 -9.04986316 344.46871405 -9.51953125 342.046875 C-9.99313954 339.61083197 -10.46791748 337.17504455 -10.9462738 334.7399292 C-11.2429716 333.22913636 -11.53689921 331.71779632 -11.82777405 330.20587158 C-12.54938688 326.39207172 -12.54938688 326.39207172 -13.95703125 322.796875 C-14.65828125 323.5703125 -15.35953125 324.34375 -16.08203125 325.140625 C-18.5624664 327.86936736 -21.05923054 330.58258188 -23.56445312 333.28857422 C-24.69712204 334.51536745 -25.82064991 335.75059561 -26.94140625 336.98828125 C-33.15361098 343.57156901 -40.55713656 348.64921326 -47.95703125 353.796875 C-48.7665625 354.37566406 -49.57609375 354.95445312 -50.41015625 355.55078125 C-83.90697985 377.66109467 -131.18111409 378.52675193 -169.17773438 371.12255859 C-212.85925875 362.10617319 -254.44170594 340.87252374 -281.95703125 304.796875 C-282.694375 303.86359375 -283.43171875 302.9303125 -284.19140625 301.96875 C-302.23100441 278.70388892 -313.98325613 251.39823592 -320.70703125 222.859375 C-320.89378418 222.07554443 -321.08053711 221.29171387 -321.27294922 220.48413086 C-325.18906541 202.72438562 -326.48102187 185.00110754 -326.33203125 166.859375 C-326.32771088 165.85495361 -326.3233905 164.85053223 -326.31893921 163.81567383 C-326.24579628 149.2955761 -325.844128 135.07038578 -322.95703125 120.796875 C-322.70759766 119.48033936 -322.70759766 119.48033936 -322.453125 118.13720703 C-316.26095588 85.93219412 -304.16292686 54.81712016 -283.95703125 28.796875 C-283.34601563 27.99378906 -282.735 27.19070313 -282.10546875 26.36328125 C-251.92843292 -12.4446352 -207.53014182 -36.53099443 -158.95703125 -43.203125 C-102.13170679 -49.85443524 -43.62200947 -39.18086918 0 0 Z " fill="#5486A4" transform="translate(1922.95703125,366.203125)"/>
<path d="M0 0 C29.7 0 59.4 0 90 0 C90 107.25 90 214.5 90 325 C156 325 222 325 290 325 C290 350.08 290 375.16 290 401 C194.3 401 98.6 401 0 401 C0 268.67 0 136.34 0 0 Z " fill="#5485A3" transform="translate(2032,331)"/>
<path d="M0 0 C31.64455712 -0.7420103 61.32192762 8.9476499 84.75024414 30.54882812 C111.94648652 56.92203224 122.61119203 95.15506379 123.49023438 132.06152344 C123.86412507 167.12000797 115.40627316 201.44203898 93.20703125 229.12109375 C92.66691406 229.8275 92.12679687 230.53390625 91.5703125 231.26171875 C75.08305017 251.69429574 47.78324397 263.36126171 22.20703125 266.12109375 C-10.00028128 269.18903658 -42.15865623 263.89597552 -67.79296875 243.12109375 C-72.7514372 238.75733258 -76.08485965 234.6832574 -79.79296875 229.12109375 C-80.12296875 271.69109375 -80.45296875 314.26109375 -80.79296875 358.12109375 C-95.31296875 358.12109375 -109.83296875 358.12109375 -124.79296875 358.12109375 C-124.79296875 241.96109375 -124.79296875 125.80109375 -124.79296875 6.12109375 C-110.27296875 6.12109375 -95.75296875 6.12109375 -80.79296875 6.12109375 C-80.46296875 17.01109375 -80.13296875 27.90109375 -79.79296875 39.12109375 C-76.32796875 33.67609375 -76.32796875 33.67609375 -72.79296875 28.12109375 C-56.61929143 9.74191498 -32.6483119 2.44869847 -8.85546875 0.37109375 C-5.90401539 0.2192624 -2.95246616 0.12800902 0 0 Z M-59.42578125 62.02734375 C-68.83115603 73.34694489 -75.40513568 86.81690966 -78.79296875 101.12109375 C-79.09074219 102.37148438 -79.38851562 103.621875 -79.6953125 104.91015625 C-86.07801881 135.01078467 -82.60820978 169.36943345 -66.79296875 196.12109375 C-64.33010976 199.66236436 -61.67501316 202.91496403 -58.79296875 206.12109375 C-58.27476562 206.73210937 -57.7565625 207.343125 -57.22265625 207.97265625 C-45.91445657 220.41735841 -28.31360636 228.14720411 -11.71875 229.3425293 C11.62231311 230.16585651 31.16898629 227.81347642 49.38671875 211.87890625 C69.65869023 192.05617513 76.02366538 163.36169334 76.56054688 135.95581055 C76.63122696 124.36829259 76.04426596 113.36706842 73.20703125 102.12109375 C72.95759766 101.12360107 72.95759766 101.12360107 72.703125 100.10595703 C68.91907684 85.44277041 62.37259627 72.42305323 52.20703125 61.12109375 C51.6553125 60.48816406 51.10359375 59.85523438 50.53515625 59.203125 C38.03407973 45.71982104 19.21463703 39.08149939 1.20703125 38.12109375 C0.51609375 38.07984375 -0.17484375 38.03859375 -0.88671875 37.99609375 C-23.23014098 37.32912592 -44.35215911 45.38821189 -59.42578125 62.02734375 Z " fill="#5486A4" transform="translate(929.79296875,469.87890625)"/>
<path d="M0 0 C1.56049817 1.38342536 3.10821554 2.7796482 4.65136719 4.18237305 C5.46605469 4.91327148 6.28074219 5.64416992 7.12011719 6.3972168 C33.34533577 31.19112943 43.06451227 68.37741598 45.65136719 103.18237305 C45.65136719 109.45237305 45.65136719 115.72237305 45.65136719 122.18237305 C-18.69863281 122.18237305 -83.04863281 122.18237305 -149.34863281 122.18237305 C-147.09337508 145.86257923 -143.91963989 166.39299439 -126.34863281 183.18237305 C-125.74792969 183.80241211 -125.14722656 184.42245117 -124.52832031 185.0612793 C-107.69911812 201.34407882 -84.60493371 203.69810403 -62.37988281 203.45581055 C-46.30774712 203.02545909 -30.08680385 197.76697219 -18.30566406 186.40112305 C-10.32049756 177.34807998 -6.11787781 166.49010804 -2.34863281 155.18237305 C11.84136719 155.18237305 26.03136719 155.18237305 40.65136719 155.18237305 C37.88381109 180.09037793 24.83628415 203.09245328 5.65136719 219.18237305 C-23.79089392 241.38914062 -61.99338583 245.23810792 -97.6003418 240.34277344 C-118.59467061 237.00122105 -136.89130902 228.51427036 -153.34863281 215.18237305 C-154.05246094 214.64354492 -154.75628906 214.1047168 -155.48144531 213.54956055 C-166.35398365 204.78990415 -173.98648116 192.42513735 -180.34863281 180.18237305 C-181.03699219 178.88493164 -181.03699219 178.88493164 -181.73925781 177.5612793 C-191.10590966 158.56120387 -195.68579181 135.24918923 -196.34863281 114.18237305 C-196.38859375 112.98225586 -196.42855469 111.78213867 -196.46972656 110.5456543 C-197.08008731 73.88810595 -185.82405707 37.76349902 -160.09082031 10.9597168 C-119.19998184 -30.45536319 -45.57851255 -39.58310269 0 0 Z M-131.65722656 37.83081055 C-142.03132913 50.88153655 -149.34863281 67.2878438 -149.34863281 84.18237305 C-100.50863281 84.18237305 -51.66863281 84.18237305 -1.34863281 84.18237305 C-3.54330286 62.23567259 -11.70384239 43.92306567 -28.52050781 29.3503418 C-59.4331672 5.65348274 -105.50147907 7.82472459 -131.65722656 37.83081055 Z " fill="#5486A4" transform="translate(1269.3486328125,494.817626953125)"/>
<path d="M0 0 C15.69463711 13.88022819 21.6573865 34.7371715 23.875 54.8125 C24.2197216 61.01915716 24.12896223 67.24070705 24.10205078 73.4543457 C24.10148551 75.29860427 24.10180549 77.14286328 24.10293579 78.98712158 C24.10350576 83.95524178 24.09180944 88.92326391 24.07778788 93.89136147 C24.06522084 99.09766905 24.06410533 104.30397928 24.06173706 109.51029968 C24.05553976 119.35198556 24.03915278 129.1936266 24.01903808 139.0352928 C23.99662441 150.24698289 23.98567194 161.4586752 23.97564721 172.67038214 C23.95478488 195.71778529 23.91813067 218.76512703 23.875 241.8125 C9.355 241.8125 -5.165 241.8125 -20.125 241.8125 C-20.1343457 236.30667236 -20.14369141 230.80084473 -20.15332031 225.12817383 C-20.18710899 206.92344641 -20.24246861 188.7188316 -20.30890274 170.51419544 C-20.34865078 159.47829265 -20.38106478 148.44246072 -20.39599609 137.40649414 C-20.40903456 127.78348608 -20.43605522 118.16063424 -20.47961307 108.53771418 C-20.50217848 103.44611034 -20.51791363 98.35469882 -20.51688385 93.26304054 C-20.51613433 88.4621041 -20.53420186 83.66159202 -20.56616783 78.86076546 C-20.57462609 77.10694568 -20.57644473 75.35307808 -20.57080269 73.59924698 C-20.52721405 57.95548817 -22.79982354 44.9498888 -33.6875 33 C-34.8940625 31.9171875 -34.8940625 31.9171875 -36.125 30.8125 C-36.846875 30.1525 -37.56875 29.4925 -38.3125 28.8125 C-53.34701575 18.1212888 -71.68266386 17.42996525 -89.3828125 20.09375 C-107.59814929 23.59231155 -123.34949346 32.05977647 -134.46875 47.19140625 C-145.67717883 64.92927357 -148.24601066 84.13772447 -148.33032227 104.78735352 C-148.33991732 106.28620158 -148.34992832 107.78504703 -148.36032104 109.28388977 C-148.38719999 113.32866553 -148.40830089 117.37345276 -148.42832303 121.41826749 C-148.45028836 125.65434908 -148.47762513 129.89039602 -148.50437927 134.12644958 C-148.55416427 142.13722264 -148.59915536 150.14801508 -148.64240164 158.15882581 C-148.69189581 167.28343036 -148.74676852 176.40800012 -148.80208123 185.53257096 C-148.91568322 204.29251636 -149.02185927 223.05249396 -149.125 241.8125 C-163.645 241.8125 -178.165 241.8125 -193.125 241.8125 C-193.125 157.3325 -193.125 72.8525 -193.125 -14.1875 C-179.265 -14.1875 -165.405 -14.1875 -151.125 -14.1875 C-150.795 -1.9775 -150.465 10.2325 -150.125 22.8125 C-146.825 18.5225 -143.525 14.2325 -140.125 9.8125 C-104.42026717 -28.86762723 -41.45432924 -29.01803047 0 0 Z " fill="#5486A4" transform="translate(1535.125,490.1875)"/>
<path d="M0 0 C7.43923319 5.98438315 12.23695045 14.07171435 14.5 23.3125 C15.41689806 34.08605221 14.10545501 44.2241217 7.54296875 53.15234375 C1.08374137 60.70921762 -6.33896698 66.33173554 -16.25 68.25 C-28.87204814 69.16551122 -39.23393806 67.6384713 -49.1796875 59.296875 C-57.52691077 51.0441486 -61.31165094 42.49108503 -61.6875 30.875 C-61.41724683 19.13661227 -57.42429116 10.74365105 -49.4375 2.34375 C-35.72389556 -10.70629294 -15.17351937 -10.52680834 0 0 Z M-46.78125 11.3515625 C-52.36706367 18.57152379 -54.14500537 26.24952341 -53.25 35.25 C-51.0675906 44.35376494 -47.10632972 50.86158848 -39.3125 56.0625 C-31.91134738 60.31571436 -23.98818496 61.69973811 -15.66796875 59.59765625 C-6.27688939 56.23648653 0.26211864 50.11019495 4.75 41.25 C7.41403279 33.25790164 6.74552493 24.23884014 3.1875 16.6875 C0.39152015 11.82066591 -2.48359347 8.23023762 -7.25 5.25 C-7.88292969 4.84007812 -8.51585938 4.43015625 -9.16796875 4.0078125 C-22.18136232 -3.07264554 -37.12670523 0.92283254 -46.78125 11.3515625 Z " fill="#5486A4" transform="translate(2426.25,663.75)"/>
<path d="M0 0 C4.16625 -0.0825 8.3325 -0.165 12.625 -0.25 C13.92775879 -0.28641602 15.23051758 -0.32283203 16.57275391 -0.36035156 C26.1432378 -0.45221872 26.1432378 -0.45221872 29.7421875 1.73828125 C33.16164134 5.1636511 33.74540289 8.26449372 34 13 C33.10272552 17.03773516 31.1871639 19.39232044 28 22 C27.01 22 26.02 22 25 22 C25.56267578 22.70962891 25.56267578 22.70962891 26.13671875 23.43359375 C36 36.17884131 36 36.17884131 36 41 C31.71 41 27.42 41 23 41 C22.46890625 40.01257813 21.9378125 39.02515625 21.390625 38.0078125 C20.67766243 36.71322257 19.96408864 35.41896913 19.25 34.125 C18.90195313 33.47402344 18.55390625 32.82304688 18.1953125 32.15234375 C16.04415216 28.28822239 15.09110661 27.04555331 11 25 C11 30.28 11 35.56 11 41 C7.37 41 3.74 41 0 41 C0 27.47 0 13.94 0 0 Z M11 8 C11 10.97 11 13.94 11 17 C15.96551325 17.35606813 15.96551325 17.35606813 20.4375 15.5 C20.953125 15.005 21.46875 14.51 22 14 C21.62095792 10.70924004 21.62095792 10.70924004 20 8 C16.99668982 7.85806663 14.00782866 7.95763622 11 8 Z " fill="#5486A4" transform="translate(2385,674)"/>
</svg>
