<?xml version="1.0" encoding="UTF-8"?>
<svg version="1.1" xmlns="http://www.w3.org/2000/svg" width="380" height="380">
<path d="M0 0 C19.6267344 16.43269294 33.87573549 39.28798618 36.90771484 65.07543945 C38.50607543 94.18762897 32.46028767 120.1137731 13.11083984 142.62231445 C12.38380859 143.4318457 11.65677734 144.24137695 10.90771484 145.07543945 C10.28380859 145.7818457 9.65990234 146.48825195 9.01708984 147.21606445 C-7.42284376 164.76120367 -32.5411708 175.13859706 -56.37878418 176.17483521 C-62.24197812 176.31432501 -68.10335924 176.25917846 -73.96728516 176.20043945 C-75.73420711 176.19037984 -77.50113467 176.18125931 -79.26806641 176.1730957 C-83.54294769 176.15134071 -87.81755223 176.11697894 -92.09228516 176.07543945 C-92.06610107 177.25460938 -92.03991699 178.4337793 -92.01293945 179.64868164 C-91.92157031 184.07670676 -91.86472474 188.50465086 -91.81762695 192.93334961 C-91.79267833 194.84006827 -91.75870656 196.74669324 -91.71508789 198.65307617 C-91.41150302 212.27510784 -91.71170867 223.31930829 -101.21728516 234.01293945 C-108.60337039 240.81851297 -117.79461219 244.46078137 -127.85400391 244.2902832 C-138.90363709 243.22967269 -146.82010137 237.81490736 -154.23291016 229.94262695 C-160.06969206 220.94221116 -160.67641527 211.81325724 -160.60986328 201.34277344 C-160.6152962 199.89253542 -160.62242538 198.44230292 -160.63110352 196.99208069 C-160.6492125 193.08241745 -160.64231829 189.17318037 -160.62958717 185.26351047 C-160.61938094 181.14531318 -160.62887508 177.0271497 -160.63513184 172.90895081 C-160.64239196 165.98838844 -160.63286968 159.06799725 -160.61376953 152.14746094 C-160.5920642 144.19208768 -160.5990124 136.23712562 -160.62107515 128.28176254 C-160.63934846 121.41334039 -160.64172799 114.54504061 -160.63132048 107.67660195 C-160.62514273 103.59158339 -160.62408813 99.5067566 -160.63746643 95.42175102 C-160.73309977 61.56273604 -155.61459667 32.44610769 -131.09228516 7.07543945 C-96.24494373 -27.52299239 -38.30803109 -30.841023 0 0 Z M-84.59228516 57.45043945 C-90.58192619 65.45429606 -92.22983094 72.68899332 -92.18994141 82.66137695 C-92.18852646 83.36316071 -92.18711151 84.06494446 -92.18565369 84.78799438 C-92.18009805 87.0088545 -92.16755408 89.22961029 -92.15478516 91.45043945 C-92.14976441 92.9647609 -92.14520251 94.47908395 -92.14111328 95.9934082 C-92.13014323 99.68745198 -92.11290964 103.38143552 -92.09228516 107.07543945 C-86.84535128 107.1749945 -81.59897819 107.24722905 -76.35131836 107.29516602 C-74.56964529 107.3151685 -72.78803693 107.34237968 -71.0065918 107.37719727 C-57.43148937 107.98432434 -57.43148937 107.98432434 -45.09228516 103.07543945 C-44.28275391 102.55723633 -43.47322266 102.0390332 -42.63916016 101.50512695 C-35.98940081 95.75163952 -32.23691895 89.30527656 -31.15478516 80.51293945 C-30.73563046 71.19984607 -33.0008287 64.21575596 -39.09228516 57.07543945 C-47.09459527 49.6250128 -54.35988475 47.36220895 -65.22509766 47.59887695 C-72.80171083 48.5325606 -79.39715372 51.81482306 -84.59228516 57.45043945 Z " fill="#E62264" transform="translate(251.09228515625,77.924560546875)"/>
<path d="M0 0 C1.24819519 0.00424484 1.24819519 0.00424484 2.52160645 0.00857544 C5.14997431 0.01966964 7.7779871 0.04475325 10.40625 0.0703125 C12.20051587 0.08035624 13.99478715 0.08947964 15.7890625 0.09765625 C20.16159279 0.11957357 24.53386143 0.1540276 28.90625 0.1953125 C29.03098576 5.95695331 29.12111943 11.7177873 29.1809082 17.48046875 C29.20586363 19.43568637 29.2398407 21.39081254 29.28344727 23.34570312 C29.58271089 37.11887113 29.39041419 48.31343482 19.78125 59.1328125 C12.39516477 65.93838602 3.20392297 69.58065441 -6.85546875 69.41015625 C-17.80086671 68.35955086 -26.37787704 63.00394417 -33.328125 54.69921875 C-39.22851831 46.33162558 -40.20147523 37.21148063 -39.09375 27.1953125 C-37.15901143 18.1366359 -31.20755637 10.89632152 -23.7890625 5.52734375 C-16.19475592 1.04696564 -8.66968587 -0.11329527 0 0 Z " fill="#BC1F54" transform="translate(130.09375,252.8046875)"/>
<path d="M0 0 C0.33 0 0.66 0 1 0 C1 125.4 1 250.8 1 380 C-124.4 380 -249.8 380 -379 380 C-379 379.67 -379 379.34 -379 379 C-253.93 379 -128.86 379 0 379 C0 253.93 0 128.86 0 0 Z " fill="#FFFFFF" transform="translate(379,0)"/>
<path d="M0 0 C1.32 0.66 2.64 1.32 4 2 C2.35 3.32 0.7 4.64 -1 6 C-0.67 4.02 -0.34 2.04 0 0 Z " fill="#AA1C4B" transform="translate(93,275)"/>
</svg>
