<?xml version="1.0" encoding="UTF-8"?>
<svg version="1.1" xmlns="http://www.w3.org/2000/svg" width="2400" height="2400">
<path d="M0 0 C792 0 1584 0 2400 0 C2400 792 2400 1584 2400 2400 C1608 2400 816 2400 0 2400 C0 1608 0 816 0 0 Z " fill="#34BDB2" transform="translate(0,0)"/>
<path d="M0 0 C2.28373378 0.35163928 4.56960879 0.66452551 6.86035156 0.96679688 C32.21230741 4.39811088 57.67862093 9.50875019 82.32128906 16.35742188 C83.17110352 16.59332031 84.02091797 16.82921875 84.89648438 17.07226562 C124.74121517 28.33041789 163.72800196 43.07949979 201.32128906 60.35742188 C201.96517578 60.65261719 202.6090625 60.9478125 203.27246094 61.25195312 C232.31655946 74.5744162 260.82512504 88.80484031 288.52148438 104.75830078 C292.50729861 107.03481659 296.52393987 109.25456593 300.53857422 111.47973633 C314.32336241 119.13096522 327.8485108 127.17186906 341.32128906 135.35742188 C343.26773769 136.53477962 345.21434942 137.71186775 347.16113281 138.88867188 C360.96396273 147.2464133 374.66103774 155.76898655 388.32128906 164.35742188 C389.1454834 164.8751416 389.96967773 165.39286133 390.81884766 165.92626953 C402.73691727 173.41671088 414.59544919 180.99945397 426.44628906 188.59570312 C432.06341616 192.19534541 437.69045579 195.77926564 443.32128906 199.35742188 C438.83171346 206.35144169 433.87898828 212.9242591 428.77783203 219.47851562 C426.10698708 222.92384294 423.46631438 226.39226068 420.82128906 229.85742188 C411.31695949 242.29241382 401.75160275 254.67793079 392.13574219 267.02685547 C389.19615569 270.80259454 386.25881191 274.58007723 383.32128906 278.35742188 C382.15463367 279.85743064 380.98796699 281.35743063 379.82128906 282.85742188 C379.24378906 283.59992188 378.66628906 284.34242188 378.07128906 285.10742188 C376.32128906 287.35742188 374.57128906 289.60742188 372.82128906 291.85742188 C372.24354736 292.60024414 371.66580566 293.34306641 371.07055664 294.10839844 C369.90637647 295.6051783 368.74215136 297.10192321 367.57788086 298.59863281 C364.62279733 302.39761245 361.66854892 306.19723652 358.71582031 309.99804688 C352.99531467 317.36008891 347.26426757 324.71315113 341.49755859 332.0390625 C336.00866854 339.01730993 330.56637233 346.03181348 325.11962891 353.04296875 C322.76895032 356.06827869 320.41679514 359.09243846 318.06445312 362.11645508 C316.90090635 363.61228082 315.73749522 365.10821208 314.57421875 366.60424805 C311.64699548 370.3686964 308.7181487 374.13186109 305.78613281 377.89257812 C298.50983778 387.22898048 291.28199969 396.60035082 284.10742188 406.01513672 C282.11574651 408.62696469 280.12090468 411.23635888 278.12597656 413.84570312 C276.69100683 415.72455294 275.25611003 417.60345845 273.82128906 419.48242188 C272.81509521 420.79786987 272.81509521 420.79786987 271.78857422 422.13989258 C268.21548039 426.82366437 264.71453037 431.54162941 261.32128906 436.35742188 C257.54253712 434.94522618 254.14678794 433.20931575 250.65722656 431.18945312 C249.54959961 430.55144775 248.44197266 429.91344238 247.30078125 429.25610352 C246.71470093 428.91676788 246.12862061 428.57743225 245.52478027 428.22781372 C242.37075547 426.40302118 239.20906291 424.59160204 236.04785156 422.77929688 C235.39953369 422.40740738 234.75121582 422.03551788 234.08325195 421.65235901 C171.02692257 385.51625449 106.66496789 353.52502652 37.32128906 331.35742188 C36.6367868 331.13722382 35.95228455 330.91702576 35.24703979 330.69015503 C-6.28365208 317.35138829 -51.97757117 309.05893841 -95.67871094 308.35742188 C-97.09359698 308.32645082 -98.50847252 308.29499801 -99.92333984 308.26318359 C-150.19159767 307.19815049 -199.78303736 313.67982665 -240.67871094 345.35742188 C-241.64164063 346.09734375 -242.60457031 346.83726562 -243.59667969 347.59960938 C-272.70134104 370.66987691 -290.44175794 403.16343712 -297.26074219 439.45507812 C-298.85305286 454.32160484 -299.41181414 471.02505315 -294.67871094 485.35742188 C-294.15083984 486.97003906 -294.15083984 486.97003906 -293.61230469 488.61523438 C-279.01475702 529.3727437 -242.36046424 553.44467516 -204.95996094 571.45507812 C-188.48612743 579.17847782 -171.45187264 585.50121908 -154.35913086 591.6965332 C-103.73252868 610.09874301 -53.80387889 630.60192916 -4.15429688 651.47802734 C0.77942661 653.55156742 5.71829838 655.61272278 10.65722656 657.67382812 C29.84166272 665.68293623 48.99980978 673.75104959 68.12768555 681.89428711 C80.62186459 687.21315007 93.12442646 692.51186504 105.63378906 697.79492188 C106.56783569 698.18953613 107.50188232 698.58415039 108.4642334 698.99072266 C118.89299368 703.39570715 129.32843901 707.78400943 139.77832031 712.13867188 C183.90696364 730.52999268 228.53697708 749.17409914 269.32128906 774.35742188 C270.23185059 774.91397461 271.14241211 775.47052734 272.08056641 776.04394531 C285.15515821 784.04306946 297.96701493 792.28143179 310.32128906 801.35742188 C311.3821875 802.13472656 312.44308594 802.91203125 313.53613281 803.71289062 C316.48501555 805.90227137 319.40873544 808.11996346 322.32128906 810.35742188 C322.86317871 810.77314453 323.40506836 811.18886719 323.96337891 811.6171875 C339.89775197 823.87789063 355.25189194 836.97842922 369.32128906 851.35742188 C372.04773869 854.09794955 374.7910059 856.81961332 377.55566406 859.52148438 C383.7975743 865.64858868 389.76745732 871.79797321 395.19628906 878.67382812 C397.42158911 881.48408756 399.74040035 884.19681631 402.07128906 886.91992188 C435.76863564 927.42954068 459.93993585 976.2091218 472.32128906 1027.35742188 C472.54268555 1028.2562207 472.76408203 1029.15501953 472.9921875 1030.08105469 C487.47375152 1090.02749958 483.59953415 1153.42613351 472.05981445 1213.51025391 C471.40714279 1216.91018779 470.77076669 1220.31254347 470.14031982 1223.71662903 C467.1942252 1239.59050923 463.20826752 1254.97533868 458.32128906 1270.35742188 C457.94085449 1271.55995605 457.56041992 1272.76249023 457.16845703 1274.00146484 C438.08212861 1334.05508912 409.82179867 1392.24453279 368.17480469 1440.06518555 C366.32725475 1442.18711249 364.50311427 1444.3252765 362.70092773 1446.48583984 C355.59033881 1454.97506884 348.05721409 1462.93372339 340.20288086 1470.73657227 C338.24973419 1472.67892672 336.30761287 1474.63185145 334.36621094 1476.5859375 C328.03729779 1482.92121605 321.67484321 1488.97892345 314.62963867 1494.52050781 C312.31503927 1496.36239527 310.12702934 1498.29731326 307.94628906 1500.29492188 C302.33379085 1505.32340352 296.35924812 1509.85882426 290.32128906 1514.35742188 C289.6492041 1514.85935059 288.97711914 1515.3612793 288.28466797 1515.87841797 C264.10929568 1533.85071649 238.17254344 1548.77263453 211.32128906 1562.35742188 C210.4846875 1562.7837793 209.64808594 1563.21013672 208.78613281 1563.64941406 C175.77970845 1580.35130055 139.60015439 1593.17029291 103.63867188 1601.79345703 C100.94028273 1602.45014466 98.25229092 1603.14305318 95.56347656 1603.83789062 C83.88875621 1606.84009452 72.20751446 1609.59799974 60.35400391 1611.79492188 C58.13715793 1612.20609666 55.92149302 1612.62365351 53.70654297 1613.04492188 C32.75282858 1617.02522049 11.81628715 1620.10773992 -9.4163208 1622.13739014 C-11.64012775 1622.35366942 -13.862277 1622.58274408 -16.08447266 1622.81494141 C-40.58335668 1625.33505416 -65.07516984 1625.64713957 -89.67985916 1625.66749573 C-92.13032082 1625.66987489 -94.58076336 1625.67518537 -97.03121948 1625.68078613 C-126.94866702 1625.73068717 -156.65623041 1624.58138075 -186.36621094 1620.85742188 C-188.15581374 1620.64165763 -189.94552836 1620.42681889 -191.73535156 1620.21289062 C-219.06820384 1616.9246253 -219.06820384 1616.9246253 -229.36621094 1615.04492188 C-230.80494664 1614.78283848 -232.24375436 1614.5211502 -233.68261719 1614.25976562 C-234.46781738 1614.11651855 -235.25301758 1613.97327148 -236.06201172 1613.82568359 C-239.0030443 1613.299382 -241.94787698 1612.7984657 -244.89355469 1612.29882812 C-276.22711813 1606.93168247 -307.70090399 1600.10697938 -338.08049011 1590.66955566 C-343.4298694 1589.00946916 -348.8051886 1587.48187467 -354.2088623 1586.00904846 C-367.86584344 1582.27476415 -381.28848904 1578.0120758 -394.67871094 1573.41992188 C-396.27814041 1572.87408951 -396.27814041 1572.87408951 -397.90988159 1572.31723022 C-452.33477123 1553.70660996 -505.09700465 1530.74901006 -556.67871094 1505.35742188 C-557.33286987 1505.03582092 -557.98702881 1504.71421997 -558.66101074 1504.38287354 C-575.33006313 1496.18451114 -591.86298961 1487.81842966 -608.09863281 1478.78417969 C-610.74648481 1477.31994359 -613.40566582 1475.87860075 -616.06933594 1474.44335938 C-629.78594232 1467.04684991 -643.25865428 1459.27738744 -656.67871094 1451.35742188 C-658.88050396 1450.06310019 -661.08232745 1448.76883033 -663.28417969 1447.47460938 C-674.78799875 1440.6988433 -686.23796681 1433.84158184 -697.61621094 1426.85742188 C-698.65116699 1426.22336426 -699.68612305 1425.58930664 -700.75244141 1424.93603516 C-703.73938891 1423.09415673 -706.71197219 1421.23166113 -709.67871094 1419.35742188 C-710.23568665 1419.009375 -710.79266235 1418.66132812 -711.36651611 1418.30273438 C-713.06241632 1417.2386026 -714.74765836 1416.15754495 -716.43261719 1415.07617188 C-717.43752197 1414.43615234 -718.44242676 1413.79613281 -719.4777832 1413.13671875 C-720.56724243 1412.2559668 -720.56724243 1412.2559668 -721.67871094 1411.35742188 C-721.67871094 1408.06888461 -721.28196989 1407.39061468 -719.51074219 1404.75976562 C-719.03644775 1404.05005615 -718.56215332 1403.34034668 -718.07348633 1402.60913086 C-717.55133545 1401.84544189 -717.02918457 1401.08175293 -716.49121094 1400.29492188 C-715.6818811 1399.09814819 -715.6818811 1399.09814819 -714.85620117 1397.87719727 C-704.96144549 1383.33397525 -694.46336753 1369.24946357 -683.67871094 1355.35742188 C-683.20723633 1354.74946777 -682.73576172 1354.14151367 -682.25 1353.51513672 C-675.34567304 1344.6286946 -668.27444664 1335.88086558 -661.15527344 1327.16601562 C-659.84823553 1325.56506708 -658.54447738 1323.96144211 -657.24121094 1322.35742188 C-652.8105103 1316.91398966 -648.30699131 1311.53825909 -643.76196289 1306.19042969 C-640.88279757 1302.79750436 -638.04648513 1299.37451812 -635.24121094 1295.91992188 C-631.28427676 1291.05692763 -627.21435152 1286.30041984 -623.12255859 1281.55126953 C-619.32401774 1277.13354596 -615.61935052 1272.64743985 -611.94824219 1268.12304688 C-609.8912588 1265.61643028 -607.80268985 1263.14272273 -605.69726562 1260.67700195 C-600.99818995 1255.17361707 -596.45246381 1249.58007463 -592.01293945 1243.86547852 C-588.34535123 1239.16124381 -584.55600116 1234.56766134 -580.74121094 1229.98242188 C-574.65710581 1222.64320704 -568.87139184 1215.12669741 -563.22363281 1207.44824219 C-561.62210928 1205.28082001 -560.00347314 1203.12701582 -558.38183594 1200.97460938 C-548.9749125 1188.42891898 -540.27344938 1175.46835367 -531.67871094 1162.35742188 C-527.35766883 1163.00652299 -523.65892815 1164.56397921 -519.72949219 1166.39257812 C-519.04034225 1166.70835312 -518.35119232 1167.02412811 -517.64115906 1167.34947205 C-515.42219309 1168.36800185 -513.20675638 1169.39397673 -510.99121094 1170.41992188 C-509.61576723 1171.05123317 -508.24011713 1171.682095 -506.86425781 1172.3125 C-502.81509481 1174.17206705 -498.77506 1176.05086034 -494.73669434 1177.93374634 C-492.56267104 1178.94588518 -490.38731765 1179.95516917 -488.21105957 1180.9624939 C-462.9810642 1192.64099851 -438.13275482 1205.04091642 -413.30371094 1217.54492188 C-405.69432837 1221.37692609 -398.08338584 1225.20577966 -390.46777344 1229.02539062 C-389.10082934 1229.71106582 -389.10082934 1229.71106582 -387.70627022 1230.41059303 C-373.37085074 1237.59288713 -358.93721965 1244.49454667 -344.34141541 1251.13226318 C-341.04714535 1252.64801667 -337.78126945 1254.21763944 -334.52200317 1255.80703735 C-311.25653777 1267.12458759 -287.07886789 1276.80110017 -262.67871094 1285.35742188 C-260.9892334 1285.95079346 -260.9892334 1285.95079346 -259.265625 1286.55615234 C-244.83835387 1291.58346692 -230.36901088 1296.00460894 -215.53222656 1299.64697266 C-212.5996962 1300.37709444 -209.67823197 1301.14262051 -206.75683594 1301.91601562 C-187.20068827 1307.04745452 -167.53632293 1310.1080081 -147.49121094 1312.54492188 C-146.80802795 1312.62977844 -146.12484497 1312.71463501 -145.42095947 1312.80206299 C-124.73087512 1315.34587986 -104.01115826 1315.54399925 -83.18603516 1315.54272461 C-80.51441708 1315.54264318 -77.84296989 1315.54963389 -75.17138672 1315.56323242 C-59.21997044 1315.63841048 -43.51510026 1315.36676969 -27.67871094 1313.35742188 C-26.57285645 1313.22198975 -25.46700195 1313.08655762 -24.32763672 1312.94702148 C13.95944258 1307.80026642 53.41368904 1292.63378586 77.98535156 1261.57226562 C86.01133968 1250.52646593 92.4438482 1239.11449918 97.32128906 1226.35742188 C97.58925293 1225.6592334 97.8572168 1224.96104492 98.13330078 1224.24169922 C108.15571497 1197.56163345 112.11285868 1167.25555054 105.32128906 1139.35742188 C104.90363281 1137.49923828 104.90363281 1137.49923828 104.47753906 1135.60351562 C98.1755699 1109.55356549 83.54815219 1088.48856348 65.32128906 1069.35742188 C64.70640625 1068.70128906 64.09152344 1068.04515625 63.45800781 1067.36914062 C48.39731477 1051.73333759 29.25679169 1039.68389314 10.32128906 1029.35742188 C9.45439453 1028.87950195 8.5875 1028.40158203 7.69433594 1027.90917969 C-14.41311252 1015.78445109 -37.44488754 1006.34060924 -61.15649414 997.91186523 C-76.1731708 992.57252116 -91.12047476 987.05009302 -106.05371094 981.48242188 C-106.69641937 981.24281235 -107.33912781 981.00320282 -108.00131226 980.7563324 C-128.33200215 973.17384007 -148.58768305 965.4261686 -168.72509766 957.34326172 C-173.29735846 955.50843824 -177.87413069 953.68506862 -182.4515686 951.86320496 C-219.62097176 937.06925004 -256.65515076 921.95873753 -293.59887695 906.6105957 C-304.3083414 902.16238758 -315.02908288 897.74271482 -325.76052856 893.34780884 C-391.20015068 866.5464603 -391.20015068 866.5464603 -413.67871094 856.35742188 C-414.91524414 855.80296387 -414.91524414 855.80296387 -416.17675781 855.23730469 C-429.81793445 849.09822559 -442.76024648 841.88496353 -455.67871094 834.35742188 C-456.55205078 833.85307617 -457.42539062 833.34873047 -458.32519531 832.82910156 C-475.99212894 822.60549406 -492.71114091 811.07073171 -508.67871094 798.35742188 C-510.07089844 797.25527344 -510.07089844 797.25527344 -511.49121094 796.13085938 C-517.52465605 791.28010663 -523.25215939 786.1614959 -528.92089844 780.89648438 C-531.07575691 778.91254952 -533.25414195 776.99585673 -535.49121094 775.10742188 C-544.87036513 766.96962633 -553.72522526 757.88711086 -561.67871094 748.35742188 C-562.48179687 747.431875 -563.28488281 746.50632812 -564.11230469 745.55273438 C-608.36946854 694.39263678 -638.06866936 630.00181665 -649.15942383 563.32739258 C-649.6652406 560.4344631 -650.22345063 557.55420855 -650.7890625 554.67247009 C-652.4175385 546.29158287 -653.62912463 537.93135156 -654.36621094 529.41992188 C-654.42941528 528.70462311 -654.49261963 527.98932434 -654.55773926 527.25234985 C-656.02216661 509.8826143 -655.94673612 492.46233232 -655.92871094 475.04492188 C-655.92837734 474.34420185 -655.92804375 473.64348183 -655.92770004 472.92152786 C-655.89822734 426.67095745 -655.89822734 426.67095745 -653.36621094 408.23242188 C-653.23432373 407.24129395 -653.10243652 406.25016602 -652.96655273 405.22900391 C-643.16048538 333.91732433 -612.42564798 264.68781829 -570.67871094 206.35742188 C-570.13069824 205.59155762 -569.58268555 204.82569336 -569.01806641 204.03662109 C-562.40028785 194.83305131 -555.63711967 185.84301222 -548.20214844 177.28320312 C-545.73189395 174.41908453 -543.35673322 171.49576964 -540.99121094 168.54492188 C-537.72476954 164.52737363 -534.28660345 160.85154538 -530.57324219 157.24804688 C-528.69631251 155.37498715 -526.96549525 153.43356884 -525.24121094 151.41992188 C-519.59795374 144.87887376 -513.4449219 138.9018707 -506.88574219 133.28710938 C-504.73266443 131.40459537 -502.64224663 129.46412234 -500.55517578 127.5090332 C-494.11107507 121.49349139 -487.35320501 116.01155183 -480.35644531 110.65429688 C-478.83901841 109.48133824 -477.3433897 108.28031193 -475.85058594 107.07617188 C-458.55849823 93.28029862 -439.47980978 81.22398681 -420.07275391 70.66162109 C-417.77707733 69.41100879 -415.49536199 68.1375724 -413.21386719 66.86132812 C-380.95314573 49.0762531 -345.85193985 37.59029228 -310.39306641 28.10009766 C-307.82148182 27.39648547 -305.26707253 26.65210568 -302.71386719 25.88476562 C-286.6053424 21.05767525 -270.21588256 17.45294956 -253.80462646 13.82739258 C-251.78131862 13.38010509 -249.7585186 12.93059121 -247.73583984 12.48046875 C-244.13507577 11.68187223 -240.53248651 10.89230657 -236.92871094 10.10742188 C-235.92187256 9.88570313 -234.91503418 9.66398437 -233.87768555 9.43554688 C-215.19133647 5.42589522 -196.32103265 2.60602671 -177.36621094 0.23242188 C-176.34477997 0.10324371 -175.323349 -0.02593445 -174.27096558 -0.1590271 C-158.76048687 -2.11388797 -143.29547224 -3.81222215 -127.67871094 -4.64257812 C-126.30851807 -4.72499756 -126.30851807 -4.72499756 -124.91064453 -4.80908203 C-83.50462839 -7.27208247 -41.01935373 -6.42853047 0 0 Z " fill="#FEFEFE" transform="translate(1318.6787109375,379.642578125)"/>
</svg>
