<?xml version="1.0" encoding="UTF-8"?>
<svg version="1.1" xmlns="http://www.w3.org/2000/svg" width="225" height="225">
<path d="M0 0 C7.26337777 3.94040646 14.49426983 7.93296304 21.6875 12 C23.16899536 12.83748779 23.16899536 12.83748779 24.68041992 13.69189453 C32.74763223 18.26516147 40.76501268 22.92055632 48.76806641 27.60498047 C56.51666375 32.14003671 64.28434387 36.64091212 72.0625 41.125 C73.15087158 41.7526123 74.23924316 42.38022461 75.3605957 43.02685547 C80.56813821 46.02792295 85.7814694 49.01798252 91 52 C91 86.98 91 121.96 91 158 C83.25911336 153.77769819 75.55022882 149.52459773 67.875 145.1875 C66.83601562 144.60291016 65.79703125 144.01832031 64.7265625 143.41601562 C63.74171875 142.85978516 62.756875 142.30355469 61.7421875 141.73046875 C60.8538623 141.22926514 59.96553711 140.72806152 59.05029297 140.21166992 C57 139 57 139 56 138 C55.87814857 136.65016252 55.82233169 135.29425299 55.79467773 133.93920898 C55.77473251 133.07839218 55.75478729 132.21757538 55.73423767 131.33067322 C55.70916893 129.92755638 55.70916893 129.92755638 55.68359375 128.49609375 C55.66281265 127.54307877 55.64203156 126.59006378 55.62062073 125.60816956 C55.55501823 122.5513559 55.49619082 119.49445344 55.4375 116.4375 C55.39432494 114.37043337 55.35071099 112.30337586 55.30664062 110.23632812 C55.19932599 105.15764405 55.09808909 100.0788703 55 95 C47.4520995 98.63305332 40.21418462 102.6849762 33 106.9375 C31.98421875 107.53240234 30.9684375 108.12730469 29.921875 108.74023438 C26.94390597 110.48692775 23.96898778 112.23807536 21 114 C19.73737839 114.55654266 19.73737839 114.55654266 18.44924927 115.12432861 C13.06635543 117.68037096 13.06635543 117.68037096 10.090271 122.5801239 C9.74378359 125.81902139 9.71886341 128.92340019 9.8046875 132.1796875 C9.79664093 133.3475882 9.78859436 134.51548889 9.78030396 135.71878052 C9.76533518 139.43922107 9.81923385 143.15501333 9.875 146.875 C9.87694211 149.40104226 9.87438977 151.92709226 9.8671875 154.453125 C9.85936463 160.63645354 9.90803936 166.81739365 10 173 C11.73561254 172.05429807 13.47110288 171.10837188 15.20654297 170.16235352 C16.17300751 169.63561539 17.13947205 169.10887726 18.13522339 168.56617737 C22.14235821 166.37547117 26.13502911 164.15926887 30.125 161.9375 C34.5703125 159.46484375 34.5703125 159.46484375 36.80249023 158.2824707 C39.05443532 157.04498988 39.05443532 157.04498988 41.05883789 155.31713867 C43.45976325 153.50650912 45.02964774 152.55174125 48 152 C53.21215133 153.67853606 57.60975711 156.51182107 62.1875 159.4375 C63.44256979 160.20071593 64.69972135 160.96051957 65.95898438 161.71679688 C71.39716387 165.00812276 76.72324992 168.45723032 82 172 C79.60030318 174.65565787 77.03555811 176.27998553 73.93359375 178.046875 C72.90427734 178.63662109 71.87496094 179.22636719 70.81445312 179.83398438 C69.70005859 180.46626953 68.58566406 181.09855469 67.4375 181.75 C66.26598539 182.41941347 65.09476624 183.08934426 63.92382812 183.75976562 C61.49056166 185.15239997 59.05603768 186.54279747 56.62060547 187.93164062 C51.06842265 191.10029847 45.53533275 194.30203329 40 197.5 C37.8542007 198.7370382 35.70836716 199.97401702 33.5625 201.2109375 C29.60999399 203.49077154 25.66070654 205.77598098 21.71557617 208.06854248 C19.95024789 209.09415628 18.18421529 210.11854664 16.41796875 211.14257812 C14.2108368 212.42271466 12.00501077 213.70510666 9.80078125 214.99023438 C7.81011276 216.14359864 5.8103039 217.28136969 3.80053711 218.40112305 C0.99621901 219.95706692 0.99621901 219.95706692 -1.57983398 221.73364258 C-4.1089095 223.30867897 -6.08317088 224.37835258 -9 225 C-13.1955011 223.9405378 -16.47154404 221.79981837 -20.0625 219.4375 C-21.07127197 218.8199585 -22.08004395 218.20241699 -23.11938477 217.56616211 C-25.15746622 216.31620137 -27.18595284 215.05044922 -29.20410156 213.76855469 C-32.89361846 211.43473872 -36.66000232 209.24944786 -40.4375 207.0625 C-41.80034645 206.25797777 -43.16230154 205.45194401 -44.5234375 204.64453125 C-49.85557048 201.48865537 -55.20926195 198.36989853 -60.5625 195.25 C-61.5635376 194.66653809 -62.5645752 194.08307617 -63.59594727 193.48193359 C-65.66078428 192.27844359 -67.72564468 191.07499371 -69.79052734 189.87158203 C-73.12827188 187.92519913 -76.46468035 185.97654237 -79.80078125 184.02734375 C-80.90156006 183.38442383 -82.00233887 182.74150391 -83.13647461 182.07910156 C-85.26125771 180.83802961 -87.38577842 179.5965083 -89.51000977 178.35449219 C-90.46319092 177.79793945 -91.41637207 177.24138672 -92.3984375 176.66796875 C-93.24067871 176.17578857 -94.08291992 175.6836084 -94.95068359 175.17651367 C-96.27964476 174.41355634 -97.62938213 173.68530893 -99 173 C-99 172.34 -99 171.68 -99 171 C-97.31197266 170.07380859 -97.31197266 170.07380859 -95.58984375 169.12890625 C-94.03895106 168.27363954 -92.4881787 167.41815463 -90.9375 166.5625 C-90.12635742 166.11745117 -89.31521484 165.67240234 -88.47949219 165.21386719 C-84.47262918 162.9982708 -80.5266019 160.74012952 -76.67578125 158.26171875 C-76.0113501 157.83882568 -75.34691895 157.41593262 -74.66235352 156.98022461 C-73.41328173 156.17669177 -72.17476087 155.35644816 -70.94897461 154.51782227 C-69.234375 153.421875 -69.234375 153.421875 -66 152 C-61.73451166 153.07020205 -58.20567104 154.87436238 -54.4453125 157.1171875 C-52.90423828 158.02791016 -52.90423828 158.02791016 -51.33203125 158.95703125 C-50.27371094 159.58996094 -49.21539062 160.22289062 -48.125 160.875 C-41.51039947 164.81129602 -34.94352959 168.67045208 -28 172 C-24.25086124 168.25086124 -26.12056653 154.78538502 -25.99072266 149.68432617 C-25.91404855 147.28462069 -25.8050537 144.88571382 -25.66259766 142.48901367 C-24.39759653 129.67314948 -24.39759653 129.67314948 -28.50210571 118.0246582 C-32.43832698 114.6630186 -36.94630299 112.75406796 -41.74255371 110.91610718 C-45.13898977 109.53778005 -48.16454872 107.6600474 -51.27734375 105.7421875 C-53.49699826 104.45244054 -55.71704289 103.1633647 -57.9375 101.875 C-58.51072998 101.53984375 -59.08395996 101.2046875 -59.67456055 100.859375 C-61.3522727 99.87872549 -63.03349735 98.90409286 -64.71484375 97.9296875 C-65.68542725 97.36491699 -66.65601074 96.80014648 -67.65600586 96.21826172 C-69.8554908 94.84627687 -69.8554908 94.84627687 -72 95 C-71.98316162 96.24088379 -71.96632324 97.48176758 -71.94897461 98.76025391 C-71.89821476 103.37891928 -71.90673422 107.99592837 -71.93286133 112.61474609 C-71.93593728 114.61087994 -71.92308805 116.60710602 -71.89379883 118.60302734 C-71.66863352 135.03600119 -71.66863352 135.03600119 -74.63745117 139.41552734 C-77.01869844 141.03076576 -79.31330312 141.97479104 -82 143 C-84.03642168 144.18764637 -86.05525873 145.40579276 -88.05859375 146.6484375 C-90.18317528 147.89356548 -92.30950373 149.13571706 -94.4375 150.375 C-95.52482422 151.01566406 -96.61214844 151.65632812 -97.73242188 152.31640625 C-98.76818359 152.92097656 -99.80394531 153.52554688 -100.87109375 154.1484375 C-102.27766235 154.97093994 -102.27766235 154.97093994 -103.71264648 155.81005859 C-106 157 -106 157 -108 157 C-108 122.35 -108 87.7 -108 52 C-95.625 45.07 -95.625 45.07 -83 38 C-74.13215537 32.84092656 -74.13215537 32.84092656 -65.27734375 27.66015625 C-57.15124548 22.90725352 -48.97050629 18.25032091 -40.78979492 13.59228516 C-39.13814331 12.6513501 -39.13814331 12.6513501 -37.453125 11.69140625 C-35.85307617 10.78092529 -35.85307617 10.78092529 -34.22070312 9.85205078 C-29.9041975 7.36986373 -25.62638927 4.82348584 -21.35449219 2.26538086 C-19 1 -19 1 -17 1 C-17 14.2 -17 27.4 -17 41 C-29.5 48.1875 -29.5 48.1875 -33.39257812 50.42260742 C-38.21966632 53.2029892 -43.02795828 55.98231504 -47.71875 58.98828125 C-51 61 -51 61 -53 61 C-51.7220314 64.8339058 -50.52549332 65.10636815 -47.03125 67.00390625 C-45.99266846 67.5755249 -44.95408691 68.14714355 -43.8840332 68.73608398 C-42.76730225 69.33880127 -41.65057129 69.94151855 -40.5 70.5625 C-38.21112595 71.81306808 -35.92336909 73.06568301 -33.63671875 74.3203125 C-32.5079834 74.93938477 -31.37924805 75.55845703 -30.21630859 76.19628906 C-27.35850896 77.79894761 -24.55623865 79.45727509 -21.76953125 81.1796875 C-21.00640625 81.64947021 -20.24328125 82.11925293 -19.45703125 82.60327148 C-18.06451491 83.46963098 -16.67980146 84.34870789 -15.3046875 85.24243164 C-12.4225304 87.02168429 -10.57519179 88.04164418 -7.1472168 87.79345703 C-3.73379782 86.93288674 -1.24626597 85.69080399 1.78125 83.90234375 C3.4065564 82.95246582 3.4065564 82.95246582 5.06469727 81.98339844 C6.19834717 81.30825195 7.33199707 80.63310547 8.5 79.9375 C9.66999796 79.24818498 10.84049141 78.5597103 12.01147461 77.87207031 C14.30486395 76.5249658 16.59611773 75.17447104 18.88623047 73.82177734 C21.50253945 72.29104992 24.13083112 70.79538035 26.78515625 69.33203125 C27.76935547 68.78784546 27.76935547 68.78784546 28.7734375 68.23266602 C30.43099189 67.32223255 32.09229384 66.41863101 33.75390625 65.515625 C36.29407598 64.13362616 36.29407598 64.13362616 37 61 C36.30849854 60.74404053 35.61699707 60.48808105 34.90454102 60.22436523 C31.62104341 58.84025659 28.62147755 57.17807393 25.52734375 55.41015625 C24.92241592 55.06496445 24.3174881 54.71977264 23.69422913 54.36412048 C22.42180076 53.63697603 21.15028472 52.90823301 19.87963867 52.17797852 C17.94246324 51.06535067 16.00175343 49.95909208 14.06054688 48.85351562 C12.82009628 48.14360684 11.57985475 47.43333261 10.33984375 46.72265625 C9.21956787 46.08078369 8.09929199 45.43891113 6.94506836 44.77758789 C5.9731958 44.19098389 5.00132324 43.60437988 4 43 C3.21729736 42.61473145 2.43459473 42.22946289 1.62817383 41.83251953 C-1.15490413 38.70014839 -0.48738908 34.98536719 -0.390625 30.95703125 C-0.38496521 30.0734343 -0.37930542 29.18983734 -0.37347412 28.27946472 C-0.35107867 25.45659257 -0.30087727 22.63498862 -0.25 19.8125 C-0.22993906 17.89910687 -0.21168758 15.98569385 -0.1953125 14.07226562 C-0.15120357 9.38102158 -0.08215485 4.69072582 0 0 Z " fill="#4C4C4C" transform="translate(121,0)"/>
<path d="M0 0 C7.26337777 3.94040646 14.49426983 7.93296304 21.6875 12 C23.16899536 12.83748779 23.16899536 12.83748779 24.68041992 13.69189453 C32.74763223 18.26516147 40.76501268 22.92055632 48.76806641 27.60498047 C56.51666375 32.14003671 64.28434387 36.64091212 72.0625 41.125 C73.15087158 41.7526123 74.23924316 42.38022461 75.3605957 43.02685547 C80.56813821 46.02792295 85.7814694 49.01798252 91 52 C91 86.98 91 121.96 91 158 C90.67 158 90.34 158 90 158 C90 123.68 90 89.36 90 54 C74.57802977 62.63630333 59.22183805 71.30441154 43.98388672 80.25 C40.99295382 82.00413247 37.99907128 83.75310472 35.00390625 85.5 C34.01173096 86.0787085 33.01955566 86.65741699 31.99731445 87.25366211 C30.01355916 88.40946578 28.02903196 89.56394568 26.04370117 90.71704102 C20.77128363 93.78274326 15.52184148 96.88134646 10.296875 100.02734375 C9.20117188 100.68154297 8.10546875 101.33574219 6.9765625 102.00976562 C4.86634726 103.27052982 2.76189116 104.54099686 0.6640625 105.82226562 C-0.28210938 106.38494141 -1.22828125 106.94761719 -2.203125 107.52734375 C-3.03489258 108.02999756 -3.86666016 108.53265137 -4.72363281 109.05053711 C-7.45351722 110.18916007 -8.29455558 110.10678751 -11 109 C-12.77813083 108.11067193 -14.52983686 107.16774574 -16.26171875 106.19140625 C-17.28918213 105.61455078 -18.31664551 105.03769531 -19.37524414 104.44335938 C-21.01481079 103.51233398 -21.01481079 103.51233398 -22.6875 102.5625 C-23.81728271 101.92505859 -24.94706543 101.28761719 -26.11108398 100.63085938 C-34.36538222 95.96081129 -42.55655925 91.19302852 -50.71191406 86.35302734 C-63.59577387 78.73433858 -76.55526806 71.24169089 -89.5149231 63.7527771 C-91.2179272 62.76853628 -92.92037045 61.78332525 -94.62280273 60.7980957 C-96.17849976 59.90030396 -96.17849976 59.90030396 -97.765625 58.984375 C-98.68118164 58.45553711 -99.59673828 57.92669922 -100.54003906 57.38183594 C-102.6591381 56.19147264 -104.8260551 55.08697245 -107 54 C-106.67 87.99 -106.34 121.98 -106 157 C-106.66 157 -107.32 157 -108 157 C-108 122.35 -108 87.7 -108 52 C-95.625 45.07 -95.625 45.07 -83 38 C-74.13215537 32.84092656 -74.13215537 32.84092656 -65.27734375 27.66015625 C-57.15124548 22.90725352 -48.97050629 18.25032091 -40.78979492 13.59228516 C-39.13814331 12.6513501 -39.13814331 12.6513501 -37.453125 11.69140625 C-35.85307617 10.78092529 -35.85307617 10.78092529 -34.22070312 9.85205078 C-29.9041975 7.36986373 -25.62638927 4.82348584 -21.35449219 2.26538086 C-19 1 -19 1 -17 1 C-17 14.2 -17 27.4 -17 41 C-29.5 48.1875 -29.5 48.1875 -33.39257812 50.42260742 C-38.21966632 53.2029892 -43.02795828 55.98231504 -47.71875 58.98828125 C-51 61 -51 61 -53 61 C-51.7220314 64.8339058 -50.52549332 65.10636815 -47.03125 67.00390625 C-45.99266846 67.5755249 -44.95408691 68.14714355 -43.8840332 68.73608398 C-42.76730225 69.33880127 -41.65057129 69.94151855 -40.5 70.5625 C-38.21112595 71.81306808 -35.92336909 73.06568301 -33.63671875 74.3203125 C-32.5079834 74.93938477 -31.37924805 75.55845703 -30.21630859 76.19628906 C-27.35850896 77.79894761 -24.55623865 79.45727509 -21.76953125 81.1796875 C-21.00640625 81.64947021 -20.24328125 82.11925293 -19.45703125 82.60327148 C-18.06451491 83.46963098 -16.67980146 84.34870789 -15.3046875 85.24243164 C-12.4225304 87.02168429 -10.57519179 88.04164418 -7.1472168 87.79345703 C-3.73379782 86.93288674 -1.24626597 85.69080399 1.78125 83.90234375 C3.4065564 82.95246582 3.4065564 82.95246582 5.06469727 81.98339844 C6.19834717 81.30825195 7.33199707 80.63310547 8.5 79.9375 C9.66999796 79.24818498 10.84049141 78.5597103 12.01147461 77.87207031 C14.30486395 76.5249658 16.59611773 75.17447104 18.88623047 73.82177734 C21.50253945 72.29104992 24.13083112 70.79538035 26.78515625 69.33203125 C27.76935547 68.78784546 27.76935547 68.78784546 28.7734375 68.23266602 C30.43099189 67.32223255 32.09229384 66.41863101 33.75390625 65.515625 C36.29407598 64.13362616 36.29407598 64.13362616 37 61 C36.30849854 60.74404053 35.61699707 60.48808105 34.90454102 60.22436523 C31.62104341 58.84025659 28.62147755 57.17807393 25.52734375 55.41015625 C24.92241592 55.06496445 24.3174881 54.71977264 23.69422913 54.36412048 C22.42180076 53.63697603 21.15028472 52.90823301 19.87963867 52.17797852 C17.94246324 51.06535067 16.00175343 49.95909208 14.06054688 48.85351562 C12.82009628 48.14360684 11.57985475 47.43333261 10.33984375 46.72265625 C9.21956787 46.08078369 8.09929199 45.43891113 6.94506836 44.77758789 C5.9731958 44.19098389 5.00132324 43.60437988 4 43 C3.21729736 42.61473145 2.43459473 42.22946289 1.62817383 41.83251953 C-1.15490413 38.70014839 -0.48738908 34.98536719 -0.390625 30.95703125 C-0.38496521 30.0734343 -0.37930542 29.18983734 -0.37347412 28.27946472 C-0.35107867 25.45659257 -0.30087727 22.63498862 -0.25 19.8125 C-0.22993906 17.89910687 -0.21168758 15.98569385 -0.1953125 14.07226562 C-0.15120357 9.38102158 -0.08215485 4.69072582 0 0 Z " fill="#7F7F7F" transform="translate(121,0)"/>
<path d="M0 0 C0 33.99 0 67.98 0 103 C-4.15459563 101.33816175 -7.71500096 99.55330794 -11.578125 97.33984375 C-12.19016785 96.9899086 -12.80221069 96.63997345 -13.43280029 96.2794342 C-14.71779798 95.54386137 -16.00190345 94.80672792 -17.28515625 94.06811523 C-19.25568288 92.93422994 -21.22915492 91.80561226 -23.203125 90.67773438 C-32.85236383 85.14763617 -32.85236383 85.14763617 -34 84 C-34.12185143 82.65016252 -34.17766831 81.29425299 -34.20532227 79.93920898 C-34.2352401 78.64798378 -34.2352401 78.64798378 -34.26576233 77.33067322 C-34.28247482 76.39526199 -34.29918732 75.45985077 -34.31640625 74.49609375 C-34.33718735 73.54307877 -34.35796844 72.59006378 -34.37937927 71.60816956 C-34.44498177 68.5513559 -34.50380918 65.49445344 -34.5625 62.4375 C-34.60567506 60.37043337 -34.64928901 58.30337586 -34.69335938 56.23632812 C-34.80067401 51.15764405 -34.90191091 46.0788703 -35 41 C-42.5479005 44.63305332 -49.78581538 48.6849762 -57 52.9375 C-58.01578125 53.53240234 -59.0315625 54.12730469 -60.078125 54.74023438 C-63.05609403 56.48692775 -66.03101222 58.23807536 -69 60 C-69.84174774 60.37102844 -70.68349548 60.74205688 -71.55075073 61.12432861 C-76.93364457 63.68037096 -76.93364457 63.68037096 -79.909729 68.5801239 C-80.25621641 71.81902139 -80.28113659 74.92340019 -80.1953125 78.1796875 C-80.20335907 79.3475882 -80.21140564 80.51548889 -80.21969604 81.71878052 C-80.23466482 85.43922107 -80.18076615 89.15501333 -80.125 92.875 C-80.12305789 95.40104226 -80.12561023 97.92709226 -80.1328125 100.453125 C-80.14063537 106.63645354 -80.09196064 112.81739365 -80 119 C-78.26438746 118.05429807 -76.52889712 117.10837188 -74.79345703 116.16235352 C-73.82699249 115.63561539 -72.86052795 115.10887726 -71.86477661 114.56617737 C-67.85764179 112.37547117 -63.86497089 110.15926887 -59.875 107.9375 C-55.4296875 105.46484375 -55.4296875 105.46484375 -53.19750977 104.2824707 C-50.94556468 103.04498988 -50.94556468 103.04498988 -48.94116211 101.31713867 C-46.54023675 99.50650912 -44.97035226 98.55174125 -42 98 C-36.78784867 99.67853606 -32.39024289 102.51182107 -27.8125 105.4375 C-26.55743021 106.20071593 -25.30027865 106.96051957 -24.04101562 107.71679688 C-18.60283613 111.00812276 -13.27675008 114.45723032 -8 118 C-10.39969682 120.65565787 -12.96444189 122.27998553 -16.06640625 124.046875 C-17.09572266 124.63662109 -18.12503906 125.22636719 -19.18554688 125.83398438 C-20.29994141 126.46626953 -21.41433594 127.09855469 -22.5625 127.75 C-23.73401461 128.41941347 -24.90523376 129.08934426 -26.07617188 129.75976562 C-28.50943834 131.15239997 -30.94396232 132.54279747 -33.37939453 133.93164062 C-38.93157598 137.10029769 -44.46480257 140.30180133 -50 143.5 C-52.14184017 144.73582773 -54.28376781 145.97150388 -56.42578125 147.20703125 C-60.40462432 149.50249458 -64.38330773 151.79823414 -68.36178589 154.09432983 C-70.15066918 155.12673478 -71.93958717 156.15907956 -73.72851562 157.19140625 C-75.97337636 158.48685948 -78.2181719 159.7824257 -80.46289062 161.078125 C-82.44501637 162.2219008 -84.42786907 163.36441823 -86.41162109 164.50537109 C-88.01795749 165.43293112 -89.62060459 166.36695074 -91.21728516 167.31103516 C-95.79076325 170 -95.79076325 170 -98 170 C-98.30414993 155.27510788 -98.53314734 140.55063309 -98.67355824 125.82323456 C-98.74049881 118.98427628 -98.83168767 112.14727312 -98.98071289 105.30957031 C-99.12450056 98.70901494 -99.19972133 92.10995414 -99.23340416 85.50776672 C-99.25740159 82.99091137 -99.30426821 80.47416563 -99.37449074 77.95817566 C-99.88918416 58.75107188 -99.88918416 58.75107188 -96.75935555 54.19334602 C-93.32772811 50.97171303 -89.41446272 49.5513363 -85 48 C-82.96332871 46.86067606 -80.94492883 45.68728075 -78.95703125 44.46484375 C-76.90994449 43.28716522 -74.86173171 42.1114422 -72.8125 40.9375 C-71.11168147 39.9595355 -69.41086461 38.98156809 -67.71014404 38.00343323 C-65.96320818 36.99905965 -64.21579442 35.9955222 -62.46826172 34.9921875 C-56.93379094 31.81315881 -51.4039748 28.62607543 -45.875 25.4375 C-44.81216797 24.82471191 -43.74933594 24.21192383 -42.65429688 23.58056641 C-34.02872995 18.6031686 -25.4227051 13.59268612 -16.82568359 8.56616211 C-15.01826762 7.50960843 -13.21005999 6.45440725 -11.40087891 5.40087891 C-9.87904949 4.51291295 -8.36011341 3.61995406 -6.84521484 2.72021484 C-2.21858574 0 -2.21858574 0 0 0 Z " fill="#020202" transform="translate(211,54)"/>
</svg>
