<?xml version="1.0" encoding="UTF-8"?>
<svg version="1.1" xmlns="http://www.w3.org/2000/svg" width="1339" height="1215">
<path d="M0 0 C2.11855772 0.89786103 4.23770999 1.79432032 6.35742188 2.68945312 C10.6535352 4.50470541 14.94725084 6.32545183 19.23925781 8.15039062 C27.27329014 11.56108542 35.3371336 14.89865995 43.4045105 18.22952271 C47.5824164 19.9552771 51.75801052 21.68660365 55.93359375 23.41796875 C57.19505974 23.94093788 57.19505974 23.94093788 58.48200989 24.47447205 C75.08517449 31.36002828 91.67206868 38.28479656 108.26220703 45.20166016 C117.30153992 48.97025551 126.3418267 52.73656142 135.38204956 56.50302124 C140.37973953 58.58525192 145.37736655 60.66763367 150.375 62.75 C152.3749997 63.58333406 154.3749997 64.41666739 156.375 65.25 C216.37500001 90.25000001 216.37500001 90.25000001 219.37451172 91.49981689 C221.37612007 92.3338068 223.3777477 93.16775043 225.37939453 94.00164795 C230.35494535 96.0745582 235.33016714 98.14825078 240.3046875 100.22363281 C249.59547591 104.09880523 258.88926787 107.96622516 268.19433594 111.80700684 C272.54354824 113.60274327 276.89097536 115.40277908 281.23828125 117.203125 C283.29208557 118.0522695 285.34674271 118.89935491 287.40234375 119.74414062 C323.69964244 134.66314985 357.12399769 154.09941743 373.375 191.75 C374.7419284 195.15664724 375.99073537 198.59264727 377.1875 202.0625 C377.46561523 202.85479004 377.74373047 203.64708008 378.03027344 204.46337891 C383.67180383 221.78995488 383.81618642 239.25117235 383.76040266 257.29661196 C383.75270801 260.87721053 383.76260534 264.45777138 383.77013266 268.03836441 C383.78091081 274.29768051 383.78067434 280.55691883 383.77299118 286.8162384 C383.76159696 296.12439274 383.76746912 305.43248203 383.7766161 314.74063599 C383.79237984 331.36943207 383.79105752 347.99819348 383.78237936 364.62699282 C383.77482241 379.17943284 383.77286738 393.73186018 383.7764473 408.28430176 C383.77667645 409.25089494 383.77690561 410.21748813 383.77714171 411.21337202 C383.77807577 415.13742915 383.77903098 419.06148627 383.780021 422.98554339 C383.78919088 459.77027814 383.7808889 496.55499086 383.76473031 533.33972222 C383.75049428 565.99602453 383.7517682 598.65229174 383.76611328 631.30859375 C383.7821892 668.02753614 383.78854047 704.74645908 383.77927649 741.46540451 C383.77831439 745.38216908 383.77737586 749.29893366 383.7764473 753.21569824 C383.77609145 754.66223032 383.77609145 754.66223032 383.77572841 756.13798526 C383.77232096 770.67862475 383.77629756 785.21925015 383.78388596 799.7598877 C383.79247443 816.29896231 383.79029643 832.83799696 383.77404372 849.37706661 C383.76525492 858.62491619 383.76463075 867.87267912 383.77598225 877.12052639 C383.78273656 883.30722657 383.77847394 889.49385765 383.76546794 895.68054764 C383.75837061 899.19907192 383.75580911 902.71742478 383.76668589 906.23594332 C383.85784458 943.99454224 376.1510538 976.83550854 349.375 1004.75 C348.61703125 1005.57113281 347.8590625 1006.39226563 347.078125 1007.23828125 C338.61730843 1016.1276686 329.04991038 1023.15645335 318.046875 1028.56640625 C317.35949249 1028.90669357 316.67210999 1029.2469809 315.96389771 1029.59757996 C307.8583055 1033.56021882 299.56646962 1037.07090841 291.25 1040.5625 C289.50966879 1041.29754095 287.76943716 1042.03281772 286.02929688 1042.76831055 C270.10586231 1049.48660016 254.12869278 1056.07557285 238.1484375 1062.65725708 C225.25237436 1067.96903209 212.37254797 1073.31900884 199.5 1078.6875 C198.01077026 1079.30850082 198.01077026 1079.30850082 196.49145508 1079.94204712 C191.46320133 1082.03890146 186.43515649 1084.13625606 181.40722656 1086.23388672 C172.39706051 1089.99258702 163.38494922 1093.7466187 154.37298584 1097.50100708 C149.37357772 1099.5838139 144.37429521 1101.66692219 139.375 1103.75 C137.3750006 1104.58333478 135.3750006 1105.41666811 133.375 1106.25 C132.385 1106.6625 131.395 1107.075 130.375 1107.5 C73.37499999 1131.25 73.37499999 1131.25 70.37545776 1132.49978638 C68.37391022 1133.33377979 66.37238436 1134.16782526 64.37088013 1135.00192261 C59.39473345 1137.07558253 54.41822254 1139.14835901 49.44091797 1141.21923828 C40.15635795 1145.083299 30.87560662 1148.95581172 21.60723877 1152.85858154 C17.28008871 1154.68006158 12.9509112 1156.49669475 8.62158203 1158.31298828 C6.57955369 1159.17125985 4.5384956 1160.03184447 2.49853516 1160.89501953 C-7.05234578 1164.93571535 -16.5972218 1168.89260584 -26.4296875 1172.203125 C-27.12577118 1172.4386911 -27.82185486 1172.6742572 -28.53903198 1172.91696167 C-58.56802908 1182.68774473 -92.75664103 1178.83177793 -120.81884766 1164.86035156 C-132.33094067 1158.78995603 -142.18308729 1150.62969725 -151.625 1141.75 C-152.52798828 1140.94369141 -152.52798828 1140.94369141 -153.44921875 1140.12109375 C-164.32188485 1130.00875395 -171.88561799 1115.86772715 -179.85693359 1103.48876953 C-182.92846935 1098.73090042 -186.02825406 1093.99148242 -189.125 1089.25 C-196.50061669 1077.94644518 -203.85660411 1066.63020009 -211.20898438 1055.31152344 C-217.5056543 1045.61867914 -223.8092298 1035.93041197 -230.125 1026.25 C-237.50001195 1014.94604945 -244.85660315 1003.63020156 -252.20898438 992.31152344 C-259.1415654 981.63978277 -266.08472539 970.9750343 -273.03857422 960.31713867 C-277.60367063 953.31924147 -282.15937991 946.31530185 -286.7109375 939.30859375 C-290.84181992 932.95106495 -294.98208172 926.5996909 -299.125 920.25 C-303.83909765 913.02456959 -308.54852164 905.79614803 -313.25 898.5625 C-313.77126465 897.76142822 -314.2925293 896.96035645 -314.82958984 896.13500977 C-317.63714725 891.81846634 -320.43401665 887.49537088 -323.21875 883.1640625 C-323.80962402 882.24778076 -324.40049805 881.33149902 -325.00927734 880.38745117 C-326.14288119 878.62917277 -327.27356785 876.86900906 -328.40087891 875.10668945 C-328.91054199 874.31738037 -329.42020508 873.52807129 -329.9453125 872.71484375 C-330.39148926 872.0199585 -330.83766602 871.32507324 -331.29736328 870.60913086 C-332.60057304 868.78420583 -333.99359834 867.28306323 -335.625 865.75 C-342.00766914 874.54869897 -348.3726977 883.35802332 -354.625 892.25 C-361.41707372 901.90525609 -368.3432025 911.46205982 -375.27050781 921.02050781 C-381.09962861 929.06628773 -386.90827116 937.12384972 -392.625 945.25 C-398.33383524 953.36492977 -404.13555071 961.41033077 -409.95751953 969.44433594 C-411.6729696 971.81632868 -413.38217348 974.19271373 -415.08984375 976.5703125 C-439.28539085 1010.24190448 -464.72736235 1033.30897405 -506.46972656 1041.29418945 C-520.67829712 1043.34675841 -537.50413248 1042.96786345 -551.5625 1040.125 C-552.26133301 1039.98489502 -552.96016602 1039.84479004 -553.68017578 1039.70043945 C-570.84043763 1035.69504655 -586.52071488 1027.09456465 -602.14726448 1019.2503171 C-605.56903541 1017.53485833 -608.99544575 1015.82870954 -612.42123413 1014.12129211 C-619.11075455 1010.78537539 -625.7959692 1007.44091943 -632.47962525 1004.09327127 C-637.91536516 1001.37086574 -643.35267699 998.65162416 -648.79109955 995.93458176 C-649.5681189 995.54637854 -650.34513826 995.15817533 -651.14570366 994.75820839 C-652.72468079 993.96935933 -654.30366148 993.18051742 -655.8826457 992.39168255 C-670.65056188 985.01341273 -685.41357892 977.62538453 -700.17490944 970.23394994 C-712.81787204 963.90353026 -725.46501057 957.58152121 -738.11523438 951.265625 C-752.83973558 943.91409633 -767.561608 936.55734494 -782.27937007 929.19233263 C-783.85096455 928.40589835 -785.42256235 927.6194707 -786.99416351 926.83304977 C-787.76723426 926.44620585 -788.54030501 926.05936193 -789.33680214 925.66079546 C-794.76307505 922.94593814 -800.1911857 920.23477856 -805.62003326 917.52507401 C-812.2415189 914.21996124 -818.86008926 910.90909374 -825.47507575 907.59099127 C-828.84473671 905.90093322 -832.21558387 904.21337363 -835.59000015 902.53282738 C-839.25901188 900.70545517 -842.92161958 898.86558855 -846.58380127 897.02456665 C-848.16087038 896.24272426 -848.16087038 896.24272426 -849.76979947 895.44508708 C-860.01871419 890.26698036 -869.61967375 884.09531511 -878.25 876.5 C-878.88115723 875.94626709 -879.51231445 875.39253418 -880.16259766 874.82202148 C-904.33964172 853.15635786 -917.4885553 822.4635335 -919.79396071 790.40010554 C-920.04344581 785.06539137 -920.02509038 779.73304375 -919.9992218 774.39385986 C-920.00197175 772.64320884 -920.00603176 770.89255949 -920.01126546 769.14191413 C-920.02172396 764.39505847 -920.01380805 759.64839464 -920.00251496 754.90154767 C-919.99359283 749.75770641 -920.00213928 744.61388813 -920.00837708 739.470047 C-920.01782003 729.41955865 -920.01130533 719.36914258 -919.99911413 709.31865963 C-919.98543079 697.59759562 -919.9871375 685.87654842 -919.98924746 674.15547845 C-919.99243063 653.23531072 -919.98080727 632.31517714 -919.96118164 611.39501953 C-919.94217063 591.12450115 -919.9350975 570.85402276 -919.94067383 550.58349609 C-919.94673923 528.46997415 -919.94654136 506.35646974 -919.935188 484.24294925 C-919.93398079 481.88271761 -919.93277481 479.52248597 -919.93157005 477.16225433 C-919.93096651 476.00118684 -919.93036298 474.84011934 -919.92974115 473.64386798 C-919.92587162 465.48532697 -919.92625183 457.32679252 -919.9281559 449.16825104 C-919.93028359 439.22079792 -919.92501011 429.27337971 -919.91054235 419.32593641 C-919.90332703 414.25658273 -919.8991968 409.18727976 -919.90378571 404.11792183 C-919.9078921 399.46834661 -919.90261239 394.81887563 -919.89015963 390.16931614 C-919.88725611 388.49669528 -919.88762841 386.82406443 -919.89180271 385.15144625 C-919.92402078 370.94035125 -919.064695 356.96371262 -915 343.25 C-914.6141272 341.92863037 -914.6141272 341.92863037 -914.22045898 340.58056641 C-905.16211673 310.99301633 -883.87013575 285.02784212 -856.79252887 270.19879794 C-853.60074445 268.51773856 -850.39711279 266.8621584 -847.18685913 265.21664429 C-845.99074056 264.6004394 -844.79471741 263.98404928 -843.59878385 263.3674854 C-831.36166356 257.06816904 -819.06584593 250.88542113 -806.76025391 244.72119141 C-804.30745383 243.49106856 -801.85491695 242.26042129 -799.40234375 241.02984619 C-792.15339113 237.39332979 -784.90261758 233.7604529 -777.65144449 230.12836653 C-775.59536744 229.09845934 -773.53933715 228.06845888 -771.48332167 227.03842878 C-758.63172362 220.60002848 -745.77948158 214.16291547 -732.92534828 207.72957802 C-729.97545194 206.25316587 -727.02556242 204.77674011 -724.07568359 203.30029297 C-723.34282573 202.93349101 -722.60996787 202.56668906 -721.85490219 202.18877189 C-709.95615268 196.23305583 -698.0615495 190.26910646 -686.16858716 184.30184384 C-673.8825139 178.13751853 -661.59262258 171.98085974 -649.29906404 165.83147562 C-642.42664468 162.39357083 -635.55587981 158.95245088 -628.68944168 155.50261307 C-622.85236748 152.56996759 -617.0118328 149.64435638 -611.16688521 146.72743256 C-608.19652511 145.24481571 -605.22841181 143.75813109 -602.26354599 142.26453018 C-564.99225197 123.49625445 -527.98425957 112.20255984 -486.6875 125.3125 C-457.71403347 135.19104223 -436.32270134 154.58372652 -419.21777344 179.45166016 C-416.57858034 183.2599624 -413.84767094 187.00117629 -411.125 190.75 C-410.04255272 192.24839746 -408.96052158 193.74709564 -407.87890625 195.24609375 C-405.70170977 198.26092519 -403.52177083 201.27374694 -401.33984375 204.28515625 C-395.5551375 212.27356012 -389.8170321 220.29115819 -384.14208984 228.35791016 C-378.91815199 235.77347058 -373.60125411 243.12093182 -368.27929688 250.46630859 C-365.49581797 254.30879114 -362.71626953 258.1541109 -359.9375 262 C-359.39722168 262.74765625 -358.85694336 263.4953125 -358.30029297 264.265625 C-354.55004183 269.45915807 -350.82107856 274.66748769 -347.10327148 279.88427734 C-343.31264692 285.19885402 -339.47602175 290.47904844 -335.625 295.75 C-331.86527139 292.34627341 -329.36600912 288.50254899 -326.6875 284.25 C-325.70477832 282.7107132 -324.72169057 281.17166007 -323.73828125 279.6328125 C-323.2273291 278.83004883 -322.71637695 278.02728516 -322.18994141 277.20019531 C-319.60910385 273.15943312 -316.99131709 269.14284412 -314.375 265.125 C-313.83689697 264.29742187 -313.29879395 263.46984375 -312.74438477 262.6171875 C-307.90924896 255.18135081 -303.06280128 247.75290008 -298.21630859 240.32446289 C-292.00780233 230.80704503 -285.81509998 221.27939559 -279.625 211.75 C-272.16616835 200.26744598 -264.69760897 188.79134158 -257.21582031 177.32373047 C-251.00749847 167.80654261 -244.81494016 158.27914956 -238.625 148.75 C-231.16473003 137.26523174 -223.69491481 125.7867934 -216.21142578 114.31713867 C-212.17654956 108.13202306 -208.14791053 101.94290414 -204.125 95.75 C-198.83423923 87.60535596 -193.53280436 79.46772226 -188.22192383 71.33618164 C-185.18115962 66.67859978 -182.14817077 62.01644154 -179.13671875 57.33984375 C-156.73487631 22.57320004 -131.87719712 -4.63059253 -89.6640625 -13.859375 C-57.69412839 -19.98388345 -29.32703668 -12.58968634 0 0 Z M56.375 317.75 C54.58605974 320.18666002 52.8464681 322.64110572 51.125 325.125 C50.02952575 326.69202175 48.93314129 328.25840751 47.8359375 329.82421875 C47.26584961 330.63810059 46.69576172 331.45198242 46.10839844 332.29052734 C43.3553158 336.19680263 40.55436043 340.06794972 37.75 343.9375 C33.94169246 349.1966448 30.14255953 354.46157664 26.375 359.75 C22.60743835 365.03842633 18.80792858 370.30307864 15 375.5625 C10.75257019 381.43131403 6.54260248 387.32424407 2.375 393.25 C-4.41718798 402.90517744 -11.34320101 412.46205777 -18.27050781 422.02050781 C-24.09962861 430.06628773 -29.90827116 438.12384972 -35.625 446.25 C-41.34291991 454.37784334 -47.15324095 462.43666044 -52.98388672 470.48388672 C-55.70148163 474.23644785 -58.41301939 477.99338045 -61.125 481.75 C-64.38369057 486.26391895 -67.6436666 490.77687665 -70.91015625 495.28515625 C-76.19080422 502.57747964 -81.4445134 509.8861012 -86.625 517.25 C-93.41732824 526.90508101 -100.34319915 536.4620552 -107.27050781 546.02050781 C-110.51828536 550.50332851 -113.75805086 554.99176295 -116.99023438 559.48583984 C-118.68777488 561.83694358 -120.39840926 564.17818456 -122.109375 566.51953125 C-123.21918091 568.05437602 -124.32857096 569.58952158 -125.4375 571.125 C-125.95965088 571.83277588 -126.48180176 572.54055176 -127.01977539 573.26977539 C-127.49406982 573.93098389 -127.96836426 574.59219238 -128.45703125 575.2734375 C-128.87702393 575.85013184 -129.2970166 576.42682617 -129.72973633 577.02099609 C-130.93153889 579.01750602 -130.93153889 579.01750602 -130.625 582.75 C-129.60753236 584.81253209 -129.60753236 584.81253209 -128.1328125 586.83984375 C-127.59785156 587.61714844 -127.06289063 588.39445312 -126.51171875 589.1953125 C-125.93035156 590.01773437 -125.34898437 590.84015625 -124.75 591.6875 C-124.15574219 592.54214844 -123.56148437 593.39679688 -122.94921875 594.27734375 C-118.87015962 600.10206475 -114.60221727 605.73208739 -110.2109375 611.32421875 C-107.04200228 615.4443293 -104.15917327 619.75714606 -101.25 624.0625 C-96.69764237 630.79729377 -91.99048114 637.36408463 -87.07250977 643.83569336 C-82.9877631 649.22455359 -79.07472446 654.72041705 -75.19287109 660.2565918 C-71.56391084 665.4293021 -67.89164588 670.56836817 -64.1875 675.6875 C-63.64818848 676.43298096 -63.10887695 677.17846191 -62.55322266 677.9465332 C-60.91120719 680.21488195 -59.26827952 682.48256684 -57.625 684.75 C-50.74174383 694.24766801 -43.89115918 703.76432033 -37.14208984 713.35791016 C-31.37685476 721.54186072 -25.49946007 729.644291 -19.625 737.75 C-12.74174383 747.24766801 -5.89115918 756.76432033 0.85791016 766.35791016 C6.08184801 773.77347058 11.39874589 781.12093182 16.72070312 788.46630859 C19.50418202 792.30879112 22.28374599 796.1540997 25.0625 800 C25.60640381 800.75273193 26.15030762 801.50546387 26.71069336 802.28100586 C29.94561018 806.76113806 33.16712988 811.25047116 36.375 815.75 C38.04084967 818.08391759 39.70777273 820.41706635 41.375 822.75 C41.91753418 823.50974121 42.46006836 824.26948242 43.01904297 825.05224609 C44.78052308 827.51616592 46.54610873 829.97709928 48.3125 832.4375 C48.86873047 833.21673828 49.42496094 833.99597656 49.99804688 834.79882812 C50.78598633 835.89420898 50.78598633 835.89420898 51.58984375 837.01171875 C52.05511475 837.66100342 52.52038574 838.31028809 52.99975586 838.97924805 C54.54449701 841.04423299 54.54449701 841.04423299 57.375 843.75 C57.375 670.17 57.375 496.59 57.375 317.75 C57.045 317.75 56.715 317.75 56.375 317.75 Z M-647.625 384.75 C-647.625 514.11 -647.625 643.47 -647.625 776.75 C-645.28407291 773.82384113 -643.11444433 771.10994497 -641.06640625 768.02734375 C-640.60516357 767.33487549 -640.1439209 766.64240723 -639.66870117 765.92895508 C-638.93550659 764.81943481 -638.93550659 764.81943481 -638.1875 763.6875 C-637.40306519 762.50546997 -637.40306519 762.50546997 -636.6027832 761.29956055 C-631.13199994 753.03847444 -625.74125565 744.72554868 -620.35205078 736.41113281 C-617.32583191 731.74817187 -614.287671 727.09300537 -611.25 722.4375 C-610.31063599 720.9975769 -610.31063599 720.9975769 -609.35229492 719.52856445 C-608.078988 717.57679082 -606.80563172 715.62504938 -605.53222656 713.67333984 C-602.39583992 708.86598019 -599.26046604 704.05796012 -596.125 699.25 C-594.87500497 697.33333009 -593.62500496 695.41666343 -592.375 693.5 C-591.75625 692.55125 -591.1375 691.6025 -590.5 690.625 C-554.875 636 -554.875 636 -552.99853516 633.12280273 C-551.75335834 631.21349917 -550.50824079 629.30415696 -549.26318359 627.39477539 C-545.40808121 621.48291178 -541.55114739 615.57225111 -537.69116211 609.66357422 C-536.41341259 607.70460469 -535.13811713 605.74403194 -533.86547852 603.78173828 C-531.15997644 599.61167708 -528.44254476 595.45844215 -525.61328125 591.37109375 C-525.1754834 590.7272876 -524.73768555 590.08348145 -524.28662109 589.42016602 C-523.16062703 587.76890268 -522.01668616 586.12991497 -520.87109375 584.4921875 C-519.31600944 581.86601739 -519.31600944 581.86601739 -520.31079102 579.44311523 C-521.79155752 576.40868549 -523.51129719 573.71347319 -525.40625 570.91796875 C-525.96082886 570.09444664 -525.96082886 570.09444664 -526.52661133 569.25428772 C-527.31490307 568.08421097 -528.10515695 566.91545411 -528.8972168 565.7479248 C-530.96272867 562.70222918 -533.01292432 559.64627783 -535.0625 556.58984375 C-535.46432495 555.99104401 -535.8661499 555.39224426 -536.28015137 554.77529907 C-539.31795145 550.23689233 -542.26326931 545.65098379 -545.125 541 C-548.52983764 535.47134566 -552.05585055 530.04456239 -555.67700195 524.65527344 C-559.10313541 519.55069731 -562.46702318 514.4077573 -565.8125 509.25 C-566.62618042 507.99558105 -566.62618042 507.99558105 -567.45629883 506.71582031 C-568.58986944 504.96811562 -569.72341377 503.22039388 -570.85693359 501.47265625 C-573.93879256 496.72688283 -577.03235536 491.98874889 -580.125 487.25 C-584.79831106 480.08763635 -589.46616828 472.92179035 -594.125 465.75 C-600.64338008 455.71625775 -607.17960377 445.69419458 -613.71777344 435.67333984 C-616.23153982 431.8203139 -618.74467937 427.96687946 -621.25756836 424.11328125 C-622.49502353 422.21592548 -623.73281242 420.31878732 -624.97094727 418.421875 C-628.26557447 413.37338288 -631.55326898 408.32053139 -634.83203125 403.26171875 C-635.51910156 402.20339844 -636.20617187 401.14507812 -636.9140625 400.0546875 C-638.2376706 398.01561557 -639.55936437 395.9752994 -640.87890625 393.93359375 C-641.471875 393.0209375 -642.06484375 392.10828125 -642.67578125 391.16796875 C-643.45949097 389.95790161 -643.45949097 389.95790161 -644.2590332 388.72338867 C-645.61045238 386.64524003 -645.61045238 386.64524003 -647.625 384.75 Z " fill="#AC5DE7" transform="translate(941.625,24.25)"/>
<path d="M0 0 C7.77358862 2.41189468 15.22173105 5.50713581 22.7142334 8.66244507 C25.89264046 10.00089817 29.07409344 11.33204462 32.25531006 12.6638031 C33.94186649 13.36994532 35.62826556 14.07646347 37.31451416 14.78334045 C45.61047836 18.26014991 53.91986676 21.70423752 62.23098755 25.1446228 C84.131226 34.21137405 106.00965687 43.33033563 127.88720703 52.45166016 C136.92653992 56.22025551 145.9668267 59.98656142 155.00704956 63.75302124 C160.00473953 65.83525192 165.00236655 67.91763367 170 70 C171.9999997 70.83333406 173.9999997 71.66666739 176 72.5 C187.99999998 77.49999999 187.99999998 77.49999999 190.99992371 78.74996948 C193.00017682 79.58340743 195.00043113 80.41684249 197.00068665 81.25027466 C201.99682394 83.33198371 206.9929404 85.41374277 211.98901367 87.49560547 C223.06592563 92.11128171 234.14320654 96.72606906 245.2215271 101.33836365 C250.242323 103.42893817 255.26247686 105.52102879 260.28125 107.61645508 C269.1893958 111.33498376 278.09983262 115.046847 287.02885437 118.71502686 C290.92883045 120.31846895 294.82560778 121.92959592 298.72201538 123.54168701 C300.53480862 124.28939527 302.34906028 125.03358018 304.16494751 125.77374268 C337.37341015 139.31394497 366.35287504 160.06530616 381 194 C382.3669284 197.40664724 383.61573537 200.84264727 384.8125 204.3125 C385.09061523 205.10479004 385.36873047 205.89708008 385.65527344 206.71337891 C391.29680383 224.03995488 391.44118642 241.50117235 391.38540266 259.54661196 C391.37770801 263.12721053 391.38760534 266.70777138 391.39513266 270.28836441 C391.40591081 276.54768051 391.40567434 282.80691883 391.39799118 289.0662384 C391.38659696 298.37439274 391.39246912 307.68248203 391.4016161 316.99063599 C391.41737984 333.61943207 391.41605752 350.24819348 391.40737936 366.87699282 C391.39982241 381.42943284 391.39786738 395.98186018 391.4014473 410.53430176 C391.40179103 411.98419154 391.40179103 411.98419154 391.40214171 413.46337202 C391.40307577 417.38742915 391.40403098 421.31148627 391.405021 425.23554339 C391.41419088 462.02027814 391.4058889 498.80499086 391.38973031 535.58972222 C391.37549428 568.24602453 391.3767682 600.90229174 391.39111328 633.55859375 C391.4071892 670.27753614 391.41354047 706.99645908 391.40427649 743.71540451 C391.40331439 747.63216908 391.40237586 751.54893366 391.4014473 755.46569824 C391.40109145 756.91223032 391.40109145 756.91223032 391.40072841 758.38798526 C391.39732096 772.92862475 391.40129756 787.46925015 391.40888596 802.0098877 C391.41747443 818.54896231 391.41529643 835.08799696 391.39904372 851.62706661 C391.39025492 860.87491619 391.38963075 870.12267912 391.40098225 879.37052639 C391.40773656 885.55722657 391.40347394 891.74385765 391.39046794 897.93054764 C391.38337061 901.44907192 391.38080911 904.96742478 391.39168589 908.48594332 C391.48284458 946.24454224 383.7760538 979.08550854 357 1007 C356.24203125 1007.82113281 355.4840625 1008.64226563 354.703125 1009.48828125 C346.24230843 1018.3776686 336.67491038 1025.40645335 325.671875 1030.81640625 C324.98449249 1031.15669357 324.29710999 1031.4969809 323.58889771 1031.84757996 C315.4833055 1035.81021882 307.19146962 1039.32090841 298.875 1042.8125 C297.13466879 1043.54754095 295.39443716 1044.28281772 293.65429688 1045.01831055 C277.73086231 1051.73660016 261.75369278 1058.32557285 245.7734375 1064.90725708 C232.87737436 1070.21903209 219.99754797 1075.56900884 207.125 1080.9375 C205.63577026 1081.55850082 205.63577026 1081.55850082 204.11645508 1082.19204712 C199.08820133 1084.28890146 194.06015649 1086.38625606 189.03222656 1088.48388672 C180.02206051 1092.24258702 171.00994922 1095.9966187 161.99798584 1099.75100708 C156.99857772 1101.8338139 151.99929521 1103.91692219 147 1106 C145.0000006 1106.83333478 143.0000006 1107.66666811 141 1108.5 C140.01 1108.9125 139.02 1109.325 138 1109.75 C129.00000002 1113.49999999 129.00000002 1113.49999999 126.00028992 1114.74987793 C123.99932232 1115.58361528 121.99835593 1116.41735551 119.99739075 1117.25109863 C115.01220478 1119.32827423 110.02699822 1121.40540037 105.04174805 1123.48242188 C93.75010377 1128.18697029 82.45892308 1132.89262775 71.1685791 1137.60029602 C66.03480642 1139.74068823 60.90055495 1141.87991606 55.76513672 1144.01635742 C53.81607136 1144.82728868 51.8670152 1145.63824204 49.91796875 1146.44921875 C48.9801355 1146.83941696 48.04230225 1147.22961517 47.0760498 1147.63163757 C41.98683 1149.75073669 36.90214727 1151.88007716 31.82347107 1154.02432251 C29.05207495 1155.1938625 26.27847526 1156.35811043 23.50448608 1157.52148438 C21.68140705 1158.28876008 19.86176015 1159.06417485 18.04223633 1159.83984375 C16.98931396 1160.28070312 15.9363916 1160.7215625 14.8515625 1161.17578125 C13.50312256 1161.74679565 13.50312256 1161.74679565 12.12744141 1162.3293457 C10 1163 10 1163 8 1162 C11.82155115 1158.67691205 15.67918988 1155.47027018 19.6875 1152.375 C44.35277186 1132.56803927 59.98160111 1104.42947342 64 1073 C64.46995368 1067.28883836 64.4049683 1061.56484918 64.37752342 1055.83896065 C64.38066064 1054.16125933 64.38511016 1052.48356005 64.39073652 1050.80586523 C64.40234544 1046.22207835 64.39546772 1041.63848277 64.38540266 1037.05469925 C64.37775934 1032.05777571 64.38758542 1027.0608804 64.39513266 1022.06396091 C64.40594759 1013.3148092 64.40565142 1004.56571307 64.39799118 995.81655884 C64.38663097 982.80602556 64.39245162 969.79553905 64.4016161 956.78500608 C64.41649145 934.89242274 64.4170552 912.99985893 64.40888596 891.1072731 C64.40863757 890.4413033 64.40838918 889.77533349 64.40813327 889.08918278 C64.40788448 888.42213901 64.40763569 887.75509523 64.40737936 887.06783802 C64.39980385 866.72962899 64.3978584 846.39142898 64.4014473 826.05321884 C64.40167974 824.69022654 64.4019112 823.32723424 64.40214171 821.96424194 C64.40307314 816.48664472 64.40402915 811.00904751 64.405021 805.5314503 C64.40777178 790.21998162 64.40948376 774.9085129 64.41037941 759.59704399 C64.41042035 758.89984243 64.41046128 758.20264087 64.41050346 757.484312 C64.41173097 735.27444762 64.40835237 713.06458637 64.40183067 690.85472298 C64.40151455 689.77448282 64.40151455 689.77448282 64.40119205 688.67241963 C64.39775738 676.97819238 64.39409891 665.28396521 64.39042152 653.58973803 C64.3758546 607.21688046 64.37652775 560.84404887 64.39111328 514.47119141 C64.39477701 502.78518234 64.39841022 491.09917328 64.40183067 479.41316414 C64.40214769 478.33376438 64.40214769 478.33376438 64.40247111 477.23255858 C64.40894218 455.0472194 64.41168201 432.86188238 64.41037941 410.67654228 C64.41031828 409.63147173 64.41031828 409.63147173 64.41025592 408.56528864 C64.40931837 393.26947619 64.40741724 377.97366398 64.4046479 362.67785176 C64.40366052 357.20458037 64.40272127 351.73130897 64.40179577 346.25803757 C64.4015636 344.89649018 64.40132741 343.53494278 64.40108718 342.17339538 C64.39750998 321.84322847 64.4005488 301.51307171 64.40813327 281.18290607 C64.40850585 280.18419974 64.40850585 280.18419974 64.40888596 279.16531754 C64.409134 278.50074719 64.40938205 277.83617685 64.40963761 277.15146802 C64.41792191 254.71066817 64.41484337 232.26989362 64.39904372 209.82909741 C64.39023923 196.89754705 64.38965354 183.96605866 64.40098225 171.03450992 C64.40771762 162.39228923 64.40350782 153.75011814 64.39046794 145.10790478 C64.38334456 140.18687619 64.38086448 135.26597057 64.39168589 130.34494592 C64.40145013 125.8587856 64.3971552 121.37285616 64.38214391 116.88671234 C64.37914876 115.28298993 64.38105032 113.67924794 64.38876172 112.07554128 C64.45434311 97.381684 62.99121792 82.67640629 57.8125 68.8125 C57.50916748 67.98137695 57.20583496 67.15025391 56.89331055 66.29394531 C46.50193134 38.67915366 27.2670442 17.17490912 1.99609375 2.22265625 C1.33738281 1.81917969 0.67867187 1.41570313 0 1 C0 0.67 0 0.34 0 0 Z " fill="#B765EE" transform="translate(934,22)"/>
<path d="M0 0 C1.15048828 0.94166016 1.15048828 0.94166016 2.32421875 1.90234375 C16.63707684 13.92514455 26.22406946 30.71963958 36.23193359 46.26123047 C39.30346917 51.01909931 42.40321413 55.75854393 45.5 60.5 C50.94057967 68.83668969 56.37118346 77.17978768 61.7890625 85.53125 C62.28535156 86.29566406 62.78164063 87.06007813 63.29296875 87.84765625 C63.93528442 88.8377771 63.93528442 88.8377771 64.59057617 89.84790039 C65.68012176 91.51156649 66.85223308 93.12132389 68.05558121 94.70462668 C70.2778563 98.47090691 70.50593114 100.54206129 70.52012444 104.87807274 C70.53154145 105.88416099 70.53154145 105.88416099 70.54318911 106.91057426 C70.56379103 109.15654892 70.55601532 111.40150977 70.54830933 113.64755249 C70.55721601 115.2747587 70.56784474 116.90195624 70.58004677 118.52914107 C70.60840701 122.99978535 70.61173337 127.47015155 70.61085296 131.94087291 C70.61414954 136.76326291 70.64028349 141.58553837 70.66323853 146.40786743 C70.70894115 156.95370297 70.7247809 167.49945802 70.73489141 178.04537916 C70.74140705 184.63370556 70.75445329 191.22200861 70.7688942 197.81032181 C70.80803127 216.0601266 70.84083509 234.30990968 70.84664726 252.55975914 C70.8470224 253.72769748 70.84739754 254.89563581 70.84778405 256.09896622 C70.84851654 258.46657983 70.84924394 260.83419345 70.84996627 263.20180707 C70.85033189 264.37706132 70.85069752 265.55231557 70.85107422 266.76318359 C70.85161587 268.5282238 70.85161587 268.5282238 70.85216846 270.32892139 C70.85924662 289.38125416 70.91325534 308.43313408 70.98807 327.48530988 C71.06430935 347.0574161 71.10296278 366.62929789 71.10356629 386.20155585 C71.10473402 397.18597197 71.12162436 408.16984835 71.17956161 419.15412521 C71.22868873 428.51106236 71.2430898 437.86726308 71.21306656 447.22429447 C71.19876631 451.99433495 71.20027098 456.76292289 71.24588776 461.53279877 C71.28734476 465.90988988 71.28162251 470.28442502 71.24013807 474.66149254 C71.23319956 476.23495826 71.24275053 477.8086136 71.27154694 479.38183109 C71.47452702 491.24699526 68.23030512 498.66597912 61.27871133 508.2284338 C59.28493014 510.99067988 57.43346701 513.84095877 55.5625 516.6875 C54.73916847 517.91465822 53.91508127 519.1413102 53.08984375 520.3671875 C49.30965451 526.01216629 45.60075715 531.70401369 41.88278198 537.39004517 C40.62627468 539.31055171 39.36824475 541.23005107 38.10961914 543.14916992 C37.4933239 544.08890404 37.4933239 544.08890404 36.86457825 545.04762268 C36.04720759 546.29392435 35.22981481 547.54021152 34.41239929 548.78648376 C32.09429509 552.32304545 29.78867352 555.86731073 27.4921875 559.41796875 C9.42495286 587.20357635 -15.51579507 610.13889571 -48.7265625 617.8671875 C-81.65178748 624.84077848 -117.17759805 621.34419676 -146 603 C-150.55589432 599.92549989 -154.7953661 596.53481939 -159 593 C-159.87011719 592.29359375 -160.74023438 591.5871875 -161.63671875 590.859375 C-186.08505578 570.13394016 -198.6253361 539.19178576 -202 508 C-202.44397443 501.88669083 -202.40390131 495.76960615 -202.3742218 489.64385986 C-202.37697175 487.89320884 -202.38103176 486.14255949 -202.38626546 484.39191413 C-202.39672396 479.64505847 -202.38880805 474.89839464 -202.37751496 470.15154767 C-202.36859283 465.00770641 -202.37713928 459.86388813 -202.38337708 454.720047 C-202.39282003 444.66955865 -202.38630533 434.61914258 -202.37411413 424.56865963 C-202.36043079 412.84759562 -202.3621375 401.12654842 -202.36424746 389.40547845 C-202.36743063 368.48531072 -202.35580727 347.56517714 -202.33618164 326.64501953 C-202.31717063 306.37450115 -202.3100975 286.10402276 -202.31567383 265.83349609 C-202.32173923 243.71997415 -202.32154136 221.60646974 -202.310188 199.49294925 C-202.30898079 197.13271761 -202.30777481 194.77248597 -202.30657005 192.41225433 C-202.30596651 191.25118684 -202.30536298 190.09011934 -202.30474115 188.89386798 C-202.30087162 180.73532697 -202.30125183 172.57679252 -202.3031559 164.41825104 C-202.30528359 154.47079792 -202.30001011 144.52337971 -202.28554235 134.57593641 C-202.27832703 129.50658273 -202.2741968 124.43727976 -202.27878571 119.36792183 C-202.2828921 114.71834661 -202.27761239 110.06887563 -202.26515963 105.41931614 C-202.26225611 103.74669528 -202.26262841 102.07406443 -202.26680271 100.40144625 C-202.29902078 86.19035125 -201.439695 72.21371262 -197.375 58.5 C-197.11775146 57.61908691 -196.86050293 56.73817383 -196.59545898 55.83056641 C-186.39167011 22.50160777 -162.09670117 -2.4657677 -131.96484375 -18.66015625 C-128.6856623 -20.14205248 -125.47785255 -21.07775795 -122 -22 C-120.61110154 -22.40323935 -119.22311649 -22.80963468 -117.8359375 -23.21875 C-76.13425867 -35.30032741 -33.54565732 -28.3626373 0 0 Z " fill="#5A24AB" transform="translate(224,309)"/>
<path d="M0 0 C1.30710937 0.91072266 1.30710937 0.91072266 2.640625 1.83984375 C9.19643815 6.46370637 15.16207908 11.50491001 21 17 C21.99773437 17.88365234 21.99773437 17.88365234 23.015625 18.78515625 C43.81444067 38.01983334 55.99574154 69.23399068 57.30048943 97.14074898 C57.48357348 102.84116412 57.50893782 108.54148965 57.53100586 114.24438477 C57.54985395 116.41648289 57.56979889 118.58857172 57.59074402 120.76065063 C57.65316826 127.82083691 57.68486075 134.88102034 57.71484375 141.94140625 C57.72700773 144.38841277 57.73935907 146.83541837 57.751894 149.28242302 C57.80886808 160.77321342 57.85161793 172.26394784 57.87672991 183.75485188 C57.9060856 196.96302731 57.9852158 210.16969975 58.10623258 223.37734562 C58.19692499 233.63098025 58.24115454 243.88418494 58.25107294 254.13821262 C58.2580938 260.24418328 58.28456852 266.34853693 58.36045647 272.45407295 C58.43070062 278.19647401 58.44284623 283.9362077 58.41217232 289.67892838 C58.41069601 291.77305591 58.42936921 293.86732122 58.47084045 295.96103859 C58.74327534 310.54228507 55.94913533 319.21340662 46.39876378 330.34940422 C44.57118002 332.50602429 42.94906119 334.78582195 41.3359375 337.10546875 C40.34984505 338.46678858 39.36289565 339.82748816 38.375 341.1875 C34.56615431 346.44625234 30.76755659 351.71158078 27 357 C23.23243835 362.28842633 19.43292858 367.55307864 15.625 372.8125 C11.37757019 378.68131403 7.16760248 384.57424407 3 390.5 C-3.79218798 400.15517744 -10.71820101 409.71205777 -17.64550781 419.27050781 C-23.47462861 427.31628773 -29.28327116 435.37384972 -35 443.5 C-40.71791991 451.62784334 -46.52824095 459.68666044 -52.35888672 467.73388672 C-55.07648163 471.48644785 -57.78801939 475.24338045 -60.5 479 C-63.75869057 483.51391895 -67.0186666 488.02687665 -70.28515625 492.53515625 C-75.56580422 499.82747964 -80.8195134 507.1361012 -86 514.5 C-92.79232824 524.15508101 -99.71819915 533.7120552 -106.64550781 543.27050781 C-108.28532939 545.53390979 -109.9240613 547.79809683 -111.5625 550.0625 C-112.09399658 550.795896 -112.62549316 551.52929199 -113.1730957 552.28491211 C-115.94149621 556.11416066 -118.68011662 559.96116169 -121.37890625 563.83984375 C-121.92409912 564.62157959 -122.46929199 565.40331543 -123.03100586 566.20874023 C-124.0691641 567.70102313 -125.10277305 569.19648452 -126.13110352 570.69555664 C-126.82804321 571.69703735 -126.82804321 571.69703735 -127.5390625 572.71875 C-127.94334473 573.30591797 -128.34762695 573.89308594 -128.76416016 574.49804688 C-130 576 -130 576 -133 578 C-139.3941607 569.64726755 -145.61005972 561.21743201 -151.5 552.5 C-156.01077319 545.82789863 -160.68063146 539.32543929 -165.55297852 532.91357422 C-169.63703933 527.52586134 -173.54997663 522.03150725 -177.42993164 516.49560547 C-181.07546432 511.29751032 -184.77318427 506.14009163 -188.5 501 C-192.70704228 495.19446905 -196.8759547 489.36478 -201 483.5 C-206.71351272 475.37802481 -212.51947702 467.32506114 -218.34570312 459.28369141 C-221.12918202 455.44120888 -223.90874599 451.5959003 -226.6875 447.75 C-227.23140381 446.99726807 -227.77530762 446.24453613 -228.33569336 445.46899414 C-231.97301042 440.43156592 -235.59122906 435.38092946 -239.1965332 430.32055664 C-242.5674928 425.59364258 -245.97022626 420.89009337 -249.375 416.1875 C-254.12538944 409.62373005 -258.81950981 403.02309566 -263.47998047 396.39526367 C-267.11418152 391.23479354 -270.79654188 386.11094815 -274.5 381 C-278.70685924 375.1943344 -282.87595272 369.36478281 -287 363.5 C-293.25432876 354.60923428 -299.6211553 345.80166999 -306 337 C-308.1886763 333.98001638 -310.37638954 330.95934159 -312.5625 327.9375 C-313.09472168 327.20192871 -313.62694336 326.46635742 -314.17529297 325.70849609 C-318.51562525 319.69748559 -322.79694028 313.64592109 -327.04321289 307.56811523 C-327.5046167 306.91012939 -327.96602051 306.25214355 -328.44140625 305.57421875 C-328.87340332 304.95466309 -329.30540039 304.33510742 -329.75048828 303.69677734 C-331.11980546 301.77917365 -331.11980546 301.77917365 -333.40234375 299.33203125 C-335 297 -335 297 -334.75512695 294.61425781 C-333.98591166 291.95122601 -333.04846572 290.13721177 -331.515625 287.83984375 C-330.9995166 287.05697998 -330.4834082 286.27411621 -329.95166016 285.4675293 C-329.3901123 284.63261963 -328.82856445 283.79770996 -328.25 282.9375 C-327.05447652 281.13034789 -325.85916985 279.32305233 -324.6640625 277.515625 C-324.05208008 276.59587891 -323.44009766 275.67613281 -322.80957031 274.72851562 C-320.0504213 270.56820136 -317.33890899 266.37740197 -314.625 262.1875 C-309.29071093 253.9760997 -303.94129071 245.77459212 -298.59082031 237.57373047 C-292.38249847 228.05654261 -286.18994016 218.52914956 -280 209 C-272.54116835 197.51744598 -265.07260897 186.04134158 -257.59082031 174.57373047 C-251.38249847 165.05654261 -245.18994016 155.52914956 -239 146 C-231.53973003 134.51523174 -224.06991481 123.0367934 -216.58642578 111.56713867 C-212.55154956 105.38202306 -208.52291053 99.19290414 -204.5 93 C-199.20923923 84.85535596 -193.90780436 76.71772226 -188.59692383 68.58618164 C-185.55615962 63.92859978 -182.52317077 59.26644154 -179.51171875 54.58984375 C-157.10987631 19.82320004 -132.25219712 -7.38059253 -90.0390625 -16.609375 C-60.01489324 -22.36113156 -25.12928915 -18.49052304 0 0 Z " fill="#6531C3" transform="translate(942,27)"/>
<path d="M0 0 C2.92417866 2.75607216 5.12841156 5.50754165 7.2578125 8.91015625 C7.87446777 9.88670166 8.49112305 10.86324707 9.12646484 11.86938477 C9.78598145 12.92311279 10.44549805 13.97684082 11.125 15.0625 C12.55504482 17.32438686 13.98662434 19.58517495 15.421875 21.84375 C15.79287323 22.42794205 16.16387146 23.01213409 16.54611206 23.61402893 C20.72019062 30.16514222 25.04533338 36.61364723 29.375 43.0625 C34.40664563 50.5635467 39.37560169 58.08510476 44.09521484 65.78735352 C48.22507489 72.47109107 52.62544224 78.97532586 57 85.5 C62.15502049 93.18873808 67.25691783 100.89075517 72.09375 108.78515625 C76.60128726 116.07944796 81.42454775 123.16739972 86.19897461 130.28820801 C91.14101678 137.66273287 96.00286756 145.07130548 100.65844727 152.63110352 C103.72660007 157.60330608 106.93993522 162.46589047 110.19921875 167.31445312 C113.18480861 171.76058617 116.10536964 176.24421773 119 180.75 C123.54277024 187.81523392 128.19731801 194.80329748 132.87060547 201.7824707 C138.5946764 210.33105759 144.2726066 218.89193491 149.671875 227.65112305 C152.5952473 232.38590623 155.64481202 237.02195074 158.7487793 241.63989258 C162.76732744 247.62705691 166.72267218 253.65513138 170.66940308 259.6897583 C171.42224894 260.8408244 172.17543455 261.99166837 172.9289856 263.14227295 C174.67589618 265.80995069 176.41718705 268.48084124 178.14697266 271.15966797 C179.30275596 272.93125992 180.48117995 274.68853006 181.69287109 276.42236328 C183.13671875 278.53515625 183.13671875 278.53515625 185 282 C183.30723709 286.62596686 179.89894036 290.71130981 177.125 294.75 C176.25597046 296.0181958 176.25597046 296.0181958 175.36938477 297.31201172 C171.20472741 303.34858428 166.88562589 309.2447923 162.44946289 315.08349609 C158.36424637 320.47193487 154.45075235 325.96745264 150.57006836 331.50439453 C146.92453568 336.70248968 143.22681573 341.85990837 139.5 347 C135.29295772 352.80553095 131.1240453 358.63522 127 364.5 C121.29135236 372.6150593 115.48944701 380.66033391 109.66748047 388.69433594 C107.9520304 391.06632868 106.24282652 393.44271373 104.53515625 395.8203125 C80.33960915 429.49190448 54.89763765 452.55897405 13.15527344 460.54418945 C-1.05329712 462.59675841 -17.87913248 462.21786345 -31.9375 459.375 C-32.63633301 459.23489502 -33.33516602 459.09479004 -34.05517578 458.95043945 C-50.79544507 455.04307741 -66.11131159 446.72801032 -81.34548521 439.05938864 C-84.59519423 437.42579353 -87.8496088 435.8016199 -91.10342407 434.17622375 C-96.72284102 431.36755751 -102.33932834 428.55310708 -107.95379639 425.73456192 C-116.0710997 421.65956757 -124.19287408 417.59355116 -132.31572223 413.52962302 C-145.49845574 406.93389282 -158.67760979 400.3310436 -171.85449219 393.72363281 C-184.64492027 387.31002484 -197.43704587 380.89982279 -210.23144531 374.49414062 C-211.41695118 373.90059952 -211.41695118 373.90059952 -212.62640667 373.29506768 C-216.59181183 371.30975479 -220.5572502 369.32450824 -224.52270508 367.33929467 C-257.35362479 350.90314444 -290.17872714 334.45540483 -323 318 C-319.25828522 316.75276174 -318.11137007 317.45499599 -314.4375 318.75 C-282.50839924 328.88845757 -248.73435355 324.90264049 -219 310 C-197.66276484 298.04584713 -182.41741832 280.87274072 -169.55419922 260.45019531 C-166.70533553 255.95896125 -163.78566911 251.51382096 -160.875 247.0625 C-159.60152805 245.11069956 -158.32809136 243.15887612 -157.0546875 241.20703125 C-154.20863359 236.84835498 -151.35913232 232.49195057 -148.5078125 228.13671875 C-147.7488562 226.97713509 -146.98990436 225.81754852 -146.23095703 224.65795898 C-144.78745137 222.45249665 -143.34297785 220.24767875 -141.89794922 218.04321289 C-136.76842723 210.20778448 -131.66402813 202.35529045 -126.76171875 194.375 C-120.99885724 184.99814059 -114.92378795 175.84431028 -108.79598999 166.70410156 C-104.43388055 160.1947294 -100.09439236 153.68263324 -96 147 C-91.15435953 139.09122251 -85.96528379 131.41401367 -80.80102539 123.71179199 C-75.85749836 116.33505142 -70.99509932 108.92375771 -66.3371582 101.36230469 C-63.31613015 96.46757355 -60.15570756 91.6792449 -56.94799805 86.90527344 C-53.52186439 81.80069701 -50.15799613 76.65774497 -46.8125 71.5 C-46.26859619 70.66154541 -45.72469238 69.82309082 -45.16430664 68.95922852 C-44.02925518 67.20933694 -42.89424632 65.45941773 -41.75927734 63.70947266 C-38.09492339 58.0659811 -34.41590635 52.43204196 -30.73876953 46.796875 C-27.51209968 41.85191426 -24.28711086 36.90587986 -21.06640625 31.95703125 C-14.10479312 21.26358975 -7.11266268 10.59368347 0 0 Z " fill="#7F3FD5" transform="translate(422,605)"/>
<path d="M0 0 C0.66 0.33 1.32 0.66 2 1 C-0.24722237 4.37083355 -1.3305212 4.82061 -5 6.25 C-5.886875 6.60578125 -6.77375 6.9615625 -7.6875 7.328125 C-10 8 -10 8 -12 7 C-10.04754815 5.80285445 -8.08785003 4.61751926 -6.125 3.4375 C-5.03445313 2.77621094 -3.94390625 2.11492187 -2.8203125 1.43359375 C-1.88960937 0.96050781 -0.95890625 0.48742188 0 0 Z " fill="#5946D3" transform="translate(942,1182)"/>
<path d="M0 0 C0.66 0.33 1.32 0.66 2 1 C-0.69728168 4.33193619 -4.02060187 5.60371996 -8 7 C-10.22265625 6.578125 -10.22265625 6.578125 -12 6 C-10.04669132 4.96958487 -8.08718472 3.9509107 -6.125 2.9375 C-5.03445312 2.36902344 -3.94390625 1.80054688 -2.8203125 1.21484375 C-1.42425781 0.61349609 -1.42425781 0.61349609 0 0 Z " fill="#EEA7C7" transform="translate(109,282)"/>
</svg>
